<svg width="110" height="42" viewBox="0 0 110 42" fill="none" xmlns="http://www.w3.org/2000/svg">
<g clip-path="url(#clip0_12_2031)">
<path d="M89.2828 0H20.7172C9.27542 0 0 9.40202 0 21C0 32.598 9.27542 42 20.7172 42H89.2828C100.725 42 110 32.598 110 21C110 9.40202 100.725 0 89.2828 0Z" fill="#5260A2"/>
<path d="M30.3161 31.6833H18.0728V10.0649H21.4039V28.6246H30.3161V31.6833Z" fill="white"/>
<path d="M32.7561 31.6833V10.0649H36.0872V31.6833H32.7561Z" fill="white"/>
<path d="M48.6737 24.2772L54.2767 10.0278H57.9292L48.7906 32.609L39.0164 10.0278H42.6689L48.6737 24.2772Z" fill="white"/>
<path d="M64.1897 18.8486H71.977V21.9073H64.1897V28.5728H73.6425V31.6833H60.8513V10.0649H73.6425V13.094H64.1897V18.8486Z" fill="white"/>
<path d="M90.0645 27.5063C93.6068 27.5063 96.4784 24.595 96.4784 21.0038C96.4784 17.4125 93.6068 14.5012 90.0645 14.5012C86.5222 14.5012 83.6506 17.4125 83.6506 21.0038C83.6506 24.595 86.5222 27.5063 90.0645 27.5063Z" fill="white"/>
</g>
<defs>
<clipPath id="clip0_12_2031">
<rect width="110" height="42" fill="white"/>
</clipPath>
</defs>
</svg>
