<svg width="45" height="34" viewBox="0 0 45 34" fill="none" xmlns="http://www.w3.org/2000/svg">
<g clip-path="url(#clip0_14_4257)">
<path d="M28.6806 2.15974C28.1606 2.15974 27.6806 2.15974 27.2306 2.15974C27.0794 2.17105 26.9288 2.13074 26.8035 2.04536C26.6781 1.95999 26.5854 1.83461 26.5406 1.68974C26.3961 1.32002 26.3961 0.909473 26.5406 0.539749C26.579 0.367544 26.6802 0.215829 26.8244 0.114151C26.9686 0.012473 27.1455 -0.0319008 27.3206 -0.0102691H32.3206C32.8106 -0.0102691 33.0606 0.159755 33.1506 0.639755C33.2056 0.913693 33.2056 1.1958 33.1506 1.46974C33.0606 1.96974 32.8006 2.14973 32.2906 2.14973H30.9506V3.20973C30.9506 3.61973 30.9506 4.02974 30.9506 4.43974C30.9506 4.84974 31.0506 4.79976 31.3106 4.82976C32.9751 4.98606 34.596 5.45062 36.0906 6.19975C37.5904 6.95601 38.9446 7.97166 40.0906 9.19975C40.1506 9.26975 40.2006 9.35973 40.2806 9.45973L41.2806 8.65974C41.0406 8.36974 40.8306 8.09976 40.6206 7.82976C40.5608 7.77629 40.5129 7.7108 40.4802 7.63756C40.4474 7.56432 40.4304 7.48497 40.4304 7.40474C40.4304 7.3245 40.4474 7.24519 40.4802 7.17195C40.5129 7.09871 40.5608 7.03322 40.6206 6.97975C40.7844 6.7978 40.9813 6.6485 41.2006 6.53975C41.3256 6.47419 41.4705 6.45732 41.6072 6.49242C41.7439 6.52752 41.8627 6.61209 41.9406 6.72975L44.4006 9.79976C44.4679 9.85607 44.5219 9.92643 44.559 10.0059C44.5961 10.0854 44.6154 10.172 44.6154 10.2598C44.6154 10.3475 44.5961 10.4341 44.559 10.5136C44.5219 10.593 44.4679 10.6634 44.4006 10.7197C44.2254 10.8942 44.0183 11.0334 43.7906 11.1297C43.6767 11.186 43.5459 11.1976 43.4238 11.1625C43.3018 11.1273 43.1972 11.0479 43.1306 10.9397C42.9206 10.6697 42.7006 10.3998 42.4706 10.1398C42.4706 10.1398 42.4706 10.1398 42.3906 10.1398L41.4706 10.8697C41.5373 10.9897 41.6073 11.0998 41.6806 11.1998C43.4973 13.9682 44.2862 17.2858 43.9103 20.5757C43.5344 23.8656 42.0174 26.9197 39.6231 29.2071C37.2288 31.4944 34.1086 32.8703 30.8049 33.0955C27.5013 33.3207 24.2232 32.381 21.5406 30.4397C21.3485 30.316 21.1679 30.1754 21.0006 30.0198C20.8317 29.8484 20.6259 29.7179 20.3989 29.6381C20.1718 29.5584 19.9296 29.5316 19.6906 29.5597C17.1839 29.5597 14.6806 29.5597 12.1806 29.5597C11.8809 29.557 11.5875 29.4741 11.3306 29.3197C11.1613 29.2078 11.0328 29.044 10.9643 28.853C10.8958 28.6619 10.891 28.4538 10.9506 28.2598C10.9858 28.0594 11.0811 27.8745 11.2241 27.7298C11.367 27.5851 11.5507 27.4874 11.7506 27.4498C11.8999 27.4296 12.0513 27.4296 12.2006 27.4498H20.8106C20.958 27.4446 21.1049 27.4694 21.2424 27.5227C21.3799 27.576 21.5052 27.6566 21.6106 27.7598C23.1343 29.2296 25.026 30.2617 27.0867 30.7474C29.1473 31.2331 31.3009 31.1544 33.3206 30.5198C36.138 29.6664 38.5433 27.8073 40.0792 25.296C41.6151 22.7847 42.1744 19.7965 41.6506 16.8997C41.3329 14.8712 40.4755 12.9655 39.1683 11.3821C37.8612 9.79867 36.1522 8.59588 34.2206 7.89973C29.5506 6.10973 25.2806 7.02974 21.5506 10.3697C21.471 10.4531 21.3745 10.5186 21.2676 10.5617C21.1607 10.6048 21.0458 10.6246 20.9306 10.6197H12.1206C11.9499 10.6382 11.7772 10.6157 11.6169 10.5541C11.4566 10.4925 11.3133 10.3935 11.1989 10.2654C11.0845 10.1373 11.0024 9.98385 10.9592 9.81764C10.916 9.65143 10.9131 9.47731 10.9506 9.30974C10.985 9.09869 11.086 8.90422 11.239 8.75484C11.392 8.60546 11.5888 8.50905 11.8006 8.47975C12.007 8.46455 12.2142 8.46455 12.4206 8.47975C14.9906 8.47975 17.5706 8.47975 20.1506 8.47975C20.3507 8.47401 20.5436 8.40386 20.7006 8.27974C22.8725 6.43593 25.5553 5.29865 28.3906 5.01976C28.6306 5.01976 28.7206 4.92975 28.7206 4.66975C28.6706 3.72975 28.6806 2.96974 28.6806 2.15974Z" fill="white"/>
<path d="M15.6602 17.8799L16.1002 15.2799H7.37022C7.22143 15.295 7.07107 15.2794 6.92857 15.234C6.78607 15.1886 6.65448 15.1143 6.54191 15.0158C6.42935 14.9173 6.33828 14.7967 6.27434 14.6615C6.21039 14.5263 6.17493 14.3794 6.17021 14.2299C6.16349 14.092 6.18405 13.9541 6.2307 13.8241C6.27734 13.6941 6.34917 13.5746 6.44206 13.4724C6.53495 13.3703 6.64707 13.2874 6.77202 13.2286C6.89697 13.1699 7.03227 13.1363 7.17021 13.1299H19.3102C18.3378 14.9174 17.8284 16.92 17.8284 18.9549C17.8284 20.9898 18.3378 22.9923 19.3102 24.7799H18.9902H7.39024C7.24841 24.7884 7.10627 24.7689 6.97197 24.7225C6.83767 24.6761 6.71385 24.6038 6.60753 24.5095C6.5012 24.4153 6.41444 24.301 6.35228 24.1732C6.29012 24.0455 6.25376 23.9067 6.24522 23.7649C6.23669 23.6231 6.25615 23.4809 6.30254 23.3466C6.34892 23.2124 6.42136 23.0885 6.51561 22.9822C6.60986 22.8759 6.72409 22.7891 6.85185 22.727C6.97962 22.6648 7.11841 22.6284 7.26024 22.6199H16.1402L15.6902 20.0199H1.17021C0.976659 20.0307 0.783768 19.9891 0.6118 19.8996C0.439832 19.8102 0.295135 19.6761 0.192855 19.5114C0.0905744 19.3467 0.0344842 19.1576 0.0305014 18.9637C0.0265187 18.7699 0.0747819 18.5786 0.170211 18.4099C0.262383 18.229 0.40742 18.0805 0.586043 17.984C0.764667 17.8876 0.968417 17.8477 1.17021 17.8699H15.6802L15.6602 17.8799Z" fill="white"/>
<path d="M28.4506 20.3397L31.4006 17.4597C32.6206 16.2597 33.8439 15.063 35.0706 13.8697C35.1686 13.7612 35.2878 13.6739 35.421 13.6133C35.5541 13.5527 35.6982 13.52 35.8444 13.5173C35.9906 13.5145 36.1359 13.5418 36.2712 13.5974C36.4065 13.6531 36.5289 13.7358 36.631 13.8406C36.733 13.9454 36.8125 14.0699 36.8645 14.2066C36.9165 14.3433 36.9399 14.4893 36.9333 14.6354C36.9267 14.7815 36.8902 14.9247 36.8261 15.0562C36.762 15.1876 36.6716 15.3045 36.5605 15.3997L29.3105 22.4797C29.2084 22.6069 29.079 22.7096 28.9319 22.7802C28.7848 22.8507 28.6237 22.8873 28.4606 22.8873C28.2974 22.8873 28.1363 22.8507 27.9892 22.7802C27.8421 22.7096 27.7127 22.6069 27.6105 22.4797L23.0605 18.2097C22.9374 18.1185 22.8351 18.0022 22.7603 17.8685C22.6856 17.7347 22.6401 17.5866 22.627 17.434C22.6139 17.2813 22.6334 17.1277 22.6843 16.9831C22.7351 16.8386 22.8161 16.7065 22.9219 16.5957C23.0277 16.4849 23.1559 16.3979 23.2979 16.3404C23.4399 16.283 23.5926 16.2564 23.7457 16.2624C23.8988 16.2685 24.0488 16.307 24.1858 16.3755C24.3229 16.444 24.4438 16.5409 24.5405 16.6597L28.1605 20.0597L28.4506 20.3397Z" fill="white"/>
</g>
<defs>
<clipPath id="clip0_14_4257">
<rect width="44.59" height="33.06" fill="white"/>
</clipPath>
</defs>
</svg>
