<svg width="53" height="53" viewBox="0 0 53 53" fill="none" xmlns="http://www.w3.org/2000/svg">
<rect width="53" height="53" fill="#5A5B99"/>
<g clip-path="url(#clip0_12_2596)">
<path d="M23.5924 17.4495H12.571C12.3875 17.4563 12.2037 17.4508 12.0209 17.4331C11.7451 17.3957 11.4913 17.2602 11.3042 17.0505C11.1172 16.8409 11.009 16.5706 10.9989 16.2875C10.9801 16.0125 11.0564 15.7394 11.2148 15.5158C11.3731 15.2921 11.6034 15.132 11.8656 15.0633C12.0769 15.0147 12.2933 14.9931 12.5099 14.999C19.9049 14.999 27.3006 14.999 34.697 14.999C34.8646 14.9946 35.0323 15.0059 35.198 15.0327C35.4906 15.0766 35.7562 15.2312 35.9419 15.4657C36.1276 15.7001 36.2197 15.9972 36.1999 16.2977C36.1892 16.5993 36.0655 16.8854 35.8542 17.0971C35.643 17.3088 35.3601 17.4301 35.0637 17.4362C34.1299 17.4617 33.1941 17.4464 32.2583 17.4464L23.5924 17.4495Z" fill="white"/>
<path d="M23.6205 34.5505C27.3611 34.5505 31.1018 34.5505 34.8424 34.5505C35.5036 34.5505 35.9355 34.8199 36.1238 35.3279C36.1856 35.4863 36.2135 35.6563 36.2058 35.8266C36.1981 35.9968 36.1549 36.1635 36.0791 36.3154C36.0033 36.4674 35.8966 36.6012 35.7661 36.708C35.6356 36.8147 35.4843 36.892 35.3223 36.9347C35.0943 36.9846 34.861 37.0055 34.6279 36.9969C27.2803 36.9969 19.9327 36.9969 12.5851 36.9969C12.4849 36.9969 12.3847 36.9969 12.2845 36.9969C11.505 36.9653 10.982 36.4511 11.001 35.7329C11.019 35.0331 11.533 34.5526 12.3035 34.5516C16.0755 34.5475 19.8479 34.5471 23.6205 34.5505Z" fill="white"/>
<path d="M40.2188 25.9485C41.1315 26.8666 41.9491 27.6828 42.7627 28.5112C44.0272 29.7939 45.2896 31.0786 46.5501 32.3654C47.0621 32.8897 47.1352 33.4978 46.7795 34.016C46.3136 34.6944 45.504 34.7607 44.8858 34.1384C43.2827 32.5255 41.6966 30.8994 40.1035 29.2783C39.3371 28.4979 38.5686 27.7185 37.8071 26.9319C37.2199 26.327 37.2179 25.6649 37.8071 25.0579C40.151 22.6639 42.4982 20.2736 44.8488 17.8871C45.4189 17.3087 46.1162 17.2801 46.6192 17.7902C47.1402 18.3176 47.1202 19.044 46.5411 19.6357C44.6106 21.608 42.6735 23.5762 40.7298 25.5404C40.5675 25.6866 40.3968 25.8228 40.2188 25.9485Z" fill="white"/>
<path d="M18.8121 27.2248C16.6746 27.2248 14.5371 27.2248 12.3996 27.2248C11.551 27.2248 10.9889 26.7238 10.9969 25.9842C11.0059 25.263 11.559 24.7712 12.3776 24.7712C16.6526 24.7712 20.9275 24.7712 25.2025 24.7712C26.0492 24.7712 26.6213 25.2813 26.6053 26.0138C26.5892 26.7463 26.0371 27.2237 25.2186 27.2248C23.0844 27.2261 20.9489 27.2261 18.8121 27.2248Z" fill="white"/>
</g>
<defs>
<clipPath id="clip0_12_2596">
<rect width="36" height="22" fill="white" transform="translate(11 15)"/>
</clipPath>
</defs>
</svg>
