<svg width="147" height="86" viewBox="0 0 147 86" fill="none" xmlns="http://www.w3.org/2000/svg">
<g clip-path="url(#clip0_12_2544)">
<path d="M60.3305 32.9901C59.9799 32.5781 59.4769 31.8609 59.4769 31.8609C59.5423 32.3161 59.583 32.7746 59.5988 33.2342V41.4741H58.3794V29.1448H58.5928L65.8635 37.7661C66.1989 38.1781 66.7019 38.8953 66.7019 38.8953C66.7019 38.8953 66.6104 38.0255 66.6104 37.5067V29.2821H67.8146V41.5962H67.6012L60.3305 32.9901Z" fill="#F2C43E"/>
<path d="M71.0459 37.3084V29.2821H72.3263V37.2168C72.3263 38.0363 72.6515 38.8223 73.2303 39.4017C73.8092 39.9812 74.5943 40.3068 75.4129 40.3068C76.2315 40.3068 77.0166 39.9812 77.5955 39.4017C78.1743 38.8223 78.4995 38.0363 78.4995 37.2168V29.2821H79.7799V37.3084C79.7141 38.4232 79.2253 39.4707 78.4136 40.2367C77.6019 41.0027 76.5285 41.4293 75.4129 41.4293C74.2974 41.4293 73.224 41.0027 72.4122 40.2367C71.6005 39.4707 71.1117 38.4232 71.0459 37.3084Z" fill="#F2C43E"/>
<path d="M85.6789 30.4265H81.9292V29.2821H90.709V30.4265H86.9745V41.4741H85.6789V30.4265Z" fill="#F2C43E"/>
<path d="M100.876 41.4741H99.3516L97.0042 38.1324C96.5764 38.2064 96.1428 38.2421 95.7086 38.2392H94.3215V41.4741H93.0259V29.2668H95.7695C99.1077 29.2668 100.83 31.1285 100.83 33.7683C100.876 34.6097 100.655 35.4441 100.198 36.1515C99.7401 36.8589 99.0704 37.4029 98.2846 37.7051L100.876 41.4741ZM95.6324 37.11C98.3913 37.11 99.4125 35.6909 99.4125 33.7835C99.4125 31.8761 98.376 30.4265 95.6324 30.4265H94.3215V37.11H95.6324Z" fill="#F2C43E"/>
<path d="M103.696 29.2821H104.991V41.4893H103.68L103.696 29.2821Z" fill="#F2C43E"/>
<path d="M111.088 30.4265H107.354V29.2821H116.134V30.4265H112.384V41.4741H111.088V30.4265Z" fill="#F2C43E"/>
<path d="M118.405 29.2821H119.716V41.4893H118.405V29.2821Z" fill="#F2C43E"/>
<path d="M122.398 35.3705C122.392 34.1288 122.755 32.9133 123.439 31.878C124.124 30.8426 125.1 30.034 126.244 29.5547C127.389 29.0753 128.649 28.9468 129.866 29.1853C131.084 29.4238 132.203 30.0187 133.082 30.8946C133.961 31.7704 134.561 32.8878 134.805 34.1052C135.049 35.3226 134.927 36.5851 134.454 37.7328C133.981 38.8806 133.178 39.8619 132.147 40.5523C131.116 41.2428 129.903 41.6114 128.663 41.6114C127.837 41.6344 127.014 41.4889 126.246 41.1838C125.477 40.8787 124.779 40.4203 124.193 39.8366C123.607 39.2528 123.146 38.5559 122.837 37.7881C122.529 37.0204 122.379 36.1978 122.398 35.3705ZM133.586 35.3705C133.556 34.4027 133.242 33.4653 132.684 32.6751C132.125 31.8849 131.346 31.277 130.444 30.9272C129.542 30.5775 128.557 30.5014 127.613 30.7084C126.668 30.9155 125.805 31.3965 125.131 32.0915C124.458 32.7865 124.004 33.6646 123.826 34.6163C123.648 35.5679 123.754 36.551 124.131 37.4427C124.508 38.3345 125.138 39.0954 125.944 39.6305C126.75 40.1657 127.696 40.4513 128.663 40.4517C129.326 40.4629 129.984 40.3379 130.596 40.0845C131.209 39.8312 131.763 39.4547 132.224 38.9785C132.685 38.5023 133.044 37.9364 133.279 37.3158C133.513 36.6953 133.618 36.0332 133.586 35.3705Z" fill="#F2C43E"/>
<path d="M139.516 32.9901C139.18 32.5781 138.677 31.8609 138.677 31.8609C138.677 31.8609 138.784 32.7154 138.784 33.2342V41.4741H137.565V29.1448H137.778L145.049 37.7661C145.384 38.1781 145.887 38.8953 145.887 38.8953C145.887 38.8953 145.796 38.0255 145.796 37.5067V29.2821H147V41.5962H146.786L139.516 32.9901Z" fill="#F2C43E"/>
<path d="M58.3793 47.9745H65.6958V49.1189H59.5987V54.8411H65.0861V56.0313H59.5987V60.1665H58.3184L58.3793 47.9745Z" fill="#5E61B5"/>
<path d="M67.5402 54.0629C67.5341 52.8212 67.8964 51.6057 68.5811 50.5703C69.2658 49.535 70.2421 48.7264 71.3863 48.2471C72.5305 47.7677 73.791 47.6391 75.0083 47.8777C76.2255 48.1162 77.3446 48.7111 78.2238 49.5869C79.103 50.4628 79.7027 51.5802 79.9469 52.7976C80.1911 54.0149 80.0689 55.2775 79.5956 56.4252C79.1223 57.573 78.3194 58.5542 77.2885 59.2447C76.2577 59.9352 75.0452 60.3038 73.8049 60.3038C72.9785 60.3268 72.1562 60.1813 71.3877 59.8762C70.6193 59.5711 69.9209 59.1127 69.3349 58.529C68.7489 57.9452 68.2877 57.2483 67.9791 56.4805C67.6706 55.7128 67.5213 54.8902 67.5402 54.0629ZM78.7283 54.0629C78.6983 53.0951 78.3843 52.1577 77.8254 51.3675C77.2666 50.5773 76.4876 49.9693 75.5858 49.6196C74.6839 49.2698 73.6991 49.1937 72.7543 49.4008C71.8096 49.6079 70.9466 50.0889 70.2732 50.7839C69.5999 51.4789 69.1459 52.357 68.9679 53.3087C68.79 54.2603 68.896 55.2434 69.2727 56.1351C69.6494 57.0269 70.2801 57.7878 71.0861 58.3229C71.8921 58.858 72.8377 59.1437 73.8049 59.1441C74.4675 59.1553 75.1254 59.0303 75.7379 58.7769C76.3504 58.5235 76.9044 58.1471 77.3658 57.6709C77.8273 57.1947 78.1862 56.6288 78.4206 56.0082C78.6549 55.3876 78.7596 54.7255 78.7283 54.0629Z" fill="#5E61B5"/>
<path d="M90.6021 60.1665H89.0779L86.7 56.8552C86.2778 56.9344 85.8492 56.9752 85.4196 56.9773H83.8954V60.197H82.615V47.9897H85.3587C88.6816 47.9897 90.404 49.8513 90.404 52.4912C90.4551 53.3334 90.2356 54.17 89.7775 54.8784C89.3195 55.5868 88.647 56.1298 87.8585 56.428L90.6021 60.1665ZM85.3739 55.8024C88.1328 55.8024 89.1541 54.3985 89.1541 52.4759C89.1541 50.5533 88.1176 49.1189 85.3739 49.1189H83.9868V55.8024H85.3739Z" fill="#5E61B5"/>
<path d="M93.1782 56.0008V47.9745H94.4738V55.9245C94.4738 56.7338 94.795 57.5101 95.3667 58.0824C95.9384 58.6547 96.7139 58.9763 97.5224 58.9763C98.3309 58.9763 99.1063 58.6547 99.678 58.0824C100.25 57.5101 100.571 56.7338 100.571 55.9245V47.9745H101.943V56.0008C101.943 57.1622 101.482 58.2761 100.661 59.0974C99.841 59.9187 98.7283 60.3801 97.5681 60.3801C96.4079 60.3801 95.2952 59.9187 94.4748 59.0974C93.6544 58.2761 93.1935 57.1622 93.1935 56.0008H93.1782Z" fill="#5E61B5"/>
<path d="M105.144 47.8219H105.327L110.997 54.9174L116.622 47.8219H116.82V60.1665H115.57V52.1097C115.57 51.5604 115.57 50.7211 115.57 50.7211C115.57 50.7211 115.097 51.4993 114.716 51.9876L111.088 56.6569H110.875L107.247 51.9876C106.851 51.4993 106.363 50.7211 106.363 50.7211C106.363 50.7211 106.439 51.5604 106.439 52.1097V60.1665H105.174L105.144 47.8219Z" fill="#5E61B5"/>
<path d="M57.739 85.2523L65.3603 78.3399C67.8601 76.0511 69.3234 74.4183 69.3234 72.2363C69.3536 71.7563 69.278 71.2755 69.1019 70.828C68.9259 70.3805 68.6537 69.9772 68.3046 69.6467C67.9556 69.3162 67.5382 69.0666 67.0821 68.9155C66.626 68.7644 66.1423 68.7156 65.6652 68.7725C64.571 68.7767 63.5113 69.156 62.6626 69.8474C61.8139 70.5388 61.2274 71.5004 61.0009 72.572L58.6078 71.9006C58.9569 70.3096 59.8468 68.8891 61.1255 67.8817C62.4043 66.8743 63.9926 66.3424 65.6195 66.3768C69.5825 66.3768 72.0061 68.6962 72.0061 72.1295C72.0061 74.7083 70.1465 76.9819 67.4333 79.4538L64.5982 82.0326C64.0021 82.5386 63.353 82.9786 62.6624 83.3449C62.6624 83.3449 64.0495 83.2228 64.7506 83.2228H72.4786V85.5117H57.739V85.2523Z" fill="#B51A65"/>
<path d="M74.8566 76.1732C74.8141 74.2078 75.3579 72.2742 76.4185 70.6197C77.4791 68.9651 79.0083 67.6645 80.8107 66.8841C82.6132 66.1038 84.6072 65.879 86.5379 66.2385C88.4685 66.5981 90.2484 67.5256 91.6499 68.9026C93.0515 70.2797 94.0113 72.0437 94.4065 73.9694C94.8018 75.8951 94.6147 77.895 93.8691 79.7138C93.1235 81.5325 91.8533 83.0874 90.2206 84.18C88.588 85.2725 86.6671 85.8531 84.7033 85.8475C83.4195 85.8697 82.144 85.6361 80.9513 85.16C79.7586 84.684 78.6724 83.9752 77.7559 83.0749C76.8395 82.1745 76.1112 81.1006 75.6134 79.9157C75.1157 78.7308 74.8584 77.4586 74.8566 76.1732ZM91.8673 76.1732C91.8254 74.772 91.3725 73.4141 90.5649 72.2688C89.7574 71.1235 88.631 70.2415 87.3261 69.7327C86.0212 69.2239 84.5956 69.1108 83.227 69.4075C81.8584 69.7043 80.6073 70.3977 79.6296 71.4014C78.652 72.4051 77.991 73.6746 77.7292 75.0517C77.4674 76.4289 77.6162 77.8527 78.1572 79.1458C78.6982 80.4388 79.6074 81.5438 80.7715 82.3231C81.9355 83.1024 83.303 83.5215 84.7033 83.5281C85.6639 83.5434 86.6175 83.3623 87.5057 82.9957C88.394 82.6292 89.1981 82.085 89.8688 81.3964C90.5395 80.7078 91.0627 79.8893 91.4064 78.9912C91.75 78.0931 91.9069 77.1342 91.8673 76.1732Z" fill="#B51A65"/>
<path d="M96.0745 85.2523L103.696 78.3399C106.196 76.0511 107.659 74.4183 107.659 72.2363C107.689 71.7563 107.613 71.2755 107.437 70.828C107.261 70.3805 106.989 69.9772 106.64 69.6467C106.291 69.3162 105.874 69.0666 105.418 68.9155C104.961 68.7644 104.478 68.7156 104.001 68.7725C102.906 68.7767 101.847 69.156 100.998 69.8474C100.149 70.5388 99.5629 71.5004 99.3364 72.572L96.9433 71.9006C97.2924 70.3096 98.1822 68.8891 99.461 67.8817C100.74 66.8743 102.328 66.3424 103.955 66.3768C107.918 66.3768 110.342 68.6962 110.342 72.1295C110.342 74.7083 108.482 76.9819 105.769 79.4538L102.934 82.0326C102.338 82.5386 101.688 82.9786 100.998 83.3449C100.998 83.3449 102.385 83.2228 103.086 83.2228H110.814V85.5117H96.0745V85.2523Z" fill="#B51A65"/>
<path d="M0.198144 55.8023C-0.503017 57.6792 0.655425 59.5408 3.33813 60.5021C3.64725 60.6048 3.96299 60.6864 4.28317 60.7462C3.67347 58.1522 3.03327 55.4208 2.56075 52.8573C1.5773 53.6639 0.77264 54.6669 0.198144 55.8023Z" fill="#E55A5A"/>
<path d="M48.1819 19.1806C53.715 17.0596 60.9552 18.2193 65.8481 17.6547C69.9484 17.1512 71.3354 15.0912 71.747 12.9244C66.4426 14.4503 57.7847 13.0923 52.7852 14.8776C50.8284 15.779 49.2141 17.288 48.1819 19.1806Z" fill="#F2C43E"/>
<path d="M71.8842 10.9866C71.8842 8.2857 67.0828 8.02629 58.7603 10.8034C51.6115 13.1686 45.0419 17.3801 38.5181 16.5103C40.1039 19.0242 41.2196 21.806 41.8105 24.7197C42.8886 22.6179 44.6005 20.9095 46.7034 19.8368C47.1922 19.5758 47.7021 19.3563 48.2276 19.1807C49.2468 17.2815 50.8504 15.7618 52.8004 14.8471C57.8 13.0618 66.5188 14.4656 71.7623 12.8939C71.8704 12.2643 71.9113 11.6249 71.8842 10.9866Z" fill="#E55A5A"/>
<path d="M7.13358 48.8594C5.70077 50.1412 3.94787 51.545 2.56079 52.8573C3.03331 55.4208 3.67351 58.1522 4.28321 60.7462C5.61572 60.9861 6.9894 60.8241 8.22972 60.2807C9.47003 59.7373 10.521 58.8371 11.2491 57.6944C12.0112 56.6415 13.7946 54.0628 15.8219 51.1178C13.702 49.7124 11.6661 48.1839 9.72483 46.54C8.56639 47.5624 7.65183 48.4016 7.13358 48.8594Z" fill="#5E61B5"/>
<path d="M38.0456 50.5227C37.3597 53.7882 36.1556 60.1817 35.2715 65.0188C36.1849 65.5117 37.2062 65.7696 38.2438 65.7696C39.2814 65.7696 40.3027 65.5117 41.2161 65.0188C43.6854 63.4929 42.9233 58.0302 42.5117 55.9855C42.2069 54.5511 40.7741 44.3733 40.1491 37.4457C39.387 36.2403 38.6249 35.0653 37.9237 33.9667C38.6706 39.9177 38.8078 46.9216 38.0456 50.5227Z" fill="#B51A65"/>
<path d="M37.9237 33.9667C36.506 31.5765 34.8896 29.3101 33.0918 27.1917C31.0645 25.5742 27.5739 30.2435 26.324 33.5852C25.0741 36.9269 19.2667 39.3684 17.2851 42.7406C16.6907 43.7172 17.5747 45.1973 18.8094 46.769C21.5378 42.8627 24.0833 39.231 24.9065 38.3613C26.5984 36.4844 29.8603 32.5628 32.4211 33.3563C34.9818 34.1498 36.7043 36.0877 35.3477 46.5249C33.9911 56.9621 33.7319 62.73 34.3569 64.2406C34.5467 64.6284 34.8569 64.9443 35.241 65.1409C36.125 60.3038 37.3292 53.9103 38.0151 50.6448C38.8077 46.9216 38.6706 39.9177 37.9237 33.9667Z" fill="#905DBB"/>
<path d="M35.2713 15.6557C27.65 12.4361 23.4888 10.9865 17.9557 7.06488C15.7608 5.53898 14.0688 3.87573 12.5903 2.62449C10.9505 2.56657 9.33102 3.00244 7.9413 3.87573C6.24453 5.18828 4.73655 6.72868 3.45996 8.45345C3.57704 8.69823 3.74306 8.91635 3.94772 9.09433C4.68061 9.72815 5.48353 10.276 6.34082 10.727C8.85585 8.133 10.9136 6.71392 12.3464 7.41583C14.4651 8.48397 18.7331 12.8786 22.1474 14.1298C25.5618 15.3811 33.7623 19.9588 36.003 25.3757C36.9834 28.1524 37.6281 31.0365 37.9236 33.9666C38.64 35.0652 39.4478 36.2402 40.149 37.4456C39.8875 35.4222 39.8211 33.3782 39.9508 31.342C40.2296 29.0574 40.8568 26.8291 41.8104 24.7348C41.2195 21.8211 40.1039 19.0393 38.518 16.5255C37.4009 16.387 36.3083 16.0943 35.2713 15.6557Z" fill="#5E61B5"/>
<path d="M12.5904 2.60926C10.365 0.717133 8.6578 -0.274698 6.49335 1.28173C4.3289 2.83815 2.48454 6.43928 3.44482 8.36192C4.72142 6.63715 6.22938 5.09676 7.92616 3.78421C9.32865 2.93468 10.9533 2.52542 12.5904 2.60926Z" fill="#905DBB"/>
<path d="M17.285 42.6186C19.2666 39.3074 25.0893 36.9422 26.3239 33.4631C27.5586 29.9841 31.0644 25.4521 33.0917 27.0696C34.8952 29.227 36.5117 31.5343 37.9236 33.9667C37.6306 31.0263 36.9857 28.1317 36.003 25.3453C33.7623 19.9284 25.5465 15.3354 22.1474 14.0994C18.7483 12.8634 14.5261 8.45356 12.3464 7.38542C10.9289 6.68351 8.85586 8.1026 6.34082 10.6966C9.06112 12.1469 11.9854 13.1759 15.0139 13.7484C20.1049 14.7555 26.1105 17.3191 27.9854 20.0047C29.8602 22.6902 31.0339 24.9638 26.8879 29.6179C23.626 33.3716 14.5109 42.054 9.72469 46.5096C11.666 48.1534 13.7018 49.682 15.8217 51.0873L18.8703 46.6469C17.5746 45.0753 16.6906 43.5951 17.285 42.6186Z" fill="#F2C43E"/>
<path d="M37.0091 11.3528C39.2193 11.8105 41.5819 9.59797 42.466 4.91344C42.6326 4.34613 42.6625 3.74732 42.5531 3.16621C42.4437 2.58509 42.1981 2.03824 41.8366 1.57058C41.4751 1.10292 41.0079 0.727788 40.4734 0.475988C39.9389 0.224189 39.3524 0.102902 38.762 0.122103C35.3019 -0.366187 34.1892 0.595139 34.1892 4.28783C34.1892 7.98052 34.8751 10.895 37.0091 11.3528Z" fill="#E55A5A"/>
<path d="M122.139 73.5028C122.383 73.3008 122.612 73.0815 122.825 72.8467L127.246 67.5365V67.1245H115.844V69.215H122.17C122.566 69.215 122.993 69.215 123.298 69.215C123.046 69.452 122.811 69.707 122.597 69.9779L118.024 75.578L118.344 76.0511H118.451C119.203 75.6798 120.035 75.4965 120.874 75.517C123.679 75.517 125.294 77.0429 125.294 79.6674C125.329 80.2364 125.244 80.8063 125.044 81.3401C124.845 81.8739 124.535 82.3596 124.135 82.7656C123.735 83.1715 123.254 83.4886 122.724 83.6962C122.194 83.9038 121.626 83.9973 121.057 83.9705C120.094 84.0048 119.142 83.7481 118.327 83.2338C117.511 82.7194 116.869 81.9712 116.484 81.0865V80.9797L114.365 81.9716V82.0784C114.956 83.3502 115.913 84.4163 117.114 85.1395C118.314 85.8628 119.703 86.2103 121.103 86.1373C121.978 86.199 122.857 86.0773 123.683 85.7798C124.509 85.4824 125.263 85.0157 125.899 84.4097C126.534 83.8037 127.036 83.0717 127.373 82.2604C127.71 81.4491 127.874 80.5764 127.855 79.698C127.898 78.9126 127.783 78.1266 127.517 77.3866C127.251 76.6465 126.84 75.9675 126.307 75.3897C125.773 74.812 125.13 74.3472 124.414 74.0231C123.698 73.699 122.925 73.522 122.139 73.5028Z" fill="#B51A65"/>
</g>
<defs>
<clipPath id="clip0_12_2544">
<rect width="147" height="86" fill="white"/>
</clipPath>
</defs>
</svg>
