<svg width="71" height="27" viewBox="0 0 71 27" fill="none" xmlns="http://www.w3.org/2000/svg">
<g clip-path="url(#clip0_12_2626)">
<path d="M57.628 0H13.372C5.98686 0 0 6.04416 0 13.5C0 20.9558 5.98686 27 13.372 27H57.628C65.0131 27 71 20.9558 71 13.5C71 6.04416 65.0131 0 57.628 0Z" fill="#C60B1E"/>
<path d="M19.5676 20.3679H11.665V6.47034H13.8152V18.4015H19.5676V20.3679Z" fill="white"/>
<path d="M21.1426 20.3679V6.47034H23.2926V20.3679H21.1426Z" fill="white"/>
<path d="M31.4167 15.6068L35.0332 6.44653H37.3908L31.4922 20.963L25.1833 6.44653H27.5409L31.4167 15.6068Z" fill="white"/>
<path d="M41.4316 12.117H46.4579V14.0833H41.4316V18.3682H47.533V20.3679H39.2769V6.47034H47.533V8.4176H41.4316V12.117Z" fill="white"/>
<path d="M58.1325 17.6826C60.4189 17.6826 62.2724 15.811 62.2724 13.5024C62.2724 11.1937 60.4189 9.32214 58.1325 9.32214C55.8462 9.32214 53.9927 11.1937 53.9927 13.5024C53.9927 15.811 55.8462 17.6826 58.1325 17.6826Z" fill="white"/>
</g>
<defs>
<clipPath id="clip0_12_2626">
<rect width="71" height="27" fill="white"/>
</clipPath>
</defs>
</svg>
