<svg width="27" height="26" viewBox="0 0 27 26" fill="none" xmlns="http://www.w3.org/2000/svg">
<g clip-path="url(#clip0_12_2618)">
<path d="M25.1755 25.9987H1.85277C1.8404 25.7357 1.81817 25.4978 1.81817 25.2474C1.81817 21.283 1.81196 17.3174 1.82556 13.3518C1.82556 12.9536 1.72414 12.7257 1.36421 12.5154C0.476124 11.9995 0.0283708 11.1793 0.00363307 10.1362C-0.0087358 9.38494 -0.0124465 8.63364 0.00363307 7.88234C0.0105725 7.63458 0.0634402 7.39034 0.159482 7.16234C1.12549 4.92848 2.11377 2.70588 3.06864 0.468254C3.22696 0.0926035 3.4261 -0.00756836 3.81077 -0.00756836C10.2624 0.00411853 16.714 0.00411853 23.1656 -0.00756836C23.5972 -0.00756836 23.7716 0.153961 23.93 0.524603C24.8292 2.62699 25.7705 4.7131 26.6511 6.823C26.8441 7.2838 26.9133 7.81347 26.9641 8.3256C27.0148 8.83774 26.9641 9.36866 26.9777 9.88956C27.0074 11.1054 26.5138 12.0057 25.4798 12.6443C25.2992 12.7558 25.178 13.1101 25.1768 13.3531C25.1594 17.2974 25.1644 21.2417 25.1644 25.1848L25.1755 25.9987ZM23.8817 24.7165V13.0713L21.9967 12.022C21.727 12.3096 21.4019 12.5381 21.0415 12.6936C20.6812 12.8491 20.2932 12.9282 19.9014 12.9261C19.0455 12.9261 18.3776 12.5166 17.7851 11.9619C16.3009 13.2479 15.2137 13.2529 13.4758 11.9894C12.8796 12.5504 12.1994 12.9311 11.341 12.9273C10.4826 12.9236 9.81464 12.5304 9.20733 11.9494C8.58888 12.5755 7.89746 12.9261 7.03906 12.9223C6.18066 12.9186 5.51522 12.5166 5.00067 12.0333L3.14534 13.0475V24.6927H9.32111V16.7164H17.7319V24.7165H23.8817ZM25.293 6.97452C25.2854 6.88539 25.2689 6.79727 25.2436 6.71156C24.5014 5.01362 23.7766 3.31318 23.0072 1.63152C22.9281 1.45872 22.6028 1.3047 22.3888 1.3047C16.4517 1.28717 10.5147 1.29468 4.5863 1.28091C4.21524 1.28091 4.04331 1.41364 3.90354 1.74547C3.38034 2.99763 2.82621 4.22476 2.28816 5.46315C2.07541 5.95275 1.87134 6.44485 1.64746 6.97452H25.293ZM10.5889 17.9936V24.6852H12.8438V17.9936H10.5889ZM16.4097 24.6889V17.9923H14.1672V24.6889H16.4097ZM4.26842 8.32185H1.26649C1.26649 8.99802 1.23929 9.62159 1.27392 10.2414C1.31968 11.0704 1.91339 11.6188 2.72478 11.6351C3.53618 11.6514 4.1868 11.148 4.2573 10.3366C4.30925 9.68045 4.26842 9.0168 4.26842 8.32185ZM9.874 8.29806C9.86039 8.50592 9.83565 8.68873 9.83812 8.87155C9.82608 9.39005 9.84262 9.90884 9.88762 10.4255C9.97791 11.1505 10.5605 11.615 11.3051 11.6363C12.0682 11.6576 12.7374 11.1968 12.819 10.4605C12.897 9.75182 12.8351 9.02682 12.8351 8.29806H9.874ZM14.1301 8.29806C14.1301 8.99301 14.1017 9.61659 14.1301 10.2364C14.1759 11.0603 14.7684 11.6138 15.5798 11.6363C16.3912 11.6589 17.043 11.158 17.1123 10.3428C17.1704 9.66918 17.1246 8.98675 17.1246 8.29806H14.1301ZM25.7272 8.31809H22.698C22.698 8.6111 22.698 8.85778 22.698 9.10445C22.698 9.49889 22.682 9.89708 22.7228 10.2878C22.8094 11.138 23.434 11.6651 24.2751 11.6363C25.0827 11.6063 25.6752 11.0541 25.7198 10.2302C25.7544 9.61033 25.7272 8.988 25.7272 8.31809ZM5.5721 8.29555C5.5721 9.00929 5.54613 9.65541 5.57829 10.299C5.61416 11.0378 6.14972 11.5512 6.89556 11.6313C7.64141 11.7115 8.41322 11.2757 8.50352 10.5758C8.59628 9.82445 8.52456 9.06063 8.52456 8.29681L5.5721 8.29555ZM21.4191 8.31058H18.437C18.437 9.01555 18.4048 9.68796 18.4456 10.3428C18.4926 11.1129 19.1234 11.6351 19.9299 11.6363C20.7363 11.6376 21.3659 11.1167 21.4142 10.3479C21.4513 9.68546 21.4191 9.0193 21.4191 8.31058Z" fill="white"/>
</g>
<defs>
<clipPath id="clip0_12_2618">
<rect width="27" height="26" fill="white"/>
</clipPath>
</defs>
</svg>
