<svg width="32" height="32" viewBox="0 0 32 32" fill="none" xmlns="http://www.w3.org/2000/svg">
<g clip-path="url(#clip0_12_2621)">
<path d="M16.0539 1.60772e-05C19.2203 0.0102301 22.3124 0.959541 24.939 2.72778C27.5655 4.49603 29.6083 7.0037 30.8089 9.9334C32.0094 12.8631 32.3137 16.0831 31.6833 19.1858C31.0528 22.2885 29.5159 25.1344 27.2671 27.3633C25.0183 29.5922 22.1588 31.1039 19.0504 31.707C15.942 32.3101 12.7245 31.9775 9.80527 30.7513C6.886 29.5251 4.39619 27.4605 2.65097 24.8187C0.905754 22.177 -0.0164149 19.0768 0.00122498 15.9108C0.0209025 11.6727 1.72297 7.61583 4.73322 4.63221C7.74346 1.64858 11.8155 -0.0175916 16.0539 1.60772e-05ZM2.49146 16.023C2.49628 18.695 3.29367 21.3056 4.78269 23.5243C6.27171 25.7431 8.38544 27.4703 10.8565 28.4875C13.3275 29.5048 16.0448 29.7662 18.6645 29.2388C21.2841 28.7114 23.6885 27.4189 25.5733 25.5248C27.4581 23.6306 28.7387 21.22 29.253 18.598C29.7674 15.9759 29.4923 13.2602 28.4626 10.7945C27.4329 8.32884 25.695 6.22394 23.4686 4.74618C21.2422 3.26841 18.6275 2.4842 15.9553 2.49275C12.378 2.50991 8.9532 3.94307 6.43002 6.4787C3.90684 9.01434 2.4907 12.446 2.49146 16.023Z" fill="white"/>
<path d="M17.256 18.467C17.2452 18.686 17.2452 18.8888 17.2222 19.0888C17.1947 19.3946 17.0535 19.6788 16.8264 19.8854C16.5993 20.0919 16.303 20.2057 15.996 20.2041C15.688 20.2179 15.3869 20.1106 15.1569 19.9052C14.927 19.6998 14.7866 19.4126 14.7657 19.1051C14.7244 18.4749 14.7244 17.8427 14.7657 17.2125C14.8103 16.4839 15.2362 16.1554 16.1636 16.0486C17.5331 15.8891 18.5024 15.1159 18.8337 13.9182C19.2947 12.2555 18.255 10.5387 16.5922 10.2075C16.1877 10.1258 15.7707 10.1291 15.3677 10.2173C14.9646 10.3055 14.5842 10.4765 14.2508 10.7196C13.9174 10.9627 13.6383 11.2725 13.4311 11.6293C13.224 11.9861 13.0933 12.3821 13.0474 12.7921C13.0353 12.9043 13.0393 13.0179 13.0285 13.1301C12.9542 13.8695 12.4323 14.3764 11.7604 14.3629C11.0628 14.3494 10.5518 13.7857 10.5437 13.0111C10.5004 10.5346 12.4539 8.19869 14.9442 7.73907C17.7994 7.21998 20.5276 8.90433 21.2671 11.6444C22.0283 14.4697 20.51 17.3018 17.7075 18.2832C17.552 18.3454 17.4088 18.4062 17.256 18.467Z" fill="white"/>
<path d="M16.0257 24.3541C15.2145 24.3636 14.6467 23.8621 14.6291 23.1375C14.6102 22.371 15.1875 21.833 16.0189 21.8384C16.8206 21.8452 17.3803 22.3616 17.383 23.097C17.3857 23.8323 16.8233 24.3541 16.0257 24.3541Z" fill="white"/>
</g>
<defs>
<clipPath id="clip0_12_2621">
<rect width="32" height="32" fill="white"/>
</clipPath>
</defs>
</svg>
