<svg width="29" height="28" viewBox="0 0 29 28" fill="none" xmlns="http://www.w3.org/2000/svg">
<g clip-path="url(#clip0_12_2613)">
<path d="M3.93227 14.6751C3.09415 14.6751 2.33742 14.668 1.58212 14.6751C0.893919 14.6822 0.362786 14.4209 0.108638 13.7736C-0.14551 13.1262 0.0643656 12.5796 0.579801 12.1211C4.9936 8.19241 9.4036 4.26042 13.8098 0.325116C14.3295 -0.141953 14.7293 -0.0922644 15.2233 0.35209C18.6871 3.45642 22.1581 6.55223 25.6362 9.63952C26.5572 10.4601 27.4738 11.2863 28.4019 12.0998C28.9416 12.574 29.1586 13.1461 28.8759 13.8147C28.6061 14.4522 28.0592 14.6907 27.3753 14.6765C26.64 14.6609 25.9047 14.6765 25.068 14.6765V15.4672C25.068 18.828 25.068 22.1879 25.068 25.5468C25.068 27.1766 24.2527 27.9872 22.615 27.9986C21.8297 27.9986 21.0444 28.0156 20.2591 27.9986C18.8827 27.9617 18.0489 27.1283 18.0346 25.7612C18.0189 24.1754 18.0589 22.5897 18.0189 21.0068C17.9761 19.2861 16.9138 17.9744 15.3304 17.5854C13.8126 17.212 12.1521 17.8892 11.4553 19.289C11.1704 19.9084 11.0135 20.5785 10.9942 21.2595C10.9271 22.7231 10.9813 24.1911 10.9699 25.6604C10.9599 27.161 10.1375 27.9801 8.62973 28C7.84444 28.0114 7.05915 28.0128 6.27386 28C4.77467 27.9773 3.93798 27.1397 3.93655 25.6476C3.93084 22.2887 3.93084 18.9288 3.93655 15.568L3.93227 14.6751ZM1.4222 13.2639H4.09933C5.19445 13.2639 5.34865 13.4059 5.34865 14.4777C5.34865 18.1206 5.34865 21.7644 5.34865 25.4091C5.34865 26.4284 5.50999 26.5832 6.55942 26.5846C7.17718 26.5846 7.79589 26.5846 8.41556 26.5846C9.37932 26.5846 9.54923 26.4199 9.55779 25.4801C9.55779 24.0136 9.55779 22.5471 9.55779 21.0792C9.56922 19.4139 10.2017 18.0283 11.5653 17.0431C13.1359 15.9073 14.8721 15.7285 16.6211 16.5646C18.4573 17.442 19.3782 18.9781 19.4268 20.9968C19.4624 22.5329 19.4267 24.0718 19.4396 25.6093C19.4396 26.3731 19.6509 26.5704 20.4205 26.5818C21.1101 26.5917 21.7997 26.5818 22.4894 26.5818C23.4731 26.5818 23.6416 26.41 23.6416 25.4191C23.6416 21.7516 23.6416 18.0851 23.6416 14.4195C23.6416 13.4456 23.8244 13.2668 24.8053 13.2639H27.5737L14.4937 1.60849L1.4222 13.2639Z" fill="white"/>
</g>
<defs>
<clipPath id="clip0_12_2613">
<rect width="29" height="28" fill="white"/>
</clipPath>
</defs>
</svg>
