<svg width="26" height="26" viewBox="0 0 26 26" fill="none" xmlns="http://www.w3.org/2000/svg">
<g clip-path="url(#clip0_12_2615)">
<path d="M13.0282 25.9922C10.4575 25.9922 7.88683 26.0141 5.31614 25.9922C4.00824 25.9787 2.75005 25.4892 1.7769 24.6155C0.803749 23.7417 0.182272 22.5434 0.0286889 21.2448C-0.124895 19.9461 0.199931 18.636 0.942428 17.5594C1.68492 16.4828 2.79425 15.7135 4.06292 15.3954C4.51866 15.2785 4.98704 15.2181 5.45752 15.2154C10.4884 15.2026 15.5188 15.2026 20.5488 15.2154C23.3933 15.2257 25.7172 17.3243 25.9691 20.0435C26.2339 22.9003 24.383 25.3741 21.5552 25.9177C21.1541 25.9825 20.748 26.01 20.3418 25.9999C17.8997 25.9999 15.4575 25.9999 13.0154 25.9999L13.0282 25.9922ZM13.0051 24.0749C15.5758 24.0749 18.1465 24.107 20.7095 24.0646C22.6529 24.0312 24.0873 22.5019 24.0809 20.5833C24.0745 18.6646 22.6015 17.1354 20.6735 17.1238C15.5578 17.0968 10.4434 17.1058 5.3277 17.1238C4.82116 17.1179 4.32023 17.2303 3.86479 17.4521C3.40935 17.6738 3.01198 17.9988 2.7043 18.4012C1.83027 19.5025 1.65675 20.7426 2.22487 22.0187C2.793 23.2948 3.82255 24.0402 5.23643 24.062C7.82641 24.1044 10.4164 24.0749 13.0051 24.0749Z" fill="white"/>
<path d="M13.0206 13.9355C11.6434 13.9388 10.2961 13.5339 9.14897 12.772C8.00183 12.0101 7.1063 10.9253 6.57553 9.65474C6.04475 8.38418 5.90255 6.98484 6.16687 5.63351C6.4312 4.28219 7.09019 3.0395 8.0606 2.06246C9.03101 1.08543 10.2693 0.417879 11.619 0.144151C12.9687 -0.129577 14.3693 0.00279704 15.6438 0.524557C16.9183 1.04632 18.0095 1.93405 18.7796 3.0756C19.5497 4.21714 19.9641 5.56127 19.9705 6.93818C19.9781 7.8551 19.8039 8.76445 19.4579 9.61366C19.112 10.4629 18.6011 11.2351 17.9549 11.8858C17.3087 12.5364 16.5399 13.0526 15.6929 13.4044C14.846 13.7562 13.9377 13.9367 13.0206 13.9355ZM18.0643 6.97546C18.0638 5.97538 17.7667 4.9979 17.2108 4.16654C16.6548 3.33519 15.8648 2.68728 14.9406 2.30468C14.0164 1.92209 12.9995 1.82198 12.0185 2.01703C11.0374 2.21207 10.1362 2.69351 9.42873 3.40049C8.72125 4.10747 8.23925 5.00826 8.04367 5.98903C7.84809 6.9698 7.9477 7.98653 8.3299 8.91072C8.7121 9.83491 9.35975 10.6251 10.191 11.1814C11.0222 11.7377 11.9997 12.0351 13 12.0361C13.6664 12.0406 14.327 11.9126 14.9435 11.6595C15.5599 11.4064 16.1199 11.0334 16.5909 10.562C17.0619 10.0906 17.4345 9.53037 17.687 8.91378C17.9394 8.29719 18.0668 7.63656 18.0617 6.97031L18.0643 6.97546Z" fill="white"/>
</g>
<defs>
<clipPath id="clip0_12_2615">
<rect width="26" height="26" fill="white"/>
</clipPath>
</defs>
</svg>
