<svg width="27" height="23" viewBox="0 0 27 23" fill="none" xmlns="http://www.w3.org/2000/svg">
<g clip-path="url(#clip0_12_2538)">
<path d="M13.5 22.9999C10.03 22.9999 6.55911 22.9999 3.08731 22.9999C1.05886 22.9999 0.0013523 21.9321 0 19.8732C0 14.2915 0 8.70976 0 3.12801C0 1.06917 1.0521 0.00268555 3.08731 0.00268555C10.0291 0.00268555 16.9709 0.00268555 23.9127 0.00268555C25.9412 0.00268555 26.9986 1.0678 26.9986 3.12801C26.9986 8.70976 26.9986 14.2915 26.9986 19.8732C26.9986 21.9321 25.9466 22.9986 23.9127 22.9999C20.4418 23.0036 16.9709 23.0036 13.5 22.9999ZM25.645 18.2262V6.57451H1.36719V18.2248L25.645 18.2262ZM1.3212 5.16489H25.6923C25.6923 4.44292 25.6923 3.76213 25.6923 3.08134C25.6923 1.76093 25.2596 1.32995 23.9425 1.32858H3.06837C2.88852 1.32858 2.70731 1.32858 2.52746 1.33819C1.87835 1.4027 1.36042 1.87212 1.33067 2.52271C1.2901 3.38468 1.3212 4.25076 1.3212 5.16489ZM1.37935 19.6207C1.16028 21.0495 1.64981 21.6713 2.98318 21.6713C10.0088 21.6713 17.0336 21.6713 24.0574 21.6713C25.3718 21.6713 25.9047 20.9562 25.5909 19.6207H1.37935Z" fill="white"/>
<path d="M13.5851 7.44343C16.4425 7.51892 18.6954 9.85365 18.5994 12.6386C18.5047 15.3837 16.1653 17.5908 13.4201 17.5263C10.6046 17.4604 8.3422 15.1449 8.40305 12.397C8.46661 9.61757 10.8169 7.36931 13.5851 7.44343ZM13.5607 16.2017C15.6608 16.1894 17.3174 14.5135 17.2944 12.4203C17.2741 10.3903 15.5716 8.7405 13.508 8.75011C11.3524 8.76109 9.68098 10.426 9.70397 12.5411C9.72695 14.6123 11.4146 16.2155 13.5607 16.2017Z" fill="white"/>
<path d="M6.94813 4.76832C6.31796 4.76832 5.68779 4.75871 5.05491 4.76832C4.58566 4.77792 4.33008 4.58028 4.32873 4.0889C4.32737 3.59753 4.32873 3.08419 4.32873 2.57909C4.32873 2.133 4.5451 1.90378 4.99271 1.90516C6.29633 1.90516 7.6004 1.90516 8.90492 1.90516C9.38363 1.90516 9.59593 2.13025 9.58917 2.61889C9.55401 5.0895 9.90697 4.73949 7.55126 4.76283C7.35248 4.76969 7.14962 4.76832 6.94813 4.76832ZM8.57089 2.97026H5.40381V3.7238H8.5763L8.57089 2.97026Z" fill="white"/>
</g>
<defs>
<clipPath id="clip0_12_2538">
<rect width="27" height="23" fill="white"/>
</clipPath>
</defs>
</svg>
