<svg width="27" height="26" viewBox="0 0 27 26" fill="none" xmlns="http://www.w3.org/2000/svg">
<g clip-path="url(#clip0_12_2609)">
<path d="M5.20736 3.2118C5.59087 0.827977 6.2992 -0.0430342 7.73305 0.00280854C9.16691 0.0486513 9.92964 1.00562 10.1071 3.13015H16.9372C16.8685 2.13736 16.9673 1.13742 17.8759 0.538594C18.326 0.235174 18.8496 0.0589799 19.3914 0.028594C20.8224 0.00710524 21.4777 0.908201 21.7725 3.19318C22.1031 3.19318 22.4508 3.19318 22.7986 3.19318C25.3343 3.21896 26.9814 4.82919 26.9885 7.34767C27.0038 12.1698 27.0038 16.9928 26.9885 21.8168C26.9799 24.2952 25.3314 25.9713 22.8744 25.9899C19.5116 26.0128 16.1487 25.9971 12.7873 25.9899C12.5984 25.9899 12.3437 26.0243 12.235 25.9212C12.0003 25.6977 11.7012 25.3983 11.6941 25.1232C11.6941 24.8969 12.026 24.5946 12.2808 24.447C12.484 24.331 12.7916 24.3869 13.0535 24.3869C16.2246 24.3869 19.3957 24.3869 22.5667 24.3869C24.5372 24.3869 25.3944 23.5273 25.3958 21.5475C25.3958 18.3729 25.3958 15.1978 25.3958 12.0222V11.1927H1.64132C1.62701 11.4134 1.60268 11.6411 1.60268 11.8689C1.60268 15.1639 1.60268 18.4588 1.60268 21.7538C1.60268 23.4413 2.51995 24.3625 4.20423 24.3883C4.80096 24.3969 5.39625 24.3883 5.99298 24.3969C6.48953 24.4055 6.85157 24.6447 6.86731 25.1504C6.88878 25.6962 6.52673 25.9871 6.00871 25.9871C5.10433 25.9871 4.18991 26.0214 3.2984 25.8982C1.48104 25.6475 0.0571987 24.1018 0.0414578 22.2666C-0.00242603 17.1599 -0.00242603 12.0504 0.0414578 6.93796C0.0586297 4.93234 1.67708 3.35649 3.69049 3.21323C4.17703 3.18315 4.67646 3.2118 5.20736 3.2118ZM1.62128 9.50085H25.3829C25.3829 8.59402 25.4216 7.73591 25.3715 6.88352C25.3157 5.9022 24.5029 4.92088 23.5413 4.86644C21.8856 4.77475 20.2213 4.84208 18.56 4.84208C18.5829 5.82913 18.8819 6.19445 19.8479 6.37065C20.383 6.46807 20.7065 6.74456 20.622 7.28321C20.5376 7.82186 20.1269 7.9995 19.6117 7.95939C19.0263 7.90609 18.4704 7.67751 18.0166 7.30341C17.5628 6.92932 17.232 6.42707 17.0674 5.86208C16.9716 5.52686 16.9243 5.17731 16.8685 4.85927H6.93456C6.93456 5.832 7.22076 6.19588 8.22246 6.37782C8.7276 6.47093 9.02239 6.7288 8.97946 7.23737C8.93224 7.79035 8.55015 7.99234 8.02068 7.97085C7.44413 7.93074 6.89261 7.71945 6.4366 7.36399C5.98059 7.00852 5.64079 6.52502 5.46063 5.97526C5.36109 5.6017 5.28228 5.22292 5.22453 4.84065C4.62638 4.84065 4.02679 4.77332 3.4501 4.85641C2.97606 4.94229 2.54269 5.17995 2.2152 5.53364C1.88771 5.88733 1.6838 6.33792 1.63416 6.81762C1.56833 7.69436 1.62128 8.57827 1.62128 9.50085ZM8.64889 3.14447C8.43424 2.60009 8.32693 2.12733 8.06648 1.76489C7.96918 1.63022 7.35098 1.64169 7.25797 1.77635C7.01899 2.15026 6.936 2.62444 6.76285 3.14447H8.64889ZM20.2399 3.14447C20.0697 2.62874 19.9867 2.15312 19.7477 1.77778C19.6618 1.64169 19.0322 1.63453 18.9406 1.76346C18.6787 2.1259 18.57 2.59865 18.3539 3.14447H20.2399Z" fill="white"/>
<path d="M13.427 22.7968C10.4238 22.7968 7.4187 22.7968 4.41171 22.7968C3.34562 22.7968 3.17676 22.622 3.17676 21.5389C3.17676 18.9861 3.17676 16.4327 3.17676 13.8789C3.17676 12.9664 3.41288 12.7242 4.30868 12.7242C10.4343 12.7242 16.5599 12.7242 22.6855 12.7242C23.5799 12.7242 23.8117 12.9664 23.8131 13.8832C23.8131 16.4619 23.8131 19.0405 23.8131 21.6192C23.8131 22.6005 23.62 22.7996 22.6469 22.8011C19.5741 22.802 16.5007 22.8006 13.427 22.7968ZM4.8224 14.3531V16.9203H7.8876V14.3531H4.8224ZM12.6528 14.3674H9.58189V16.9317H12.6499L12.6528 14.3674ZM17.4323 16.9461V14.3789H14.3557V16.9461H17.4323ZM22.1832 16.9461V14.3703H19.1066V16.9389L22.1832 16.9461ZM7.8876 21.1607V18.6179H4.80809V21.1607H7.8876ZM9.56615 18.6093V21.1464H12.6485V18.6093H9.56615ZM14.36 18.6093V21.1421H17.4266V18.6093H14.36ZM19.1166 18.6093V21.1507H22.1847V18.5964L19.1166 18.6093Z" fill="white"/>
<path d="M8.36852 25.0043C8.65472 24.8066 8.94093 24.4886 9.25002 24.4313C9.73799 24.351 10.0471 24.6963 10.0456 25.1977C10.0456 25.669 9.7208 26.0085 9.29007 25.9426C8.95808 25.8925 8.67046 25.553 8.36279 25.3409L8.36852 25.0043Z" fill="white"/>
</g>
<defs>
<clipPath id="clip0_12_2609">
<rect width="27" height="26" fill="white"/>
</clipPath>
</defs>
</svg>
