<svg width="385" height="228" viewBox="0 0 385 228" fill="none" xmlns="http://www.w3.org/2000/svg">
<g clip-path="url(#clip0_2_454)" filter="url(#filter0_d_2_454)">
<path d="M158.725 84.3932C157.826 83.3392 156.536 81.5046 156.536 81.5046C156.704 82.6691 156.808 83.8419 156.849 85.0177V106.097H153.721V74.5564H154.268L172.915 96.6111C173.775 97.665 175.065 99.4996 175.065 99.4996C175.065 99.4996 174.831 97.2747 174.831 95.9475V74.9077H177.919V106.409H177.372L158.725 84.3932Z" fill="#F2C43E"/>
<path d="M186.206 95.44V74.9077H189.49V95.2058C189.49 97.3022 190.324 99.3128 191.808 100.795C193.293 102.278 195.306 103.11 197.406 103.11C199.505 103.11 201.519 102.278 203.003 100.795C204.488 99.3128 205.322 97.3022 205.322 95.2058V74.9077H208.606V95.44C208.437 98.2919 207.183 100.972 205.101 102.931C203.02 104.891 200.267 105.982 197.406 105.982C194.545 105.982 191.792 104.891 189.71 102.931C187.628 100.972 186.375 98.2919 186.206 95.44Z" fill="#F2C43E"/>
<path d="M223.734 77.8354H214.118V74.9077H236.634V77.8354H227.057V106.097H223.734V77.8354Z" fill="#F2C43E"/>
<path d="M262.708 106.097H258.799L252.779 97.5479C251.682 97.7373 250.57 97.8287 249.456 97.8212H245.899V106.097H242.576V74.8687H249.613C258.174 74.8687 262.591 79.631 262.591 86.384C262.71 88.5364 262.142 90.671 260.969 92.4807C259.796 94.2903 258.078 95.6818 256.063 96.4549L262.708 106.097ZM249.261 94.9326C256.336 94.9326 258.956 91.3023 258.956 86.423C258.956 81.5437 256.297 77.8354 249.261 77.8354H245.899V94.9326H249.261Z" fill="#F2C43E"/>
<path d="M269.94 74.9077H273.263V106.136H269.901L269.94 74.9077Z" fill="#F2C43E"/>
<path d="M288.9 77.8354H279.323V74.9077H301.84V77.8354H292.223V106.097H288.9V77.8354Z" fill="#F2C43E"/>
<path d="M307.664 74.9077H311.026V106.136H307.664V74.9077Z" fill="#F2C43E"/>
<path d="M317.906 90.4826C317.89 87.3062 318.82 84.1968 320.576 81.5482C322.332 78.8997 324.835 76.8312 327.77 75.605C330.704 74.3787 333.937 74.0498 337.059 74.66C340.181 75.2702 343.051 76.792 345.306 79.0325C347.56 81.2731 349.098 84.1316 349.725 87.2458C350.351 90.36 350.037 93.5898 348.824 96.5259C347.61 99.4619 345.551 101.972 342.907 103.739C340.263 105.505 337.154 106.448 333.973 106.448C331.853 106.507 329.744 106.134 327.773 105.354C325.803 104.573 324.012 103.401 322.509 101.908C321.006 100.414 319.823 98.6313 319.032 96.6673C318.24 94.7032 317.857 92.599 317.906 90.4826ZM346.599 90.4826C346.522 88.007 345.717 85.6088 344.284 83.5874C342.851 81.5659 340.853 80.0108 338.54 79.1161C336.227 78.2214 333.701 78.0267 331.278 78.5564C328.855 79.0861 326.642 80.3167 324.915 82.0945C323.188 83.8723 322.024 86.1187 321.568 88.5532C321.111 90.9877 321.383 93.5025 322.349 95.7837C323.315 98.0649 324.933 100.011 327 101.38C329.067 102.749 331.492 103.48 333.973 103.481C335.672 103.51 337.359 103.19 338.93 102.542C340.501 101.894 341.922 100.931 343.105 99.7124C344.288 98.4942 345.209 97.0466 345.81 95.4591C346.411 93.8715 346.68 92.1778 346.599 90.4826Z" fill="#F2C43E"/>
<path d="M361.806 84.3932C360.946 83.3392 359.656 81.5046 359.656 81.5046C359.656 81.5046 359.93 83.6905 359.93 85.0177V106.097H356.802V74.5564H357.35L375.996 96.6111C376.856 97.665 378.146 99.4996 378.146 99.4996C378.146 99.4996 377.912 97.2747 377.912 95.9475V74.9077H381V106.409H380.453L361.806 84.3932Z" fill="#F2C43E"/>
<path d="M153.721 122.725H172.485V125.653H156.848V140.291H170.921V143.336H156.848V153.914H153.564L153.721 122.725Z" fill="#5E61B5"/>
<path d="M177.215 138.3C177.2 135.124 178.129 132.014 179.885 129.366C181.641 126.717 184.144 124.649 187.079 123.423C190.013 122.196 193.246 121.867 196.368 122.478C199.49 123.088 202.36 124.61 204.615 126.85C206.869 129.091 208.407 131.949 209.034 135.063C209.66 138.178 209.346 141.407 208.133 144.343C206.919 147.28 204.86 149.79 202.216 151.556C199.572 153.322 196.463 154.265 193.282 154.265C191.162 154.324 189.053 153.952 187.083 153.171C185.112 152.391 183.321 151.218 181.818 149.725C180.315 148.232 179.132 146.449 178.341 144.485C177.55 142.521 177.167 140.417 177.215 138.3ZM205.908 138.3C205.832 135.825 205.026 133.426 203.593 131.405C202.16 129.384 200.162 127.828 197.849 126.934C195.536 126.039 193.01 125.844 190.587 126.374C188.164 126.904 185.951 128.134 184.224 129.912C182.497 131.69 181.333 133.936 180.877 136.371C180.42 138.805 180.692 141.32 181.658 143.601C182.624 145.883 184.242 147.829 186.309 149.198C188.376 150.567 190.801 151.298 193.282 151.299C194.981 151.327 196.668 151.008 198.239 150.359C199.81 149.711 201.231 148.748 202.414 147.53C203.598 146.312 204.518 144.864 205.119 143.277C205.72 141.689 205.989 139.995 205.908 138.3Z" fill="#5E61B5"/>
<path d="M236.361 153.914H232.452L226.354 145.444C225.271 145.646 224.172 145.751 223.07 145.756H219.161V153.992H215.877V122.764H222.913C231.435 122.764 235.853 127.527 235.853 134.28C235.984 136.434 235.421 138.574 234.246 140.387C233.072 142.199 231.347 143.588 229.324 144.351L236.361 153.914ZM222.953 142.75C230.028 142.75 232.647 139.159 232.647 134.241C232.647 129.322 229.989 125.653 222.953 125.653H219.395V142.75H222.953Z" fill="#5E61B5"/>
<path d="M242.967 143.258V122.725H246.29V143.062C246.29 145.133 247.114 147.119 248.58 148.583C250.046 150.047 252.035 150.869 254.108 150.869C256.182 150.869 258.171 150.047 259.637 148.583C261.103 147.119 261.927 145.133 261.927 143.062V122.725H265.445V143.258C265.445 146.229 264.263 149.078 262.159 151.179C260.055 153.28 257.201 154.461 254.226 154.461C251.25 154.461 248.396 153.28 246.292 151.179C244.188 149.078 243.006 146.229 243.006 143.258H242.967Z" fill="#5E61B5"/>
<path d="M273.654 122.335H274.123L288.666 140.486L303.09 122.335H303.599V153.914H300.393V133.304C300.393 131.899 300.393 129.752 300.393 129.752C300.393 129.752 299.181 131.742 298.204 132.991L288.9 144.936H288.353L279.049 132.991C278.033 131.742 276.782 129.752 276.782 129.752C276.782 129.752 276.977 131.899 276.977 133.304V153.914H273.732L273.654 122.335Z" fill="#5E61B5"/>
<path d="M152.079 218.087L171.625 200.405C178.036 194.549 181.789 190.373 181.789 184.791C181.866 183.563 181.672 182.333 181.221 181.188C180.769 180.043 180.071 179.012 179.176 178.166C178.281 177.321 177.21 176.682 176.041 176.296C174.871 175.909 173.63 175.784 172.407 175.93C169.601 175.94 166.883 176.911 164.706 178.679C162.53 180.448 161.026 182.908 160.445 185.649L154.307 183.932C155.203 179.862 157.485 176.228 160.764 173.651C164.044 171.074 168.117 169.713 172.289 169.801C182.453 169.801 188.669 175.735 188.669 184.517C188.669 191.114 183.9 196.93 176.941 203.254L169.67 209.851C168.142 211.145 166.477 212.271 164.706 213.208C164.706 213.208 168.263 212.896 170.061 212.896H189.881V218.751H152.079V218.087Z" fill="#B51A65"/>
<path d="M195.979 194.862C195.87 189.834 197.265 184.887 199.985 180.655C202.705 176.422 206.627 173.095 211.249 171.099C215.872 169.102 220.986 168.528 225.937 169.447C230.889 170.367 235.453 172.74 239.048 176.262C242.642 179.785 245.104 184.298 246.117 189.224C247.131 194.15 246.651 199.266 244.739 203.919C242.827 208.571 239.569 212.549 235.382 215.344C231.195 218.139 226.269 219.624 221.232 219.61C217.94 219.667 214.669 219.069 211.61 217.851C208.551 216.633 205.765 214.82 203.415 212.517C201.065 210.214 199.197 207.466 197.92 204.435C196.644 201.404 195.984 198.15 195.979 194.862ZM239.605 194.862C239.498 191.277 238.336 187.803 236.265 184.873C234.194 181.944 231.305 179.687 227.959 178.386C224.612 177.084 220.956 176.795 217.446 177.554C213.936 178.313 210.727 180.087 208.22 182.654C205.713 185.222 204.018 188.47 203.346 191.993C202.675 195.516 203.057 199.158 204.444 202.466C205.832 205.773 208.163 208.6 211.149 210.594C214.134 212.587 217.641 213.659 221.232 213.676C223.696 213.716 226.142 213.252 228.419 212.314C230.697 211.377 232.76 209.985 234.48 208.223C236.2 206.462 237.542 204.368 238.423 202.07C239.304 199.773 239.707 197.32 239.605 194.862Z" fill="#B51A65"/>
<path d="M250.395 218.087L269.94 200.405C276.351 194.549 280.104 190.373 280.104 184.791C280.182 183.563 279.988 182.333 279.536 181.188C279.085 180.043 278.387 179.012 277.491 178.166C276.596 177.321 275.526 176.682 274.356 176.296C273.186 175.909 271.946 175.784 270.722 175.93C267.916 175.94 265.198 176.911 263.022 178.679C260.845 180.448 259.341 182.908 258.76 185.649L252.623 183.932C253.518 179.862 255.8 176.228 259.08 173.651C262.359 171.074 266.433 169.713 270.605 169.801C280.769 169.801 286.984 175.735 286.984 184.517C286.984 191.114 282.215 196.93 275.257 203.254L267.986 209.851C266.457 211.145 264.792 212.271 263.021 213.208C263.021 213.208 266.578 212.896 268.377 212.896H288.196V218.751H250.395V218.087Z" fill="#B51A65"/>
<path d="M4.50808 142.75C2.70986 147.551 5.68083 152.314 12.561 154.773C13.3537 155.036 14.1635 155.244 14.9846 155.397C13.421 148.762 11.7791 141.774 10.5673 135.216C8.04509 137.28 5.98145 139.846 4.50808 142.75Z" fill="#E55A5A"/>
<path d="M127.569 49.0667C141.759 43.6409 160.328 46.6075 172.876 45.1632C183.392 43.8751 186.949 38.6054 188.005 33.0624C174.401 36.9659 152.197 33.4918 139.375 38.0589C134.356 40.3649 130.216 44.2251 127.569 49.0667Z" fill="#F2C43E"/>
<path d="M188.356 28.105C188.356 21.1959 176.042 20.5323 154.698 27.6366C136.364 33.687 119.516 44.4606 102.785 42.2356C106.852 48.6664 109.713 55.7826 111.228 63.2363C113.993 57.8598 118.384 53.4893 123.777 50.7452C125.031 50.0775 126.338 49.5161 127.686 49.0667C130.3 44.2084 134.412 40.3209 139.414 37.9808C152.236 33.4138 174.596 37.005 188.044 32.9844C188.321 31.3736 188.426 29.738 188.356 28.105Z" fill="#E55A5A"/>
<path d="M22.2949 124.989C18.6203 128.268 14.1247 131.859 10.5674 135.216C11.7792 141.774 13.4211 148.762 14.9847 155.397C18.4021 156.011 21.9251 155.597 25.1061 154.207C28.287 152.816 30.9823 150.514 32.8496 147.591C34.8042 144.897 39.3779 138.3 44.5771 130.766C39.1403 127.171 33.9191 123.261 28.9405 119.056C25.9695 121.671 23.624 123.818 22.2949 124.989Z" fill="#5E61B5"/>
<path d="M101.573 129.244C99.8136 137.598 96.7253 153.953 94.458 166.327C96.8005 167.588 99.4198 168.248 102.081 168.248C104.742 168.248 107.361 167.588 109.704 166.327C116.037 162.424 114.082 148.449 113.027 143.219C112.245 139.549 108.57 113.513 106.967 95.7913C105.013 92.7076 103.058 89.7019 101.26 86.8914C103.175 102.115 103.527 120.032 101.573 129.244Z" fill="#B51A65"/>
<path d="M101.26 86.8914C97.624 80.777 93.4786 74.9793 88.8678 69.56C83.6686 65.4223 74.7166 77.3669 71.5111 85.9156C68.3055 94.4642 53.4116 100.71 48.3297 109.336C46.8051 111.835 49.0724 115.621 52.2389 119.642C59.2363 109.649 65.7646 100.358 67.8755 98.1334C72.2147 93.3322 80.5803 83.3002 87.1477 85.33C93.7151 87.3598 98.1325 92.3173 94.6533 119.017C91.1742 145.717 90.5096 160.472 92.1124 164.336C92.5991 165.328 93.3946 166.137 94.3797 166.639C96.647 154.265 99.7352 137.91 101.494 129.556C103.527 120.032 103.175 102.115 101.26 86.8914Z" fill="#905DBB"/>
<path d="M94.4583 40.0497C74.9125 31.8133 64.2405 28.105 50.0502 18.0731C44.421 14.1696 40.0818 9.91481 36.2899 6.71396C32.0844 6.5658 27.9311 7.6808 24.367 9.91481C20.0154 13.2725 16.148 17.213 12.874 21.6252C13.1743 22.2514 13.6001 22.8094 14.125 23.2647C16.0045 24.8861 18.0637 26.2875 20.2623 27.4414C26.7125 20.8055 31.9899 17.1753 35.6645 18.9709C41.0982 21.7033 52.0439 32.9453 60.8004 36.1462C69.5569 39.347 90.5883 51.0575 96.3347 64.9148C98.849 72.0178 100.503 79.3958 101.26 86.8914C103.098 89.7019 105.169 92.7076 106.968 95.7913C106.297 90.615 106.127 85.3863 106.459 80.1774C107.174 74.333 108.783 68.6327 111.229 63.2753C109.713 55.8216 106.852 48.7054 102.785 42.2746C99.9198 41.9203 97.1177 41.1715 94.4583 40.0497Z" fill="#5E61B5"/>
<path d="M36.2897 6.67492C30.5823 1.8346 26.2041 -0.702637 20.6531 3.27891C15.102 7.26046 10.3719 16.4727 12.8347 21.391C16.1087 16.9788 19.9761 13.0383 24.3277 9.68061C27.9245 7.5074 32.0911 6.46045 36.2897 6.67492Z" fill="#905DBB"/>
<path d="M48.33 109.024C53.4119 100.554 68.345 94.5032 71.5114 85.6032C74.6778 76.7033 83.6689 65.11 88.8681 69.2477C93.4935 74.7665 97.6392 80.6691 101.26 86.8914C100.509 79.3694 98.855 71.9648 96.3346 64.8368C90.5881 50.9794 69.5177 39.23 60.8003 36.0681C52.0828 32.9063 41.2544 21.6253 35.6643 18.8928C32.0288 17.0972 26.7123 20.7275 20.2622 27.3634C27.2388 31.0735 34.7384 33.7057 42.5054 35.1703C55.562 37.7466 70.9641 44.3045 75.7724 51.1746C80.5806 58.0447 83.5907 63.8609 72.9578 75.7665C64.5922 85.369 41.2153 107.58 28.9406 118.978C33.9192 123.183 39.1404 127.093 44.5772 130.688L52.3956 119.329C49.0728 115.309 46.8054 111.522 48.33 109.024Z" fill="#F2C43E"/>
<path d="M98.9146 29.0419C104.583 30.2129 110.642 24.5529 112.909 12.5692C113.337 11.1179 113.413 9.58611 113.133 8.09953C112.852 6.61296 112.223 5.21404 111.295 4.01769C110.368 2.82135 109.17 1.86172 107.799 1.21758C106.429 0.573441 104.924 0.263173 103.41 0.312291C94.5363 -0.936822 91.6826 1.52238 91.6826 10.9688C91.6826 20.4152 93.4418 27.8708 98.9146 29.0419Z" fill="#E55A5A"/>
<path d="M317.241 188.031C317.867 187.514 318.455 186.953 319.001 186.352L330.337 172.768V171.714H301.097V177.062H317.32C318.336 177.062 319.431 177.062 320.212 177.062C319.567 177.668 318.966 178.32 318.414 179.013L306.687 193.339L307.508 194.549H307.781C309.712 193.599 311.845 193.131 313.997 193.183C321.19 193.183 325.333 197.087 325.333 203.801C325.423 205.256 325.204 206.714 324.692 208.08C324.18 209.445 323.385 210.688 322.36 211.726C321.334 212.764 320.102 213.576 318.742 214.107C317.382 214.638 315.925 214.877 314.466 214.808C311.995 214.896 309.556 214.24 307.464 212.924C305.372 211.608 303.726 209.694 302.738 207.431V207.158L297.305 209.695V209.968C298.82 213.222 301.274 215.949 304.353 217.799C307.432 219.649 310.995 220.538 314.583 220.351C316.828 220.509 319.082 220.198 321.2 219.437C323.318 218.676 325.254 217.482 326.883 215.932C328.513 214.382 329.801 212.509 330.665 210.434C331.529 208.358 331.95 206.126 331.901 203.879C332.011 201.87 331.717 199.859 331.034 197.966C330.352 196.073 329.296 194.336 327.929 192.858C326.562 191.38 324.911 190.191 323.076 189.362C321.24 188.532 319.256 188.08 317.241 188.031Z" fill="#B51A65"/>
</g>
<defs>
<filter id="filter0_d_2_454" x="0" y="0" width="385" height="228" filterUnits="userSpaceOnUse" color-interpolation-filters="sRGB">
<feFlood flood-opacity="0" result="BackgroundImageFix"/>
<feColorMatrix in="SourceAlpha" type="matrix" values="0 0 0 0 0 0 0 0 0 0 0 0 0 0 0 0 0 0 127 0" result="hardAlpha"/>
<feOffset dy="4"/>
<feGaussianBlur stdDeviation="2"/>
<feComposite in2="hardAlpha" operator="out"/>
<feColorMatrix type="matrix" values="0 0 0 0 0 0 0 0 0 0 0 0 0 0 0 0 0 0 0.25 0"/>
<feBlend mode="normal" in2="BackgroundImageFix" result="effect1_dropShadow_2_454"/>
<feBlend mode="normal" in="SourceGraphic" in2="effect1_dropShadow_2_454" result="shape"/>
</filter>
<clipPath id="clip0_2_454">
<rect width="377" height="220" fill="white" transform="translate(4)"/>
</clipPath>
</defs>
</svg>
