<svg width="169" height="47" viewBox="0 0 169 47" fill="none" xmlns="http://www.w3.org/2000/svg">
<rect width="169" height="46.4369" rx="23.2185" fill="#B60666"/>
<path d="M44.9869 20.5365H51.7269V23.0565H44.9869V20.5365ZM45.2269 26.2965H52.8469V28.8965H42.0069V14.8965H52.5869V17.4965H45.2269V26.2965ZM55.4249 28.8965V14.8965H58.1049L66.3649 24.9765H65.0649V14.8965H68.2649V28.8965H65.6049L57.3249 18.8165H58.6249V28.8965H55.4249ZM74.4772 28.8965V17.5365H69.9972V14.8965H82.1972V17.5365H77.7172V28.8965H74.4772ZM83.9405 28.8965V14.8965H90.0005C91.2539 14.8965 92.3339 15.1032 93.2405 15.5165C94.1472 15.9165 94.8472 16.4965 95.3405 17.2565C95.8339 18.0165 96.0805 18.9232 96.0805 19.9765C96.0805 21.0165 95.8339 21.9165 95.3405 22.6765C94.8472 23.4232 94.1472 23.9965 93.2405 24.3965C92.3339 24.7965 91.2539 24.9965 90.0005 24.9965H85.7405L87.1805 23.5765V28.8965H83.9405ZM92.8405 28.8965L89.3405 23.8165H92.8005L96.3405 28.8965H92.8405ZM87.1805 23.9365L85.7405 22.4165H89.8205C90.8205 22.4165 91.5672 22.2032 92.0605 21.7765C92.5539 21.3365 92.8005 20.7365 92.8005 19.9765C92.8005 19.2032 92.5539 18.6032 92.0605 18.1765C91.5672 17.7498 90.8205 17.5365 89.8205 17.5365H85.7405L87.1805 15.9965V23.9365ZM96.8075 28.8965L103.048 14.8965H106.248L112.508 28.8965H109.108L103.988 16.5365H105.268L100.128 28.8965H96.8075ZM99.9275 25.8965L100.788 23.4365H107.988L108.868 25.8965H99.9275ZM113.96 28.8965V14.8965H120.02C121.273 14.8965 122.353 15.1032 123.26 15.5165C124.167 15.9165 124.867 16.4965 125.36 17.2565C125.853 18.0165 126.1 18.9232 126.1 19.9765C126.1 21.0165 125.853 21.9165 125.36 22.6765C124.867 23.4232 124.167 23.9965 123.26 24.3965C122.353 24.7965 121.273 24.9965 120.02 24.9965H115.76L117.2 23.5765V28.8965H113.96ZM122.86 28.8965L119.36 23.8165H122.82L126.36 28.8965H122.86ZM117.2 23.9365L115.76 22.4165H119.84C120.84 22.4165 121.587 22.2032 122.08 21.7765C122.573 21.3365 122.82 20.7365 122.82 19.9765C122.82 19.2032 122.573 18.6032 122.08 18.1765C121.587 17.7498 120.84 17.5365 119.84 17.5365H115.76L117.2 15.9965V23.9365Z" fill="white"/>
</svg>
