<?xml version="1.0" encoding="utf-8"?>
<!-- Generator: Adobe Illustrator 25.4.1, SVG Export Plug-In . SVG Version: 6.00 Build 0)  -->
<svg version="1.1" id="Capa_1" xmlns="http://www.w3.org/2000/svg" xmlns:xlink="http://www.w3.org/1999/xlink" x="0px" y="0px"
	 viewBox="0 0 731 163" style="enable-background:new 0 0 731 163;" xml:space="preserve">
<style type="text/css">
	.st0{clip-path:url(#SVGID_00000125570909506903110780000009663511809506168737_);}
	.st1{fill:none;stroke:#CE554D;stroke-width:25.11;stroke-miterlimit:10;}
	.st2{fill:#B60666;}
	.st3{fill:#EDC12D;}
	.st4{fill:#FFFFFF;}
</style>
<g>
	<defs>
		<rect id="SVGID_1_" width="731" height="444"/>
	</defs>
	<clipPath id="SVGID_00000044158202898594450700000015287753906688859520_">
		<use xlink:href="#SVGID_1_"  style="overflow:visible;"/>
	</clipPath>
	<g style="clip-path:url(#SVGID_00000044158202898594450700000015287753906688859520_);">
		<path class="st1" d="M611.7,270.5c59.8,0,108.2-48.4,108.2-108.1c0-59.7-48.4-108.1-108.2-108.1c-59.8,0-108.2,48.4-108.2,108.1
			C503.5,222,552,270.5,611.7,270.5z"/>
		<path class="st2" d="M151.4,205.4L189.1,346c3.7,13.8,11,26.4,21.1,36.5c10.1,10.1,22.7,17.4,36.5,21.1l140.6,37.6
			c13.8,3.7,28.4,3.7,42.2,0c13.8-3.7,26.4-11,36.5-21.1L569,317.3c10.1-10.1,17.4-22.7,21.1-36.5c3.7-13.8,3.7-28.4,0-42.2
			L552.5,98c-3.7-13.8-11-26.4-21.1-36.5c-10.1-10.1-22.7-17.4-36.6-21.1L354.2,2.8c-13.8-3.7-28.4-3.7-42.2,0s-26.4,11-36.5,21.1
			L172.5,126.7c-10.1,10.1-17.4,22.7-21.1,36.5C147.7,177.1,147.7,191.6,151.4,205.4z"/>
		<path class="st3" d="M213.2,219.8l-49.5,9.8c-34,6.8-69.3-0.3-98.2-19.5c-28.8-19.3-48.8-49.2-55.6-83.2L0,77.4l49.5-9.8
			c34-6.8,69.3,0.3,98.2,19.5c28.8,19.3,48.8,49.2,55.6,83.2L213.2,219.8z"/>
		<g>
			<path class="st4" d="M272.1,105.1V78.5h4.2v26.6H272.1z"/>
			<path class="st4" d="M300.3,105.1h-4.7l-6.7-9h-3v9h-4.2V78.5h3.5h4.4c3.5,0,5.6,1.4,6.6,2.7c1.4,1.5,2.1,3.7,2.1,6.2
				c0,2.4-0.8,4.6-2.1,6.1c-0.6,0.7-1.6,1.5-3.1,2L300.3,105.1z M289.6,92.4c1.7,0,3-0.5,3.8-1.4c1-1.1,1.2-2.6,1.2-3.6
				c0-1.1-0.2-2.6-1.2-3.7c-0.8-0.9-2.1-1.4-3.8-1.4h-3.7v10.1H289.6z"/>
			<path class="st4" d="M329.9,99.4h-9.5l-2.3,5.7h-4.6l11.6-27.8l11.5,27.8h-4.6L329.9,99.4z M328.4,95.7l-3.2-8.1l-3.2,8.1H328.4z
				"/>
			<path class="st4" d="M360.9,96.1c0,3.6-1.6,5.7-3,6.9c-1.6,1.4-3.9,2.2-6.5,2.2c-0.6,0-1.1,0-1.7-0.1v-4.3
				c0.5,0.1,1.1,0.2,1.7,0.2c1.5,0,2.9-0.4,3.8-1.2c1-0.8,1.5-2.1,1.5-3.7V78.5h4.2V96.1z"/>
			<path class="st4" d="M369.2,103c-1-0.8-1.8-1.8-2.4-2.9c-0.6-1.2-0.9-2.6-0.9-4.1V78.5h4.2v17.6c0,1.6,0.6,2.8,1.6,3.6
				c1,0.8,2.5,1.3,4.1,1.3c1.5,0,3-0.5,4-1.3c1.1-0.8,1.6-2,1.6-3.6V78.5h4.2v17.6c0,1.5-0.3,2.8-0.9,4.1c-0.6,1.1-1.4,2.1-2.4,2.9
				c-1.8,1.4-4.1,2.1-6.6,2.1S370.9,104.4,369.2,103z"/>
			<path class="st4" d="M411.5,95.1v7.2l-0.9,0.6c0,0,0,0-0.1,0c0,0-0.1,0.1-0.1,0.1c0,0-0.1,0.1-0.1,0.1c0,0-0.1,0.1-0.1,0.1
				c0,0-0.1,0.1-0.1,0.1c0,0-0.1,0-0.1,0.1c0,0-0.1,0-0.1,0.1c-0.1,0-0.1,0-0.2,0.1c0,0-0.1,0-0.1,0.1c0,0-0.1,0.1-0.2,0.1
				c0,0,0,0-0.1,0.1c0,0,0,0-0.1,0c0,0-0.1,0.1-0.2,0.1c-0.1,0-0.2,0.1-0.3,0.1c0,0,0,0,0,0c-1.5,0.7-3.1,1-4.8,1.1c0,0,0,0,0,0
				c-0.1,0-0.2,0-0.3,0h0c-0.1,0-0.2,0-0.3,0c-1.4,0-2.9-0.2-4.2-0.7c0,0,0,0,0,0c-0.1,0-0.3-0.1-0.4-0.1c-0.2-0.1-0.4-0.1-0.5-0.2
				c-0.5-0.2-0.9-0.4-1.3-0.6c-1.1-0.6-2.1-1.3-2.9-2.2c-1.2-1.2-2.2-2.6-2.9-4.2c-0.5-1.2-0.9-2.5-1-3.8c0-0.4-0.1-0.9-0.1-1.3
				c0-0.2,0-0.5,0-0.7c0.1-1.5,0.4-3.1,1-4.5c0.7-1.6,1.6-3,2.9-4.2c1.2-1.2,2.6-2.2,4.2-2.8c1.6-0.7,3.4-1,5.2-1c0.1,0,0.2,0,0.3,0
				h0c0.1,0,0.2,0,0.3,0c0,0,0,0,0,0c0.1,0,0.2,0,0.3,0c1.5,0.1,3,0.5,4.5,1.1c0,0,0,0,0,0c0.1,0,0.1,0.1,0.2,0.1c0,0,0,0,0,0v4.9
				c-0.5-0.5-1.1-0.8-1.8-1.1c-0.5-0.3-1.1-0.5-1.6-0.6c0,0-0.1,0-0.1,0c0,0-0.1,0-0.1,0c0,0-0.1,0-0.1,0c0,0,0,0-0.1,0
				c-0.1,0-0.3,0-0.5-0.1c0,0,0,0-0.1,0c0,0-0.1,0-0.1,0c0,0,0,0-0.1,0c0,0-0.1,0-0.1,0c0,0-0.1,0-0.1,0c-0.1,0-0.1,0-0.2,0
				c0,0-0.1,0-0.1,0s-0.1,0-0.1,0c0,0-0.1,0-0.1,0c0,0-0.1,0-0.1,0c-0.1,0-0.2,0-0.3,0c-1.7,0-3.3,0.4-4.7,1.3c0,0-0.1,0.1-0.2,0.1
				c-0.6,0.4-1.1,0.8-1.6,1.3c-0.1,0.1-0.3,0.3-0.5,0.5c0,0,0,0,0,0c-0.2,0.2-0.3,0.4-0.5,0.6c0,0-0.1,0.1-0.1,0.1
				c-0.1,0.1-0.1,0.2-0.2,0.3c0,0-0.1,0.1-0.1,0.1c-0.5,0.9-0.9,1.8-1.1,2.7c0,0,0,0,0,0.1c-0.1,0.4-0.1,0.7-0.2,1.1
				c0,0.1,0,0.3,0,0.4c0,0.2,0,0.3,0,0.5c0,0.1,0,0.3,0,0.5c0,0.7,0.1,1.4,0.3,2c0.4,1.5,1.2,2.9,2.3,4c1.7,1.7,4,2.7,6.5,2.7
				c0.1,0,0.2,0,0.3,0c0,0,0.1,0,0.1,0c0,0,0.1,0,0.1,0c0,0,0.1,0,0.1,0c0,0,0.1,0,0.1,0c0.1,0,0.1,0,0.2,0c0,0,0,0,0.1,0
				c0,0,0.1,0,0.1,0c0,0,0,0,0.1,0c0.3,0,0.5-0.1,0.8-0.1c0,0,0,0,0.1,0c0,0,0.1,0,0.1,0c0,0,0.1,0,0.1,0c0,0,0.1,0,0.1,0
				c0,0,0.1,0,0.1,0c0,0,0.1,0,0.1,0c0.5-0.1,1-0.3,1.5-0.6c0,0,0,0,0,0v-4.9h-5v-3.8h9.2V95.1z"/>
			<path class="st4" d="M430.2,99.4h-9.5l-2.3,5.7h-4.6l11.6-27.8l11.5,27.8h-4.6L430.2,99.4z M428.7,95.7l-3.2-8.1l-3.2,8.1H428.7z
				"/>
			<path class="st4" d="M458.9,105.1h-4.7l-6.7-9h-3v9h-4.2V78.5h3.5h4.4c3.5,0,5.6,1.4,6.6,2.7c1.4,1.5,2.2,3.7,2.2,6.2
				c0,2.4-0.8,4.6-2.2,6.1c-0.6,0.7-1.6,1.5-3.1,2L458.9,105.1z M448.2,92.4c1.7,0,3-0.5,3.8-1.4c1-1.1,1.2-2.6,1.2-3.6
				c0-1.1-0.2-2.6-1.2-3.7c-0.8-0.9-2.1-1.4-3.8-1.4h-3.7v10.1H448.2z"/>
		</g>
	</g>
</g>
</svg>
