<svg width="731" height="163" viewBox="0 0 731 163" fill="none" xmlns="http://www.w3.org/2000/svg">
<g clip-path="url(#clip0_14_4237)">
<path d="M611.707 270.451C671.46 270.451 719.9 222.041 719.9 162.323C719.9 102.606 671.46 54.1958 611.707 54.1958C551.953 54.1958 503.514 102.606 503.514 162.323C503.514 222.041 551.953 270.451 611.707 270.451Z" stroke="#CE554D" stroke-width="25.11" stroke-miterlimit="10"/>
<path d="M151.437 205.435L189.118 345.961C192.82 359.775 200.096 372.372 210.214 382.486C220.332 392.599 232.936 399.873 246.758 403.576L387.369 441.225C401.191 444.927 415.746 444.927 429.569 441.226C443.392 437.525 455.996 430.253 466.115 420.14L569.045 317.272C579.165 307.16 586.443 294.563 590.147 280.748C593.85 266.933 593.849 252.388 590.143 238.573L552.471 98.0391C548.767 84.2234 541.488 71.6259 531.366 61.5137C521.245 51.4014 508.638 44.1309 494.812 40.4333L354.22 2.77542C340.397 -0.926626 325.843 -0.927091 312.02 2.77402C298.197 6.47513 285.592 13.7474 275.473 23.8599L172.543 126.736C162.424 136.849 155.146 149.446 151.441 163.26C147.736 177.075 147.735 191.62 151.437 205.435Z" fill="#B60666"/>
<path d="M213.186 219.796L163.672 229.63C129.645 236.388 94.3259 229.36 65.4839 210.093C36.6418 190.826 16.6395 160.897 9.87733 126.891L0.0374483 77.4073L49.5511 67.5734C83.5778 60.8153 118.897 67.8429 147.739 87.1101C176.581 106.377 196.583 136.306 203.346 170.312L213.186 219.796Z" fill="#EDC12D"/>
<path d="M345.225 91L336.165 70H341.415L349.335 88.6H346.245L354.285 70H359.115L350.025 91H345.225ZM365.338 78.46H375.448V82.24H365.338V78.46ZM365.698 87.1H377.128V91H360.868V70H376.738V73.9H365.698V87.1ZM380.995 91V70H390.085C391.965 70 393.585 70.31 394.945 70.93C396.305 71.53 397.355 72.4 398.095 73.54C398.835 74.68 399.205 76.04 399.205 77.62C399.205 79.18 398.835 80.53 398.095 81.67C397.355 82.79 396.305 83.65 394.945 84.25C393.585 84.85 391.965 85.15 390.085 85.15H383.695L385.855 83.02V91H380.995ZM394.345 91L389.095 83.38H394.285L399.595 91H394.345ZM385.855 83.56L383.695 81.28H389.815C391.315 81.28 392.435 80.96 393.175 80.32C393.915 79.66 394.285 78.76 394.285 77.62C394.285 76.46 393.915 75.56 393.175 74.92C392.435 74.28 391.315 73.96 389.815 73.96H383.695L385.855 71.65V83.56ZM296.649 128V107H305.739C307.619 107 309.239 107.31 310.599 107.93C311.959 108.53 313.009 109.4 313.749 110.54C314.489 111.68 314.859 113.04 314.859 114.62C314.859 116.18 314.489 117.53 313.749 118.67C313.009 119.79 311.959 120.65 310.599 121.25C309.239 121.85 307.619 122.15 305.739 122.15H299.349L301.509 120.02V128H296.649ZM309.999 128L304.749 120.38H309.939L315.249 128H309.999ZM301.509 120.56L299.349 118.28H305.469C306.969 118.28 308.089 117.96 308.829 117.32C309.569 116.66 309.939 115.76 309.939 114.62C309.939 113.46 309.569 112.56 308.829 111.92C308.089 111.28 306.969 110.96 305.469 110.96H299.349L301.509 108.65V120.56ZM315.95 128L325.31 107H330.11L339.5 128H334.4L326.72 109.46H328.64L320.93 128H315.95ZM320.63 123.5L321.92 119.81H332.72L334.04 123.5H320.63ZM341.678 128V107H345.698L358.088 122.12H356.138V107H360.938V128H356.948L344.528 112.88H346.478V128H341.678ZM370.257 123.2L369.987 117.59L380.037 107H385.437L376.377 116.75L373.677 119.63L370.257 123.2ZM365.907 128V107H370.737V128H365.907ZM380.277 128L372.807 118.85L375.987 115.4L385.947 128H380.277ZM388.114 128V107H392.974V128H388.114ZM397.958 128V107H401.978L414.368 122.12H412.418V107H417.218V128H413.228L400.808 112.88H402.758V128H397.958ZM432.326 128.36C430.666 128.36 429.136 128.1 427.736 127.58C426.356 127.04 425.146 126.28 424.106 125.3C423.086 124.32 422.286 123.17 421.706 121.85C421.146 120.53 420.866 119.08 420.866 117.5C420.866 115.92 421.146 114.47 421.706 113.15C422.286 111.83 423.096 110.68 424.136 109.7C425.176 108.72 426.396 107.97 427.796 107.45C429.196 106.91 430.736 106.64 432.416 106.64C434.276 106.64 435.946 106.95 437.426 107.57C438.926 108.19 440.186 109.09 441.206 110.27L438.086 113.15C437.326 112.35 436.496 111.76 435.596 111.38C434.696 110.98 433.716 110.78 432.656 110.78C431.636 110.78 430.706 110.94 429.866 111.26C429.026 111.58 428.296 112.04 427.676 112.64C427.076 113.24 426.606 113.95 426.266 114.77C425.946 115.59 425.786 116.5 425.786 117.5C425.786 118.48 425.946 119.38 426.266 120.2C426.606 121.02 427.076 121.74 427.676 122.36C428.296 122.96 429.016 123.42 429.836 123.74C430.676 124.06 431.596 124.22 432.596 124.22C433.556 124.22 434.486 124.07 435.386 123.77C436.306 123.45 437.196 122.92 438.056 122.18L440.816 125.69C439.676 126.55 438.346 127.21 436.826 127.67C435.326 128.13 433.826 128.36 432.326 128.36ZM436.376 125.06V117.17H440.816V125.69L436.376 125.06Z" fill="white"/>
</g>
<defs>
<clipPath id="clip0_14_4237">
<rect width="731" height="444" fill="white"/>
</clipPath>
</defs>
</svg>
