<svg width="276" height="161" viewBox="0 0 276 161" fill="none" xmlns="http://www.w3.org/2000/svg">
<g clip-path="url(#clip0_23_3)">
<path d="M113.273 61.7605C112.615 60.9892 111.671 59.6466 111.671 59.6466C111.794 60.4988 111.87 61.357 111.9 62.2175V77.6434H109.61V54.5617H110.011L123.662 70.7017C124.292 71.473 125.236 72.8157 125.236 72.8157C125.236 72.8157 125.064 71.1874 125.064 70.2161V54.8188H127.325V77.8719H126.925L113.273 61.7605Z" fill="#F2C43E"/>
<path d="M133.392 69.8448V54.8188H135.796V69.6733C135.796 71.2075 136.407 72.6789 137.494 73.7637C138.581 74.8486 140.055 75.458 141.592 75.458C143.129 75.458 144.603 74.8486 145.69 73.7637C146.776 72.6789 147.387 71.2075 147.387 69.6733V54.8188H149.791V69.8448C149.667 71.9318 148.75 73.8928 147.226 75.3268C145.701 76.7609 143.686 77.5596 141.592 77.5596C139.497 77.5596 137.482 76.7609 135.958 75.3268C134.434 73.8928 133.516 71.9318 133.392 69.8448Z" fill="#F2C43E"/>
<path d="M160.866 56.9613H153.826V54.8188H170.311V56.9613H163.299V77.6434H160.866V56.9613Z" fill="#F2C43E"/>
<path d="M189.399 77.6434H186.537L182.13 71.3874C181.327 71.5259 180.513 71.5928 179.698 71.5873H177.093V77.6434H174.661V54.7903H179.812C186.08 54.7903 189.313 58.2754 189.313 63.2174C189.4 64.7926 188.985 66.3547 188.126 67.679C187.267 69.0034 186.009 70.0217 184.534 70.5875L189.399 77.6434ZM179.554 69.4734C184.734 69.4734 186.652 66.8167 186.652 63.2459C186.652 59.6751 184.706 56.9613 179.554 56.9613H177.093V69.4734H179.554Z" fill="#F2C43E"/>
<path d="M194.694 54.8188H197.127V77.6719H194.665L194.694 54.8188Z" fill="#F2C43E"/>
<path d="M208.574 56.9613H201.562V54.8188H218.047V56.9613H211.007V77.6434H208.574V56.9613Z" fill="#F2C43E"/>
<path d="M222.311 54.8188H224.772V77.6719H222.311V54.8188Z" fill="#F2C43E"/>
<path d="M229.809 66.2168C229.798 63.8923 230.478 61.6167 231.764 59.6785C233.049 57.7402 234.882 56.2265 237.03 55.3291C239.179 54.4317 241.545 54.191 243.831 54.6376C246.116 55.0841 248.218 56.1978 249.868 57.8375C251.519 59.4771 252.645 61.569 253.103 63.8481C253.562 66.1271 253.332 68.4907 252.444 70.6394C251.555 72.7881 250.048 74.6251 248.112 75.9177C246.177 77.2104 243.9 77.9004 241.571 77.9004C240.02 77.9435 238.476 77.6711 237.033 77.0999C235.59 76.5287 234.279 75.6706 233.179 74.5778C232.079 73.485 231.213 72.1802 230.633 70.7429C230.054 69.3056 229.774 67.7657 229.809 66.2168ZM250.815 66.2168C250.759 64.4051 250.17 62.6501 249.12 61.1708C248.071 59.6914 246.608 58.5534 244.915 57.8986C243.222 57.2438 241.373 57.1014 239.599 57.489C237.825 57.8766 236.205 58.7772 234.941 60.0782C233.676 61.3793 232.824 63.0232 232.49 64.8049C232.156 66.5865 232.355 68.4269 233.062 70.0963C233.769 71.7657 234.954 73.1902 236.467 74.192C237.98 75.1938 239.756 75.7285 241.571 75.7294C242.816 75.7503 244.051 75.5164 245.201 75.042C246.351 74.5676 247.391 73.8629 248.257 72.9714C249.124 72.0798 249.798 71.0205 250.238 69.8587C250.678 68.6969 250.874 67.4574 250.815 66.2168Z" fill="#F2C43E"/>
<path d="M261.948 61.7605C261.319 60.9892 260.374 59.6466 260.374 59.6466C260.374 59.6466 260.574 61.2463 260.574 62.2175V77.6434H258.285V54.5617H258.686L272.337 70.7017C272.966 71.473 273.911 72.8157 273.911 72.8157C273.911 72.8157 273.739 71.1874 273.739 70.2161V54.8188H276V77.8719H275.599L261.948 61.7605Z" fill="#F2C43E"/>
<path d="M109.61 89.8126H123.347V91.9551H111.9V102.667H122.202V104.896H111.9V112.637H109.496L109.61 89.8126Z" fill="#5E61B5"/>
<path d="M126.81 101.211C126.799 98.8861 127.479 96.6105 128.765 94.6723C130.05 92.734 131.883 91.2203 134.031 90.3229C136.18 89.4255 138.546 89.1848 140.832 89.6314C143.117 90.0779 145.219 91.1916 146.869 92.8313C148.52 94.4709 149.646 96.5628 150.104 98.8419C150.563 101.121 150.333 103.485 149.445 105.633C148.556 107.782 147.049 109.619 145.113 110.912C143.178 112.204 140.901 112.894 138.572 112.894C137.021 112.937 135.477 112.665 134.034 112.094C132.591 111.522 131.28 110.664 130.18 109.572C129.08 108.479 128.214 107.174 127.634 105.737C127.055 104.299 126.775 102.759 126.81 101.211ZM147.816 101.211C147.76 99.3989 147.171 97.6439 146.121 96.1646C145.072 94.6852 143.609 93.5472 141.916 92.8924C140.223 92.2376 138.374 92.0952 136.6 92.4828C134.826 92.8704 133.206 93.771 131.942 95.0721C130.677 96.3731 129.825 98.0171 129.491 99.7987C129.157 101.58 129.356 103.421 130.063 105.09C130.77 106.76 131.954 108.184 133.468 109.186C134.981 110.188 136.757 110.722 138.572 110.723C139.817 110.744 141.052 110.51 142.202 110.036C143.352 109.561 144.392 108.857 145.258 107.965C146.125 107.074 146.799 106.014 147.239 104.852C147.679 103.691 147.875 102.451 147.816 101.211Z" fill="#5E61B5"/>
<path d="M170.11 112.637H167.248L162.784 106.438C161.991 106.586 161.186 106.663 160.38 106.667H157.518V112.694H155.114V89.8412H160.265C166.504 89.8412 169.738 93.3263 169.738 98.2683C169.834 99.8451 169.422 101.411 168.562 102.737C167.702 104.064 166.439 105.08 164.959 105.638L170.11 112.637ZM160.294 104.467C165.474 104.467 167.391 101.839 167.391 98.2397C167.391 94.6403 165.445 91.9551 160.294 91.9551H157.69V104.467H160.294Z" fill="#5E61B5"/>
<path d="M174.947 104.839V89.8126H177.379V104.696C177.379 106.211 177.982 107.664 179.056 108.736C180.129 109.807 181.585 110.409 183.103 110.409C184.621 110.409 186.077 109.807 187.15 108.736C188.224 107.664 188.827 106.211 188.827 104.696V89.8126H191.403V104.839C191.403 107.013 190.537 109.098 188.997 110.636C187.457 112.173 185.367 113.037 183.189 113.037C181.011 113.037 178.921 112.173 177.381 110.636C175.841 109.098 174.975 107.013 174.975 104.839H174.947Z" fill="#5E61B5"/>
<path d="M197.413 89.527H197.756L208.402 102.81L218.963 89.527H219.335V112.637H216.988V97.5541C216.988 96.5257 216.988 94.9546 216.988 94.9546C216.988 94.9546 216.101 96.4115 215.385 97.3256L208.574 106.067H208.173L201.362 97.3256C200.618 96.4115 199.702 94.9546 199.702 94.9546C199.702 94.9546 199.845 96.5257 199.845 97.5541V112.637H197.47L197.413 89.527Z" fill="#5E61B5"/>
<path d="M108.408 159.6L122.718 146.66C127.411 142.375 130.159 139.318 130.159 135.233C130.215 134.335 130.073 133.434 129.743 132.597C129.412 131.759 128.901 131.004 128.246 130.385C127.59 129.766 126.807 129.299 125.95 129.016C125.094 128.734 124.186 128.642 123.29 128.749C121.236 128.756 119.246 129.467 117.652 130.761C116.059 132.055 114.958 133.855 114.533 135.862L110.039 134.605C110.695 131.626 112.366 128.967 114.767 127.081C117.167 125.195 120.15 124.199 123.204 124.264C130.645 124.264 135.195 128.606 135.195 135.033C135.195 139.861 131.704 144.117 126.61 148.745L121.287 153.573C120.167 154.52 118.949 155.344 117.652 156.029C117.652 156.029 120.256 155.801 121.573 155.801H136.083V160.086H108.408V159.6Z" fill="#B51A65"/>
<path d="M140.547 142.603C140.467 138.924 141.488 135.304 143.48 132.206C145.471 129.109 148.342 126.674 151.726 125.213C155.111 123.752 158.854 123.332 162.479 124.005C166.104 124.678 169.446 126.414 172.078 128.992C174.709 131.57 176.511 134.872 177.253 138.477C177.995 142.083 177.644 145.827 176.244 149.231C174.844 152.636 172.459 155.547 169.394 157.593C166.329 159.638 162.722 160.725 159.035 160.714C156.624 160.756 154.23 160.319 151.99 159.427C149.751 158.536 147.711 157.209 145.991 155.524C144.27 153.838 142.903 151.828 141.968 149.61C141.034 147.391 140.55 145.01 140.547 142.603ZM172.486 142.603C172.407 139.98 171.557 137.438 170.04 135.294C168.524 133.15 166.409 131.498 163.959 130.546C161.509 129.593 158.833 129.382 156.263 129.937C153.693 130.493 151.344 131.791 149.509 133.67C147.673 135.549 146.432 137.926 145.941 140.504C145.449 143.082 145.729 145.747 146.744 148.168C147.76 150.589 149.467 152.658 151.653 154.116C153.838 155.575 156.406 156.36 159.035 156.372C160.838 156.401 162.629 156.062 164.297 155.376C165.964 154.689 167.474 153.671 168.733 152.381C169.993 151.092 170.975 149.56 171.62 147.879C172.265 146.197 172.56 144.402 172.486 142.603Z" fill="#B51A65"/>
<path d="M180.385 159.6L194.694 146.66C199.387 142.375 202.135 139.318 202.135 135.233C202.192 134.335 202.05 133.434 201.719 132.597C201.388 131.759 200.877 131.004 200.222 130.385C199.567 129.766 198.783 129.299 197.927 129.016C197.07 128.734 196.162 128.642 195.266 128.749C193.212 128.756 191.222 129.467 189.629 130.761C188.035 132.055 186.934 133.855 186.509 135.862L182.016 134.605C182.671 131.626 184.342 128.967 186.743 127.081C189.144 125.195 192.126 124.199 195.18 124.264C202.621 124.264 207.172 128.606 207.172 135.033C207.172 139.861 203.68 144.117 198.586 148.745L193.263 153.573C192.144 154.52 190.925 155.344 189.628 156.029C189.628 156.029 192.233 155.801 193.549 155.801H208.059V160.086H180.385V159.6Z" fill="#B51A65"/>
<path d="M0.37197 104.467C-0.944496 107.981 1.23054 111.466 6.26745 113.266C6.84784 113.458 7.44066 113.611 8.04182 113.723C6.89706 108.866 5.69507 103.753 4.80789 98.9539C2.9614 100.464 1.45062 102.342 0.37197 104.467Z" fill="#E55A5A"/>
<path d="M90.4641 35.9079C100.853 31.9372 114.447 34.1082 123.633 33.0513C131.332 32.1086 133.936 28.2521 134.709 24.1957C124.749 27.0523 108.494 24.5099 99.107 27.8522C95.4331 29.5398 92.4022 32.3648 90.4641 35.9079Z" fill="#F2C43E"/>
<path d="M134.966 20.5678C134.966 15.5115 125.952 15.0259 110.326 20.225C96.9034 24.6528 84.5687 32.5371 72.3198 30.9088C75.2973 35.615 77.392 40.8227 78.5015 46.2775C80.5257 42.3428 83.74 39.1444 87.6881 37.1363C88.606 36.6477 89.5633 36.2368 90.55 35.9079C92.4636 32.3525 95.4743 29.5076 99.1357 27.7951C108.523 24.4528 124.893 27.0809 134.737 24.1386C134.941 22.9598 135.017 21.7628 134.966 20.5678Z" fill="#E55A5A"/>
<path d="M13.3935 91.4695C10.7033 93.8691 7.41217 96.4971 4.80786 98.9539C5.69504 103.753 6.89704 108.866 8.04179 113.723C10.5437 114.172 13.1228 113.868 15.4516 112.851C17.7803 111.834 19.7536 110.149 21.1206 108.009C22.5515 106.038 25.8999 101.211 29.7062 95.6973C25.726 93.0663 21.9036 90.2048 18.2587 87.1274C16.0837 89.0413 14.3665 90.6125 13.3935 91.4695Z" fill="#5E61B5"/>
<path d="M71.4325 94.5832C70.1447 100.696 67.8838 112.666 66.2239 121.721C67.9388 122.644 69.8564 123.127 71.8046 123.127C73.7527 123.127 75.6703 122.644 77.3852 121.721C82.0215 118.865 80.5905 108.638 79.8178 104.81C79.2455 102.125 76.5553 83.071 75.3819 70.1018C73.951 67.8451 72.52 65.6455 71.2036 63.5887C72.6059 74.7296 72.8635 87.8416 71.4325 94.5832Z" fill="#B51A65"/>
<path d="M71.2037 63.5887C68.5419 59.114 65.5071 54.8712 62.1315 50.9052C58.3252 47.8772 51.7715 56.6185 49.4247 62.8745C47.078 69.1306 36.1742 73.7012 32.4538 80.0144C31.3376 81.8426 32.9975 84.6135 35.3157 87.5559C40.4384 80.2429 45.2178 73.4441 46.7632 71.8158C49.9399 68.3021 56.0643 60.9606 60.8723 62.446C65.6802 63.9315 68.9142 67.5594 66.3671 87.0988C63.82 106.638 63.3335 117.436 64.5069 120.264C64.8632 120.99 65.4456 121.582 66.1668 121.95C67.8267 112.894 70.0875 100.925 71.3754 94.8117C72.8636 87.8415 72.606 74.7296 71.2037 63.5887Z" fill="#905DBB"/>
<path d="M66.2241 29.3091C51.9147 23.2816 44.1017 20.5678 33.7131 13.2262C29.592 10.3696 26.4153 7.25584 23.6393 4.9134C20.5604 4.80497 17.5198 5.62095 14.9105 7.25584C11.7247 9.71305 8.89345 12.5968 6.49658 15.8257C6.71641 16.284 7.02811 16.6923 7.41238 17.0255C8.78841 18.2121 10.2959 19.2376 11.9055 20.0821C16.6276 15.2258 20.4912 12.5692 23.1814 13.8832C27.1594 15.8829 35.1727 24.11 41.5833 26.4524C47.9939 28.7949 63.3908 37.3648 67.5978 47.5058C69.4385 52.7039 70.6491 58.1033 71.2038 63.5887C72.5488 65.6455 74.0656 67.8451 75.3821 70.1018C74.8911 66.3137 74.7665 62.4872 75.0101 58.6753C75.5334 54.3983 76.711 50.2267 78.5016 46.306C77.3921 40.8513 75.2974 35.6435 72.3199 30.9374C70.2224 30.678 68.171 30.1301 66.2241 29.3091Z" fill="#5E61B5"/>
<path d="M23.6391 4.88484C19.4608 1.34261 16.2555 -0.514187 12.1916 2.39958C8.12772 5.31335 4.66484 12.055 6.46783 15.6544C8.8647 12.4254 11.696 9.54167 14.8818 7.08446C17.515 5.49406 20.5654 4.72789 23.6391 4.88484Z" fill="#905DBB"/>
<path d="M32.4538 79.7858C36.1743 73.5869 47.1067 69.1591 49.4248 62.646C51.7429 56.1329 58.3253 47.6487 62.1316 50.6767C65.5178 54.7155 68.5529 59.0351 71.2037 63.5887C70.6536 58.084 69.4429 52.6651 67.5978 47.4487C63.3908 37.3076 47.9653 28.7092 41.5833 26.3953C35.2013 24.0814 27.2738 15.8258 23.1813 13.8261C20.5198 12.5121 16.6276 15.1687 11.9055 20.025C17.013 22.7401 22.5035 24.6664 28.1896 25.7383C37.7483 27.6237 49.0241 32.4228 52.5443 37.4505C56.0644 42.4782 58.268 46.7346 50.4837 55.4473C44.3593 62.4746 27.2452 78.7289 18.2589 87.0702C21.9038 90.1476 25.7262 93.0092 29.7064 95.6402L35.4302 87.3273C32.9976 84.385 31.3377 81.6141 32.4538 79.7858Z" fill="#F2C43E"/>
<path d="M69.4866 21.2534C73.6364 22.1104 78.0723 17.9682 79.7322 9.19836C80.0451 8.13629 80.1012 7.01527 79.8958 5.92737C79.6903 4.83947 79.2293 3.81571 78.5505 2.94021C77.8717 2.0647 76.9946 1.36242 75.9911 0.891031C74.9875 0.419638 73.8863 0.192579 72.7778 0.228524C66.2813 -0.685599 64.1921 1.11409 64.1921 8.02715C64.1921 14.9402 65.48 20.3964 69.4866 21.2534Z" fill="#E55A5A"/>
<path d="M229.323 137.604C229.781 137.226 230.211 136.815 230.61 136.376L238.91 126.435V125.663H217.503V129.577H229.38C230.124 129.577 230.925 129.577 231.498 129.577C231.025 130.021 230.585 130.498 230.181 131.005L221.596 141.489L222.197 142.375H222.397C223.811 141.68 225.372 141.337 226.947 141.375C232.213 141.375 235.247 144.232 235.247 149.145C235.312 150.21 235.152 151.277 234.777 152.276C234.402 153.276 233.82 154.185 233.07 154.945C232.319 155.705 231.417 156.299 230.421 156.687C229.425 157.076 228.359 157.251 227.291 157.201C225.482 157.265 223.696 156.784 222.165 155.821C220.633 154.859 219.428 153.458 218.705 151.802V151.602L214.727 153.458V153.658C215.836 156.04 217.633 158.035 219.887 159.389C222.141 160.743 224.749 161.394 227.377 161.257C229.02 161.373 230.67 161.145 232.221 160.588C233.771 160.031 235.188 159.157 236.381 158.023C237.575 156.888 238.518 155.518 239.15 153.999C239.783 152.48 240.091 150.847 240.055 149.202C240.136 147.732 239.92 146.26 239.42 144.875C238.921 143.49 238.148 142.218 237.147 141.137C236.146 140.055 234.938 139.185 233.594 138.578C232.25 137.971 230.797 137.64 229.323 137.604Z" fill="#B51A65"/>
</g>
<defs>
<clipPath id="clip0_23_3">
<rect width="276" height="161" fill="white"/>
</clipPath>
</defs>
</svg>
