<svg width="439" height="241" viewBox="0 0 439 241" fill="none" xmlns="http://www.w3.org/2000/svg">
<g clip-path="url(#clip0_23_52)">
<path d="M51.3595 240.282H38.6781L20.6141 216.028H12.3995V240.282H1.1272V168.606H22.3895C31.8583 168.606 37.3677 172.479 40.2703 175.761C44.205 180.38 46.2704 186.303 46.0615 192.366C46.256 198.402 44.191 204.293 40.2703 208.887C38.0039 211.389 35.1454 213.283 31.957 214.394L51.3595 240.282ZM22.4742 205.986C27.1099 205.986 30.5902 204.577 32.8165 202.127C35.5218 199.225 36.0009 195.169 36.0009 192.366C36.0009 189.563 35.5218 185.422 32.8165 182.507C30.5902 180 27.1804 178.732 22.4742 178.732H12.4277V205.972L22.4742 205.986Z" stroke="#5B5DA9" stroke-width="1.03" stroke-miterlimit="10"/>
<path d="M71.3678 197.775H97.5618V207.915H71.3678V230.141H103.156V240.282H60.166V168.606H103.156V178.662H71.3678V197.775Z" stroke="#5B5DA9" stroke-width="1.03" stroke-miterlimit="10"/>
<path d="M168.38 213.225V232.648L165.872 234.38C165.773 234.38 165.773 234.38 165.675 234.479C165.572 234.583 165.439 234.651 165.294 234.676C165.221 234.771 165.116 234.836 164.998 234.859C164.953 234.918 164.896 234.966 164.83 235C164.764 235.034 164.692 235.053 164.618 235.056C164.505 235.177 164.371 235.278 164.223 235.352C164.139 235.451 164.04 235.451 163.942 235.549C163.843 235.648 163.744 235.634 163.646 235.732C163.547 235.831 163.364 235.831 163.167 235.93C162.969 236.028 162.969 236.028 162.871 236.127C162.741 236.248 162.569 236.314 162.392 236.31L162.194 236.507H162.011C161.861 236.627 161.695 236.727 161.518 236.803C161.335 236.901 161.039 236.986 160.842 237.085L160.743 237.183C156.684 238.989 152.329 240.039 147.893 240.282H146.061C142.227 240.301 138.416 239.677 134.789 238.437H134.69C134.309 238.338 134.014 238.155 133.633 238.056L132.224 237.479C131.01 237.011 129.845 236.426 128.744 235.732C125.803 234.17 123.13 232.149 120.825 229.747C117.524 226.492 114.896 222.62 113.089 218.352C111.687 215.063 110.808 211.575 110.483 208.014C110.384 206.859 110.285 205.606 110.285 204.437V202.606C110.543 198.421 111.496 194.309 113.103 190.437C114.931 186.18 117.557 182.312 120.839 179.042C124.077 175.746 127.957 173.148 132.238 171.409C136.625 169.505 141.363 168.545 146.145 168.592H147.977C148.272 168.575 148.567 168.608 148.851 168.69C153.022 168.966 157.111 169.982 160.926 171.69C160.926 171.716 160.937 171.741 160.955 171.76C160.974 171.778 160.999 171.789 161.025 171.789L161.603 172.07H161.701V185.31C160.226 184.079 158.603 183.038 156.868 182.211C155.44 181.538 153.954 180.991 152.43 180.577C152.376 180.584 152.322 180.578 152.271 180.561C152.22 180.544 152.173 180.516 152.134 180.479H151.852C151.753 180.38 151.655 180.38 151.457 180.38C151.386 180.372 151.321 180.337 151.274 180.282C150.88 180.183 150.401 180.183 150.02 180.085H149.823C149.724 180.085 149.527 180 149.429 180H149.245C149.106 180.015 148.967 179.98 148.851 179.901H147.977C147.893 179.901 147.794 179.803 147.695 179.803H146.145C141.676 179.757 137.284 180.962 133.464 183.282C133.316 183.394 133.155 183.489 132.985 183.563C131.43 184.534 130.009 185.703 128.758 187.042C128.316 187.435 127.897 187.854 127.504 188.296C127.504 188.322 127.493 188.347 127.475 188.366C127.456 188.384 127.431 188.394 127.405 188.394C126.952 188.95 126.533 189.534 126.151 190.141L125.954 190.324L125.376 191.197C125.275 191.303 125.207 191.434 125.179 191.577C123.764 193.836 122.753 196.324 122.192 198.93C122.093 199.014 122.093 199.014 122.093 199.113C121.896 200.085 121.699 201.042 121.6 202.014V203.07C121.527 203.536 121.498 204.008 121.515 204.479C121.505 204.903 121.533 205.327 121.6 205.746C121.698 207.575 121.991 209.388 122.474 211.155C123.616 215.206 125.78 218.897 128.758 221.873C131.035 224.167 133.743 225.988 136.728 227.231C139.712 228.473 142.913 229.113 146.145 229.113H146.822C146.875 229.119 146.93 229.114 146.981 229.096C147.032 229.079 147.079 229.051 147.118 229.014H148.527C148.527 228.916 148.625 228.916 148.71 228.916H149.288C149.978 228.831 150.697 228.634 151.415 228.535C151.514 228.535 151.514 228.535 151.612 228.437C151.711 228.338 151.908 228.437 151.993 228.338H152.289C152.328 228.301 152.375 228.273 152.426 228.256C152.477 228.239 152.531 228.233 152.585 228.239C152.699 228.17 152.833 228.141 152.965 228.155C153.04 228.145 153.11 228.11 153.163 228.056C154.533 227.68 155.86 227.161 157.122 226.507H157.221V213.268H143.694V203.127H168.422L168.38 213.225Z" stroke="#5B5DA9" stroke-width="1.03" stroke-miterlimit="10"/>
<path d="M180.174 240.282V168.606H191.446V240.282H180.174Z" stroke="#5B5DA9" stroke-width="1.03" stroke-miterlimit="10"/>
<path d="M243.848 225.887C242.683 229.464 240.566 232.657 237.724 235.123C234.881 237.59 231.422 239.236 227.715 239.887C226.285 240.164 224.831 240.297 223.375 240.282C220.485 240.291 217.619 239.766 214.921 238.732C210.206 236.797 206.102 233.624 203.042 229.549L211.934 222.606C213.688 225.124 216.135 227.081 218.979 228.239C221.056 229.102 223.347 229.308 225.545 228.831C227.223 228.595 228.808 227.915 230.133 226.859C231.459 225.804 232.478 224.413 233.083 222.831C234.056 219.549 231.829 216.662 229.8 214.718C226.616 211.732 221.346 206.606 221.008 206.268L212.215 197.958C209.684 195.604 207.789 192.648 206.706 189.366C205.732 186.425 205.668 183.259 206.523 180.282C207.448 177.138 209.299 174.345 211.835 172.268C214.301 170.195 217.262 168.798 220.43 168.211C223.973 167.455 227.658 167.724 231.054 168.986C234.873 170.528 238.234 173.02 240.819 176.225L232.026 183.268C228.349 178.817 224.587 178.817 222.558 179.211C221.389 179.382 220.288 179.864 219.37 180.608C218.453 181.351 217.753 182.329 217.344 183.437C216.95 184.845 217.048 187 220.05 189.901L232.026 201.394C233.76 203.141 235.887 205.169 237.437 206.606C240.326 209.121 242.494 212.358 243.721 215.986C244.752 219.2 244.796 222.648 243.848 225.887Z" stroke="#5B5DA9" stroke-width="1.03" stroke-miterlimit="10"/>
<path d="M300.675 178.662H280.948V240.282H269.676V178.662H249.949V168.606H300.675V178.662Z" stroke="#5B5DA9" stroke-width="1.03" stroke-miterlimit="10"/>
<path d="M361.165 240.282H348.483L330.405 216.028H322.191V240.282H310.918V168.606H332.181C341.65 168.606 347.159 172.479 350.047 175.761C353.992 180.375 356.063 186.3 355.853 192.366C356.049 198.405 353.978 204.298 350.047 208.887C347.789 211.393 344.935 213.287 341.748 214.394L361.165 240.282ZM332.28 205.986C336.915 205.986 340.396 204.577 342.608 202.127C345.313 199.225 345.806 195.169 345.806 192.366C345.806 189.563 345.313 185.422 342.608 182.507C340.396 180 336.972 178.732 332.28 178.732H322.219V205.972L332.28 205.986Z" stroke="#5B5DA9" stroke-width="1.03" stroke-miterlimit="10"/>
<path d="M388.035 237.479C383.766 235.663 379.89 233.037 376.622 229.746C373.33 226.488 370.707 222.617 368.9 218.352C367.044 213.947 366.086 209.216 366.082 204.437C366.097 199.631 367.054 194.874 368.9 190.437C370.752 186.197 373.37 182.334 376.622 179.042C379.895 175.781 383.771 173.189 388.035 171.408C392.436 169.551 397.165 168.593 401.942 168.592C406.751 168.603 411.51 169.56 415.948 171.408C420.188 173.234 424.056 175.821 427.361 179.042C430.584 182.338 433.168 186.201 434.984 190.437C436.837 194.872 437.795 199.63 437.802 204.437C437.806 209.217 436.847 213.949 434.984 218.352C433.214 222.613 430.625 226.484 427.361 229.746C424.06 232.997 420.192 235.618 415.948 237.479C411.51 239.327 406.751 240.285 401.942 240.296C397.165 240.294 392.436 239.336 388.035 237.479ZM384.555 187.056C382.258 189.331 380.434 192.038 379.188 195.021C377.943 198.004 377.301 201.204 377.298 204.437C377.299 207.671 377.941 210.874 379.187 213.859C380.432 216.844 382.257 219.554 384.555 221.831C386.831 224.125 389.54 225.946 392.524 227.188C395.509 228.431 398.709 229.071 401.942 229.07C405.175 229.071 408.376 228.431 411.36 227.188C414.344 225.946 417.053 224.125 419.33 221.831C421.63 219.556 423.456 216.847 424.702 213.861C425.948 210.875 426.588 207.672 426.586 204.437C426.587 201.204 425.946 198.003 424.7 195.02C423.455 192.036 421.629 189.33 419.33 187.056C417.053 184.762 414.344 182.941 411.36 181.699C408.376 180.456 405.175 179.817 401.942 179.817C398.709 179.817 395.509 180.456 392.524 181.699C389.54 182.941 386.831 184.762 384.555 187.056Z" stroke="#5B5DA9" stroke-width="1.03" stroke-miterlimit="10"/>
<path d="M51.3595 156.38H38.6781L20.6141 132.141H12.3995V156.38H1.1272V84.7183H22.3895C31.8583 84.7183 37.3677 88.5915 40.2703 91.8732C44.2456 96.4762 46.3519 102.401 46.1741 108.479C46.3687 114.514 44.3037 120.406 40.383 125C38.1165 127.502 35.2581 129.396 32.0696 130.507L51.3595 156.38ZM22.4742 122.099C27.1099 122.099 30.5902 120.69 32.8165 118.239C35.5218 115.338 36.0009 111.282 36.0009 108.479C36.0009 105.676 35.5218 101.535 32.8165 98.6197C30.5902 96.1126 27.1804 94.845 22.4742 94.845H12.4277V122.085L22.4742 122.099Z" stroke="#5B5DA9" stroke-width="1.72" stroke-miterlimit="10"/>
<path d="M71.3678 113.887H97.5618V124.028H71.3678V146.239H103.156V156.38H60.166V84.7183H103.156V94.7746H71.3678V113.887Z" stroke="#5B5DA9" stroke-width="1.72" stroke-miterlimit="10"/>
<path d="M168.38 129.338V148.761L165.872 150.493C165.773 150.493 165.773 150.493 165.675 150.592C165.572 150.695 165.439 150.764 165.294 150.789C165.221 150.884 165.116 150.949 164.998 150.972C164.953 151.03 164.896 151.079 164.83 151.113C164.764 151.147 164.692 151.166 164.618 151.169C164.505 151.29 164.371 151.39 164.223 151.465C164.139 151.563 164.04 151.563 163.942 151.648C163.843 151.732 163.744 151.747 163.646 151.845C163.547 151.944 163.364 151.944 163.167 152.042C162.969 152.141 162.969 152.141 162.871 152.239C162.738 152.355 162.568 152.42 162.392 152.423L162.194 152.62H162.011C161.861 152.74 161.695 152.839 161.518 152.916C161.335 153 161.039 153.099 160.842 153.197L160.743 153.296C156.685 155.104 152.329 156.149 147.893 156.38H146.061C142.228 156.404 138.417 155.785 134.789 154.549H134.69C134.309 154.451 134.014 154.268 133.633 154.169L132.224 153.592C131.01 153.123 129.845 152.539 128.744 151.845C125.806 150.278 123.134 148.258 120.825 145.859C117.524 142.605 114.896 138.733 113.089 134.465C111.687 131.175 110.808 127.687 110.483 124.127C110.384 122.972 110.285 121.718 110.285 120.549V118.718C110.543 114.534 111.496 110.421 113.103 106.549C114.931 102.292 117.557 98.4246 120.839 95.155C124.077 91.8585 127.957 89.2603 132.238 87.5211C136.625 85.6173 141.363 84.6575 146.145 84.7042H147.977C148.272 84.6874 148.567 84.7207 148.851 84.8028C153.022 85.0786 157.111 86.0945 160.926 87.8028C160.926 87.8157 160.929 87.8286 160.934 87.8405C160.939 87.8525 160.946 87.8634 160.955 87.8725C160.964 87.8817 160.975 87.889 160.987 87.8939C160.999 87.8989 161.012 87.9014 161.025 87.9014L161.603 88.1831H161.701V101.423C160.226 100.192 158.603 99.1508 156.868 98.324C155.44 97.6501 153.954 97.1034 152.43 96.6901C152.376 96.6965 152.322 96.6909 152.271 96.6739C152.22 96.6568 152.173 96.6287 152.134 96.5915H151.852C151.753 96.4929 151.655 96.493 151.457 96.493C151.386 96.4847 151.321 96.4494 151.274 96.3944C150.88 96.2958 150.401 96.2958 150.02 96.1972H149.823C149.724 96.1972 149.527 96.1127 149.429 96.1127H149.245C149.106 96.1274 148.967 96.0925 148.851 96.0141H147.977C147.893 96.0141 147.794 95.9155 147.695 95.9155H146.145C141.676 95.8699 137.284 97.0749 133.464 99.3944C133.316 99.5067 133.155 99.6011 132.985 99.676C131.43 100.646 130.009 101.816 128.758 103.155C128.316 103.548 127.897 103.966 127.504 104.408C127.504 104.435 127.493 104.46 127.475 104.478C127.456 104.497 127.431 104.507 127.405 104.507C126.952 105.063 126.533 105.646 126.151 106.254L125.954 106.437L125.376 107.31C125.275 107.415 125.207 107.547 125.179 107.69C123.764 109.949 122.753 112.437 122.192 115.042C122.093 115.127 122.093 115.127 122.093 115.225C121.896 116.197 121.699 117.155 121.6 118.127V119.183C121.527 119.649 121.498 120.12 121.515 120.592C121.505 121.016 121.533 121.44 121.6 121.859C121.698 123.688 121.991 125.501 122.474 127.268C123.616 131.319 125.78 135.01 128.758 137.986C131.035 140.28 133.743 142.101 136.728 143.343C139.712 144.586 142.913 145.226 146.145 145.225H146.822C146.875 145.232 146.93 145.226 146.981 145.209C147.032 145.192 147.079 145.164 147.118 145.127H148.527C148.527 145.028 148.625 145.028 148.71 145.028H149.288C149.978 144.93 150.697 144.747 151.415 144.648C151.514 144.648 151.514 144.648 151.612 144.549C151.711 144.451 151.908 144.549 151.993 144.451H152.289C152.328 144.414 152.375 144.385 152.426 144.368C152.477 144.351 152.531 144.346 152.585 144.352C152.669 144.254 152.867 144.254 152.965 144.254C153.038 144.246 153.107 144.216 153.163 144.169C154.533 143.793 155.86 143.274 157.122 142.62H157.221V129.38H143.694V119.239H168.422L168.38 129.338Z" stroke="#5B5DA9" stroke-width="1.72" stroke-miterlimit="10"/>
<path d="M180.174 156.38V84.7183H191.446V156.38H180.174Z" stroke="#5B5DA9" stroke-width="1.72" stroke-miterlimit="10"/>
<path d="M243.848 142C242.68 145.576 240.562 148.767 237.721 151.233C234.879 153.698 231.42 155.346 227.715 156C226.285 156.273 224.831 156.4 223.375 156.38C220.486 156.395 217.62 155.874 214.921 154.845C210.209 152.904 206.106 149.733 203.042 145.662L211.934 138.718C213.688 141.237 216.135 143.194 218.979 144.352C221.056 145.217 223.349 145.419 225.545 144.93C227.223 144.698 228.807 144.021 230.133 142.968C231.46 141.915 232.478 140.525 233.083 138.944C234.056 135.662 231.829 132.76 229.8 130.831C226.616 127.845 221.346 122.718 221.008 122.38L212.215 114.07C209.684 111.716 207.789 108.761 206.706 105.479C205.732 102.538 205.668 99.372 206.523 96.3943C207.448 93.2502 209.299 90.4575 211.835 88.3803C214.301 86.3079 217.262 84.9103 220.43 84.3239C223.973 83.5678 227.658 83.8365 231.054 85.0985C234.873 86.6405 238.234 89.1325 240.819 92.338L232.026 99.3803C228.349 94.9296 224.587 94.9295 222.558 95.3239C221.397 95.4881 220.301 95.96 219.384 96.6907C218.467 97.4213 217.763 98.3841 217.344 99.4789C216.95 100.887 217.048 103.042 220.05 105.944L232.026 117.437C233.76 119.183 235.887 121.211 237.437 122.648C240.326 125.163 242.494 128.401 243.721 132.028C244.766 135.264 244.81 138.739 243.848 142Z" stroke="#5B5DA9" stroke-width="1.72" stroke-miterlimit="10"/>
<path d="M300.675 94.7746H280.948V156.38H269.676V94.7746H249.949V84.7183H300.675V94.7746Z" stroke="#5B5DA9" stroke-width="1.72" stroke-miterlimit="10"/>
<path d="M361.165 156.38H348.483L330.405 132.141H322.191V156.38H310.918V84.7183H332.181C341.65 84.7183 347.159 88.5915 350.047 91.8732C353.992 96.4879 356.063 102.413 355.853 108.479C356.049 114.517 353.978 120.41 350.047 125C347.789 127.505 344.935 129.4 341.748 130.507L361.165 156.38ZM332.28 122.099C336.915 122.099 340.396 120.69 342.608 118.239C345.313 115.338 345.806 111.282 345.806 108.479C345.806 105.676 345.313 101.535 342.608 98.6197C340.396 96.1126 336.972 94.845 332.28 94.845H322.219V122.085L332.28 122.099Z" stroke="#5B5DA9" stroke-width="1.72" stroke-miterlimit="10"/>
<path d="M388.035 153.592C383.766 151.776 379.89 149.15 376.622 145.859C373.33 142.6 370.707 138.73 368.9 134.465C367.044 130.06 366.086 125.329 366.082 120.549C366.097 115.743 367.054 110.987 368.9 106.549C370.752 102.309 373.37 98.4468 376.622 95.1549C379.891 91.8897 383.768 89.2962 388.035 87.5211C392.436 85.6637 397.165 84.7059 401.942 84.7042C406.751 84.7153 411.51 85.6724 415.948 87.5211C420.191 89.3411 424.06 91.9292 427.361 95.1549C430.584 98.4505 433.168 102.314 434.984 106.549C436.837 110.985 437.795 115.743 437.802 120.549C437.806 125.33 436.847 130.062 434.984 134.465C433.214 138.725 430.625 142.597 427.361 145.859C424.06 149.11 420.192 151.73 415.948 153.592C411.51 155.44 406.751 156.397 401.942 156.408C397.165 156.407 392.436 155.449 388.035 153.592ZM384.555 103.169C382.258 105.444 380.434 108.151 379.188 111.134C377.943 114.117 377.301 117.317 377.298 120.549C377.299 123.784 377.941 126.986 379.187 129.972C380.432 132.957 382.257 135.666 384.555 137.944C386.831 140.238 389.54 142.059 392.524 143.301C395.509 144.544 398.709 145.183 401.942 145.183C405.175 145.183 408.376 144.544 411.36 143.301C414.344 142.059 417.053 140.238 419.33 137.944C421.63 135.668 423.456 132.959 424.702 129.973C425.948 126.988 426.588 123.784 426.586 120.549C426.587 117.316 425.946 114.116 424.7 111.132C423.455 108.149 421.629 105.442 419.33 103.169C417.053 100.875 414.344 99.054 411.36 97.8115C408.376 96.569 405.175 95.9293 401.942 95.9296C398.709 95.9293 395.509 96.569 392.524 97.8115C389.54 99.054 386.831 100.875 384.555 103.169Z" stroke="#5B5DA9" stroke-width="1.72" stroke-miterlimit="10"/>
<path d="M51.3595 73.7887H38.6781L20.6141 49.5352H12.3995V73.7887H1.1272V2.11267H22.3895C31.8583 2.11267 37.3677 5.98585 40.2703 9.26754C44.205 13.8871 46.2704 19.8098 46.0615 25.8732C46.256 31.9089 44.191 37.8 40.2703 42.3943C38.0039 44.8964 35.1454 46.79 31.957 47.9014L51.3595 73.7887ZM22.4742 39.4929C27.1099 39.4929 30.5902 38.0845 32.8165 35.6338C35.5218 32.7324 36.0009 28.676 36.0009 25.8732C36.0009 23.0704 35.5218 18.9296 32.8165 16.0141C30.5902 13.507 27.1804 12.2535 22.4742 12.2535H12.4277V39.4788L22.4742 39.4929Z" fill="#5B5DA9" stroke="#5B5DA9" stroke-width="1.72" stroke-miterlimit="10"/>
<path d="M71.3678 31.2816H97.5618V41.4225H71.3678V63.6479H103.156V73.7887H60.166V2.11267H103.156V12.1689H71.3678V31.2816Z" fill="#5B5DA9" stroke="#5B5DA9" stroke-width="1.72" stroke-miterlimit="10"/>
<path d="M168.38 46.7465V66.1549L165.872 67.8874C165.773 67.8874 165.773 67.8873 165.675 67.9859C165.572 68.0895 165.439 68.1584 165.294 68.1831C165.196 68.2817 165.097 68.3803 164.998 68.3803C164.95 68.4344 164.892 68.4784 164.826 68.5098C164.761 68.5413 164.69 68.5594 164.618 68.5634C164.505 68.6844 164.371 68.7845 164.223 68.8591C164.139 68.9577 164.04 68.9577 163.942 69.0563C163.843 69.1549 163.744 69.1408 163.646 69.2394C163.547 69.338 163.364 69.338 163.167 69.4366C162.969 69.5352 162.969 69.5352 162.871 69.6338C162.741 69.7554 162.569 69.8211 162.392 69.8169L162.194 70.014H162.011C161.861 70.1342 161.695 70.2337 161.518 70.3099C161.335 70.4084 161.039 70.493 160.842 70.5916L160.743 70.6902C156.684 72.496 152.329 73.5461 147.893 73.7887H146.061C142.227 73.8078 138.416 73.1842 134.789 71.9436H134.69C134.309 71.845 134.014 71.662 133.633 71.5634L132.224 70.9859C131.01 70.5178 129.845 69.9329 128.744 69.2394C125.8 67.6823 123.126 65.6611 120.825 63.2535C117.521 60.0013 114.893 56.1292 113.089 51.8592C111.687 48.5698 110.808 45.0818 110.483 41.5211C110.384 40.3662 110.285 39.1127 110.285 37.9578V36.1126C110.545 31.9284 111.497 27.8163 113.103 23.9437C114.934 19.6888 117.56 15.8216 120.839 12.5493C124.077 9.25278 127.957 6.65474 132.238 4.91549C136.625 3.01169 141.363 2.05193 146.145 2.09859H147.977C148.272 2.08178 148.567 2.11513 148.851 2.1972C153.022 2.47304 157.111 3.48889 160.926 5.1972C160.926 5.22335 160.937 5.24843 160.955 5.26692C160.974 5.28541 160.999 5.2958 161.025 5.2958L161.603 5.57743H161.701V18.8169C160.226 17.5861 158.603 16.5451 156.868 15.7183C155.44 15.0445 153.954 14.4978 152.43 14.0845C152.376 14.0909 152.322 14.0853 152.271 14.0683C152.22 14.0512 152.173 14.0231 152.134 13.9859H151.852C151.753 13.8873 151.655 13.8873 151.457 13.8873C151.386 13.879 151.321 13.8437 151.274 13.7887C150.88 13.6901 150.401 13.6901 150.02 13.6056H149.823C149.724 13.6056 149.527 13.507 149.429 13.507H149.245C149.106 13.5218 148.967 13.4868 148.851 13.4084H147.977C147.893 13.4084 147.794 13.3099 147.695 13.3099H146.145C141.676 13.2643 137.284 14.4693 133.464 16.7887C133.319 16.9059 133.158 17.0009 132.985 17.0704C131.43 18.0406 130.009 19.2102 128.758 20.5493C128.316 20.9421 127.897 21.3607 127.504 21.8028C127.504 21.829 127.493 21.854 127.475 21.8725C127.456 21.891 127.431 21.9014 127.405 21.9014C126.955 22.4597 126.536 23.0428 126.151 23.6479L125.954 23.831C125.757 24.1268 125.573 24.4225 125.376 24.7042C125.272 24.8128 125.203 24.9503 125.179 25.0986C123.764 27.3526 122.753 29.8357 122.192 32.4366C122.093 32.5352 122.093 32.5352 122.093 32.6197C121.896 33.5915 121.699 34.5634 121.6 35.5211V36.5915C121.526 37.0571 121.497 37.5289 121.515 38C121.505 38.4195 121.533 38.8392 121.6 39.2535C121.698 41.0822 121.991 42.8952 122.474 44.6619C123.616 48.7134 125.78 52.404 128.758 55.3803C131.035 57.6745 133.743 59.4953 136.728 60.7378C139.712 61.9803 142.913 62.6199 146.145 62.6197H146.822C146.875 62.626 146.93 62.6205 146.981 62.6034C147.032 62.5864 147.079 62.5583 147.118 62.5211H148.527C148.527 62.4225 148.625 62.4226 148.71 62.4226H149.288C149.978 62.3381 150.697 62.1408 151.415 62.0423C151.514 62.0423 151.514 62.0422 151.612 61.9437C151.711 61.8451 151.908 61.9436 151.993 61.8451H152.289C152.328 61.8079 152.375 61.7797 152.426 61.7627C152.477 61.7457 152.531 61.7401 152.585 61.7464C152.699 61.6772 152.833 61.6475 152.965 61.6619C153.04 61.652 153.11 61.6173 153.163 61.5633C154.533 61.1872 155.86 60.668 157.122 60.0141H157.221V46.7887H143.694V36.6478H168.422L168.38 46.7465Z" fill="#5B5DA9" stroke="#5B5DA9" stroke-width="1.72" stroke-miterlimit="10"/>
<path d="M180.174 73.7887V2.11267H191.446V73.7887H180.174Z" fill="#5B5DA9" stroke="#5B5DA9" stroke-width="1.72" stroke-miterlimit="10"/>
<path d="M243.848 59.3943C242.683 62.9715 240.566 66.1643 237.724 68.6305C234.881 71.0967 231.422 72.7435 227.715 73.3943C226.285 73.6715 224.831 73.8036 223.375 73.7887C220.485 73.7983 217.619 73.2731 214.921 72.2394C210.206 70.3037 206.102 67.1309 203.042 63.0563L211.934 56.1126C213.688 58.6314 216.135 60.5882 218.979 61.7464C221.056 62.6088 223.347 62.8153 225.545 62.338C227.223 62.1025 228.808 61.4216 230.133 60.3664C231.459 59.3112 232.478 57.9202 233.083 56.338C234.056 53.0563 231.829 50.169 229.8 48.2253C226.616 45.2394 221.346 40.1127 221.008 39.7746L212.215 31.4647C209.684 29.1107 207.789 26.1554 206.706 22.8732C205.732 19.9324 205.668 16.7663 206.523 13.7887C207.448 10.6445 209.299 7.85182 211.835 5.77461C214.301 3.70229 217.262 2.30467 220.43 1.71826C223.973 0.962164 227.658 1.23085 231.054 2.4929C234.873 4.03482 238.234 6.52685 240.819 9.73235L232.026 16.7746C228.349 12.338 224.587 12.338 222.558 12.7183C221.389 12.8887 220.288 13.3711 219.37 14.1148C218.453 14.8584 217.753 15.8357 217.344 16.9436C216.95 18.3521 217.048 20.5211 220.05 23.4084L232.026 34.9014C233.76 36.6478 235.887 38.676 237.437 40.1267C240.328 42.6345 242.497 45.8676 243.721 49.4929C244.752 52.7067 244.796 56.1552 243.848 59.3943Z" fill="#5B5DA9" stroke="#5B5DA9" stroke-width="1.72" stroke-miterlimit="10"/>
<path d="M300.675 12.1689H280.948V73.7887H269.676V12.1689H249.949V2.11267H300.675V12.1689Z" fill="#5B5DA9" stroke="#5B5DA9" stroke-width="1.72" stroke-miterlimit="10"/>
<path d="M361.165 73.7887H348.483L330.405 49.5352H322.191V73.7887H310.918V2.11267H332.181C341.65 2.11267 347.159 5.98585 350.047 9.26754C353.992 13.8823 356.063 19.8071 355.853 25.8732C356.049 31.9116 353.978 37.8048 350.047 42.3943C347.789 44.8996 344.935 46.7939 341.748 47.9014L361.165 73.7887ZM332.28 39.4929C336.915 39.4929 340.396 38.0845 342.608 35.6338C345.313 32.7324 345.806 28.676 345.806 25.8732C345.806 23.0704 345.313 18.9296 342.608 16.0141C340.396 13.507 336.972 12.2535 332.28 12.2535H322.219V39.4788L332.28 39.4929Z" fill="#5B5DA9" stroke="#5B5DA9" stroke-width="1.72" stroke-miterlimit="10"/>
<path d="M388.035 70.9859C383.766 69.1703 379.89 66.5443 376.622 63.2535C373.327 59.9972 370.703 56.1259 368.9 51.8592C367.045 47.4589 366.087 42.7328 366.082 37.9578C366.095 33.1471 367.053 28.3857 368.9 23.9437C370.756 19.7056 373.373 15.8435 376.622 12.5493C379.895 9.28848 383.771 6.69569 388.035 4.91547C392.436 3.0581 397.165 2.10032 401.942 2.09857C406.751 2.10969 411.51 3.06686 415.948 4.91547C420.188 6.74056 424.056 9.32801 427.361 12.5493C430.581 15.8473 433.165 19.7099 434.984 23.9437C436.839 28.3836 437.796 33.1464 437.802 37.9578C437.804 42.7335 436.846 47.4609 434.984 51.8592C433.217 56.121 430.627 59.9928 427.361 63.2535C424.06 66.5043 420.192 69.1248 415.948 70.9859C411.51 72.8345 406.751 73.7916 401.942 73.8028C397.165 73.801 392.436 72.8432 388.035 70.9859ZM384.555 20.5633C382.262 22.8355 380.44 25.5381 379.195 28.5159C377.95 31.4937 377.305 34.688 377.298 37.9155C377.301 41.1478 377.943 44.3476 379.188 47.3306C380.434 50.3136 382.258 53.0207 384.555 55.2958C386.831 57.5899 389.54 59.4108 392.524 60.6533C395.509 61.8958 398.709 62.5354 401.942 62.5352C405.175 62.5354 408.376 61.8958 411.36 60.6533C414.344 59.4108 417.053 57.5899 419.33 55.2958C421.634 53.0249 423.465 50.3193 424.716 47.3358C425.966 44.3523 426.612 41.1502 426.615 37.9155C426.616 34.6804 425.976 31.4772 424.73 28.4914C423.485 25.5055 421.659 22.7965 419.358 20.5211C417.081 18.227 414.373 16.4061 411.388 15.1635C408.404 13.921 405.203 13.2815 401.97 13.2817C398.73 13.2833 395.522 13.9277 392.532 15.1776C389.543 16.4276 386.831 18.2582 384.555 20.5633Z" fill="#5B5DA9" stroke="#5B5DA9" stroke-width="1.72" stroke-miterlimit="10"/>
</g>
<defs>
<clipPath id="clip0_23_52">
<rect width="439" height="241" fill="white"/>
</clipPath>
</defs>
</svg>
