<?xml version="1.0" encoding="utf-8"?>
<!-- Generator: Adobe Illustrator 25.4.1, SVG Export Plug-In . SVG Version: 6.00 Build 0)  -->
<svg version="1.1" id="Capa_1" xmlns="http://www.w3.org/2000/svg" xmlns:xlink="http://www.w3.org/1999/xlink" x="0px" y="0px"
	 viewBox="0 0 190 55" style="enable-background:new 0 0 190 55;" xml:space="preserve">
<style type="text/css">
	.st0{fill:none;stroke:#5E61B5;stroke-width:3;}
	.st1{fill:#5E61B5;}
</style>
<path class="st0" d="M27,1.5h136c14.1,0,25.5,11.4,25.5,25.5v1c0,14.1-11.4,25.5-25.5,25.5H27C12.9,53.5,1.5,42.1,1.5,28v-1
	C1.5,12.9,12.9,1.5,27,1.5z"/>
<g>
	<path class="st1" d="M21.2,40.2c-2.4-0.1-4.9-1-7.5-2.8l2.1-3c2,1.4,3.9,2.1,5.6,2.2c1.3,0.1,2.4-0.3,3.3-1
		c0.7-0.5,1.1-1.3,1.4-2.1c0.2-0.8,0.2-1.6-0.2-2.4c-0.4-0.9-1.2-1.6-2.3-2c-1.5-0.6-3.5-0.8-5.8-0.4l-2.4,0.3l1.5-12.1H28v3.6h-7.9
		l-0.5,4.3c2.1-0.1,3.8,0.3,5.4,0.9c2,0.8,3.5,2.2,4.2,3.9c1.3,3,0.4,6.6-2.2,8.8c-1.5,1.2-3.3,1.9-5.4,1.9
		C21.5,40.2,21.3,40.2,21.2,40.2z"/>
	<path class="st1" d="M61,28.5c0,3.3-1,6.2-2.8,8.2c-1,1.1-2.3,2-3.8,2.6c-1.5,0.6-3.2,0.9-5.1,0.9H45h-1.2V16.8h3.7h1.9
		c1.9,0,3.6,0.3,5.1,0.9c1.5,0.6,2.7,1.5,3.8,2.6C60.1,22.4,61,25.2,61,28.5z M57.4,28.5c0-2.4-0.7-4.4-1.9-5.7
		c-1.4-1.5-3.4-2.3-6.2-2.3h-1.9v16.1h1.9c2.7,0,4.8-0.8,6.2-2.3C56.7,32.9,57.4,30.9,57.4,28.5z"/>
	<path class="st1" d="M68.7,26.3h8.5v3.3h-8.5v7.3h10.4v3.3H68.7h-3.6V16.8h3.6h10.4v3.3H68.7V26.3z"/>
	<path class="st1" d="M101.5,32.3c0,3.2-1.5,5-2.6,6.1c-1.5,1.2-3.5,1.9-5.7,1.9c-0.5,0-1,0-1.5-0.1v-3.8c0.5,0.1,1,0.2,1.5,0.2
		c1.4,0,2.5-0.4,3.3-1c0.9-0.7,1.3-1.8,1.3-3.2V16.8h3.7V32.3z"/>
	<path class="st1" d="M108.8,38.4c-0.9-0.7-1.6-1.5-2.1-2.5c-0.5-1.1-0.8-2.3-0.8-3.6V16.8h3.7v15.5c0,1.4,0.5,2.5,1.5,3.2
		c0.9,0.7,2.2,1.1,3.6,1.1c1.4,0,2.6-0.4,3.6-1.1c0.9-0.7,1.4-1.8,1.4-3.2V16.8h3.7v15.5c0,1.3-0.3,2.5-0.8,3.6
		c-0.5,1-1.2,1.8-2.1,2.5c-1.5,1.2-3.6,1.9-5.8,1.9C112.4,40.2,110.3,39.5,108.8,38.4z"/>
	<path class="st1" d="M141.4,40.2h-9.8h-3.6V16.8h3.7v20.1h9.8V40.2z"/>
	<path class="st1" d="M144.1,40.2V16.8h3.7v23.4H144.1z"/>
	<path class="st1" d="M159,39.3c-1.4-0.6-2.6-1.5-3.7-2.5s-1.9-2.3-2.5-3.7c-0.6-1.4-0.9-3-0.9-4.5s0.3-3.1,0.9-4.6
		c0.6-1.4,1.5-2.6,2.5-3.7c1.1-1.1,2.3-1.9,3.7-2.5c1.4-0.6,3-0.9,4.5-0.9s3.1,0.3,4.6,0.9c1.4,0.6,2.6,1.4,3.7,2.5
		c1.1,1.1,1.9,2.3,2.5,3.7c0.6,1.5,0.9,3,0.9,4.6s-0.3,3.1-0.9,4.5c-0.6,1.4-1.4,2.6-2.5,3.7c-1.1,1.1-2.3,1.9-3.7,2.5
		c-1.5,0.6-3,0.9-4.6,0.9S160.4,39.9,159,39.3z M157.8,22.8c-1.5,1.5-2.4,3.5-2.4,5.7s0.9,4.2,2.4,5.7c1.5,1.5,3.5,2.4,5.7,2.4
		s4.2-0.9,5.7-2.4c1.5-1.5,2.4-3.5,2.4-5.7s-0.9-4.2-2.4-5.7c-1.5-1.5-3.5-2.4-5.7-2.4S159.4,21.3,157.8,22.8z"/>
</g>
</svg>
