<svg width="190" height="55" viewBox="0 0 190 55" fill="none" xmlns="http://www.w3.org/2000/svg">
<rect x="1.5" y="1.5" width="187" height="52" rx="25.5" stroke="#5E61B5" stroke-width="3"/>
<path d="M31.1799 27.18C30.2799 26.22 28.6299 25.11 25.8399 25.11C24.6099 25.11 23.4399 25.35 22.4499 25.83C22.7799 24.81 23.2299 23.85 23.8299 23.01C24.5499 21.99 25.3899 21.24 26.3199 20.79C27.3099 20.28 28.4199 20.1 29.6199 20.28V16.77C27.9099 16.62 26.2599 16.92 24.7599 17.67C23.2899 18.39 22.0299 19.53 20.9799 21C18.1299 25.08 17.4999 31.08 19.5399 35.01C20.8599 37.59 23.1699 39 26.0499 39C28.0599 39 29.8899 38.16 31.1799 36.66C32.3199 35.34 32.9499 33.57 32.9499 31.8C32.9499 30 32.3199 28.38 31.1799 27.18ZM28.5399 34.41C28.0899 34.92 27.3099 35.52 26.0499 35.52C24.4899 35.52 23.3499 34.83 22.6299 33.42C22.3299 32.85 22.1199 32.19 21.9999 31.47C22.0599 31.2 22.2699 30.66 22.6299 30.12C23.3499 29.1 24.3999 28.59 25.8399 28.59C27.0999 28.59 28.0299 28.92 28.6599 29.58C29.1999 30.12 29.4699 30.9 29.4699 31.8C29.4699 32.76 29.1399 33.69 28.5399 34.41ZM59.363 20.07C58.403 18.99 57.203 18.15 55.793 17.61C54.353 17.01 52.733 16.74 50.933 16.74H49.133H45.653V39H46.823H50.933C52.733 39 54.353 38.7 55.793 38.13C57.203 37.59 58.403 36.75 59.363 35.67C61.133 33.72 62.063 31.02 62.063 27.87C62.063 24.72 61.133 22.02 59.363 20.07ZM56.783 33.33C55.463 34.77 53.513 35.52 50.933 35.52H49.133V20.22H50.933C53.513 20.22 55.463 20.94 56.783 22.41C57.953 23.7 58.583 25.59 58.583 27.87C58.583 30.12 57.953 32.04 56.783 33.33ZM69.3771 19.86H79.2471V16.74H69.3471H65.8971V39H69.3471H79.2471V35.85H69.3771V28.95H77.5071V25.8H69.3771V19.86ZM100.542 16.74H97.0322V31.44C97.0322 32.79 96.6122 33.84 95.8022 34.53C95.0222 35.16 93.9122 35.52 92.6222 35.52C92.1422 35.52 91.6622 35.46 91.2122 35.34V38.91C91.6622 38.97 92.1422 39 92.6222 39C94.7222 39 96.6422 38.37 98.0222 37.2C99.1622 36.24 100.542 34.47 100.542 31.44V16.74ZM112.99 39C115.09 39 117.04 38.37 118.51 37.23C119.35 36.57 120.01 35.76 120.49 34.83C120.97 33.81 121.24 32.67 121.24 31.44V16.74H117.73V31.44C117.73 32.76 117.28 33.78 116.38 34.47C115.51 35.13 114.28 35.52 112.99 35.52C111.67 35.52 110.44 35.13 109.6 34.47C108.7 33.78 108.22 32.76 108.22 31.44V16.74H104.74V31.44C104.74 32.67 104.98 33.81 105.49 34.83C105.94 35.76 106.6 36.57 107.47 37.23C108.94 38.37 110.89 39 112.99 39ZM138.472 35.85H129.172V16.74H125.692V39H129.142H138.472V35.85ZM144.494 39V16.74H141.014V39H144.494ZM159.51 39C161.01 39 162.48 38.7 163.86 38.13C165.18 37.56 166.35 36.75 167.4 35.73C168.42 34.71 169.2 33.54 169.77 32.19C170.34 30.84 170.64 29.37 170.64 27.87C170.64 26.37 170.34 24.9 169.77 23.52C169.2 22.2 168.42 21.03 167.4 19.98C166.35 18.96 165.18 18.18 163.86 17.61C162.48 17.04 161.01 16.74 159.51 16.74C158.01 16.74 156.54 17.04 155.19 17.61C153.84 18.18 152.67 18.96 151.65 19.98C150.63 21.03 149.82 22.2 149.25 23.52C148.68 24.9 148.38 26.37 148.38 27.87C148.38 29.37 148.68 30.84 149.25 32.19C149.82 33.54 150.63 34.71 151.65 35.73C152.67 36.75 153.84 37.56 155.19 38.13C156.54 38.7 158.01 39 159.51 39ZM159.51 20.22C161.55 20.22 163.47 21.03 164.91 22.47C166.35 23.91 167.16 25.83 167.16 27.87C167.16 29.91 166.35 31.83 164.91 33.27C163.47 34.71 161.55 35.52 159.51 35.52C157.47 35.52 155.55 34.71 154.11 33.27C152.67 31.83 151.86 29.91 151.86 27.87C151.86 25.83 152.67 23.91 154.11 22.47C155.55 21.03 157.47 20.22 159.51 20.22Z" fill="#5E61B5"/>
</svg>
