<svg width="190" height="55" viewBox="0 0 190 55" fill="none" xmlns="http://www.w3.org/2000/svg">
<rect x="1.5" y="1.5" width="187" height="52" rx="25.5" stroke="#5E61B5" stroke-width="3"/>
<path d="M22.2399 39L32.4999 16.74H18.4599V20.22H27.0399L18.3999 39H22.2399ZM57.8396 20.07C56.8796 18.99 55.6796 18.15 54.2696 17.61C52.8296 17.01 51.2096 16.74 49.4096 16.74H47.6096H44.1296V39H45.2996H49.4096C51.2096 39 52.8296 38.7 54.2696 38.13C55.6796 37.59 56.8796 36.75 57.8396 35.67C59.6096 33.72 60.5396 31.02 60.5396 27.87C60.5396 24.72 59.6096 22.02 57.8396 20.07ZM55.2596 33.33C53.9396 34.77 51.9896 35.52 49.4096 35.52H47.6096V20.22H49.4096C51.9896 20.22 53.9396 20.94 55.2596 22.41C56.4296 23.7 57.0596 25.59 57.0596 27.87C57.0596 30.12 56.4296 32.04 55.2596 33.33ZM67.8537 19.86H77.7237V16.74H67.8237H64.3737V39H67.8237H77.7237V35.85H67.8537V28.95H75.9837V25.8H67.8537V19.86ZM99.0188 16.74H95.5088V31.44C95.5088 32.79 95.0888 33.84 94.2788 34.53C93.4988 35.16 92.3888 35.52 91.0988 35.52C90.6188 35.52 90.1388 35.46 89.6888 35.34V38.91C90.1388 38.97 90.6188 39 91.0988 39C93.1988 39 95.1188 38.37 96.4988 37.2C97.6388 36.24 99.0188 34.47 99.0188 31.44V16.74ZM111.466 39C113.566 39 115.516 38.37 116.986 37.23C117.826 36.57 118.486 35.76 118.966 34.83C119.446 33.81 119.716 32.67 119.716 31.44V16.74H116.206V31.44C116.206 32.76 115.756 33.78 114.856 34.47C113.986 35.13 112.756 35.52 111.466 35.52C110.146 35.52 108.916 35.13 108.076 34.47C107.176 33.78 106.696 32.76 106.696 31.44V16.74H103.216V31.44C103.216 32.67 103.456 33.81 103.966 34.83C104.416 35.76 105.076 36.57 105.946 37.23C107.416 38.37 109.366 39 111.466 39ZM136.949 35.85H127.649V16.74H124.169V39H127.619H136.949V35.85ZM142.971 39V16.74H139.491V39H142.971ZM157.987 39C159.487 39 160.957 38.7 162.337 38.13C163.657 37.56 164.827 36.75 165.877 35.73C166.897 34.71 167.677 33.54 168.247 32.19C168.817 30.84 169.117 29.37 169.117 27.87C169.117 26.37 168.817 24.9 168.247 23.52C167.677 22.2 166.897 21.03 165.877 19.98C164.827 18.96 163.657 18.18 162.337 17.61C160.957 17.04 159.487 16.74 157.987 16.74C156.487 16.74 155.017 17.04 153.667 17.61C152.317 18.18 151.147 18.96 150.127 19.98C149.107 21.03 148.297 22.2 147.727 23.52C147.157 24.9 146.857 26.37 146.857 27.87C146.857 29.37 147.157 30.84 147.727 32.19C148.297 33.54 149.107 34.71 150.127 35.73C151.147 36.75 152.317 37.56 153.667 38.13C155.017 38.7 156.487 39 157.987 39ZM157.987 20.22C160.027 20.22 161.947 21.03 163.387 22.47C164.827 23.91 165.637 25.83 165.637 27.87C165.637 29.91 164.827 31.83 163.387 33.27C161.947 34.71 160.027 35.52 157.987 35.52C155.947 35.52 154.027 34.71 152.587 33.27C151.147 31.83 150.337 29.91 150.337 27.87C150.337 25.83 151.147 23.91 152.587 22.47C154.027 21.03 155.947 20.22 157.987 20.22Z" fill="#5E61B5"/>
</svg>
