<svg width="335" height="360" viewBox="0 0 335 360" fill="none" xmlns="http://www.w3.org/2000/svg">
<g clip-path="url(#clip0_5_284)">
<path d="M33.0625 320.902H39.4397C44.5606 320.902 47.5407 322.993 49.1086 324.712C51.1992 327.009 52.2445 330.082 52.2445 333.682C52.2445 337.282 51.1992 340.411 49.1086 342.652C47.5407 344.427 44.5858 346.513 39.4397 346.513H34.0022V359.604H27.9365V320.902H33.0625ZM46.812 333.682C46.812 332.178 46.4954 329.977 45.0833 328.413C43.8319 327.059 41.9474 326.327 39.4397 326.327H34.0022V341.037H39.4397C41.9457 341.037 43.8269 340.359 45.0833 339.002C46.4954 337.438 46.812 335.246 46.812 333.682Z" stroke="#ED544B" stroke-width="1.57" stroke-miterlimit="10"/>
<path d="M84.3918 359.604H77.5422L67.7677 346.513H63.3152V359.604H57.2847V320.902H68.7879C73.9088 320.902 76.8889 322.993 78.4568 324.763C80.4971 327.009 81.5927 330.137 81.5927 333.732C81.5927 337.327 80.4971 340.411 78.4568 342.652C77.2335 344.004 75.6883 345.027 73.9641 345.625L84.3918 359.604ZM68.7627 341.088C71.2755 341.088 73.155 340.356 74.356 339.002C75.8184 337.438 76.0798 335.246 76.0798 333.732C76.0798 332.218 75.8184 329.977 74.356 328.413C73.155 327.059 71.2704 326.407 68.7627 326.407H63.3152V341.113L68.7627 341.088Z" stroke="#ED544B" stroke-width="1.57" stroke-miterlimit="10"/>
<path d="M98.9207 358.09C95.4028 356.613 92.4002 354.132 90.2894 350.96C88.1787 347.787 87.0537 344.063 87.0557 340.255C87.0553 337.659 87.5676 335.088 88.5633 332.689C89.5664 330.4 90.9838 328.314 92.7445 326.537C94.5099 324.775 96.6049 323.374 98.9106 322.416C101.298 321.419 103.861 320.907 106.449 320.912C109.049 320.913 111.624 321.425 114.027 322.416C118.685 324.351 122.388 328.043 124.329 332.689C125.323 335.089 125.835 337.659 125.837 340.255C125.841 342.837 125.329 345.394 124.329 347.776C123.369 350.077 121.965 352.167 120.198 353.928C118.415 355.684 116.323 357.098 114.027 358.1C111.625 359.094 109.049 359.605 106.449 359.604C103.863 359.606 101.303 359.092 98.9207 358.09ZM97.0412 330.864C94.8824 333.035 93.5443 335.885 93.2545 338.929C92.9646 341.974 93.741 345.024 95.4515 347.562C97.162 350.099 99.7009 351.967 102.636 352.847C105.571 353.727 108.722 353.565 111.551 352.389C114.38 351.213 116.714 349.095 118.154 346.396C119.594 343.697 120.053 340.583 119.451 337.585C118.85 334.586 117.226 331.888 114.855 329.95C112.484 328.012 109.514 326.953 106.449 326.954C104.7 326.955 102.968 327.301 101.354 327.972C99.7391 328.643 98.2735 329.626 97.0412 330.864Z" stroke="#ED544B" stroke-width="1.57" stroke-miterlimit="10"/>
<path d="M162.643 344.999V355.483L161.281 356.42C161.231 356.42 161.231 356.42 161.176 356.475C161.119 356.528 161.047 356.563 160.97 356.576C160.914 356.631 160.864 356.681 160.814 356.681C160.789 356.713 160.757 356.739 160.72 356.758C160.684 356.776 160.644 356.786 160.603 356.786C160.543 356.851 160.471 356.904 160.392 356.942C160.342 356.997 160.291 356.997 160.236 357.047C160.181 357.097 160.13 357.097 160.08 357.152C160.03 357.207 159.924 357.202 159.819 357.257C159.713 357.313 159.713 357.308 159.663 357.358C159.592 357.424 159.499 357.462 159.402 357.463L159.296 357.568H159.191C159.111 357.632 159.023 357.684 158.929 357.724C158.824 357.779 158.668 357.829 158.562 357.879L158.512 357.934C156.316 358.912 153.958 359.478 151.557 359.604H150.552C148.471 359.614 146.404 359.275 144.436 358.601H144.381C144.175 358.551 144.019 358.446 143.808 358.396L143.024 358.08C142.367 357.831 141.738 357.517 141.144 357.142C139.553 356.296 138.107 355.205 136.858 353.908C135.073 352.152 133.65 350.066 132.666 347.766C131.913 345.989 131.438 344.107 131.259 342.186C131.204 341.559 131.154 340.877 131.154 340.255V339.253C131.29 336.994 131.8 334.773 132.661 332.68C133.656 330.384 135.076 328.297 136.848 326.528C138.598 324.746 140.697 323.343 143.014 322.406C145.393 321.383 147.961 320.87 150.552 320.902H151.557C151.717 320.893 151.876 320.911 152.029 320.957C154.286 321.104 156.498 321.651 158.562 322.572C158.562 322.586 158.568 322.6 158.579 322.611C158.589 322.621 158.603 322.627 158.618 322.627L158.929 322.782H158.985V329.927C158.185 329.263 157.306 328.702 156.366 328.257C155.593 327.894 154.789 327.597 153.964 327.37C153.936 327.373 153.908 327.37 153.881 327.362C153.854 327.353 153.829 327.339 153.808 327.32H153.653C153.597 327.27 153.547 327.27 153.442 327.27C153.401 327.265 153.363 327.245 153.336 327.214C153.13 327.164 152.864 327.164 152.658 327.109H152.552C152.502 327.109 152.396 327.059 152.341 327.059H152.266C152.192 327.067 152.117 327.049 152.055 327.009H151.582C151.532 327.009 151.482 326.954 151.426 326.954H150.592C148.171 326.928 145.792 327.58 143.722 328.834C143.642 328.896 143.554 328.948 143.461 328.989C142.617 329.512 141.845 330.142 141.164 330.865C140.924 331.079 140.696 331.307 140.481 331.546C140.481 331.56 140.476 331.572 140.466 331.582C140.457 331.591 140.444 331.597 140.431 331.597C140.187 331.896 139.96 332.209 139.752 332.534L139.647 332.639L139.33 333.111C139.277 333.168 139.242 333.239 139.23 333.316C138.465 334.536 137.916 335.877 137.606 337.282C137.556 337.332 137.556 337.332 137.556 337.388C137.442 337.904 137.355 338.426 137.295 338.952V339.523C137.249 339.765 137.23 340.01 137.24 340.255C137.233 340.482 137.251 340.709 137.295 340.932C137.343 341.919 137.5 342.898 137.762 343.85C138.552 346.636 140.229 349.089 142.54 350.839C144.851 352.59 147.671 353.542 150.572 353.552H150.939C150.967 353.555 150.995 353.552 151.022 353.544C151.049 353.535 151.074 353.521 151.095 353.502H151.879C151.879 353.447 151.929 353.447 151.984 353.447H152.296C152.663 353.397 153.08 353.291 153.447 353.241C153.497 353.241 153.497 353.241 153.552 353.186C153.625 353.194 153.697 353.176 153.758 353.136H153.919C153.94 353.117 153.964 353.102 153.991 353.093C154.018 353.085 154.047 353.082 154.075 353.086C154.134 353.042 154.208 353.023 154.281 353.031C154.321 353.027 154.358 353.009 154.386 352.981C155.129 352.778 155.849 352.498 156.532 352.143H156.582V344.999H149.25V339.523H162.633L162.643 344.999Z" stroke="#ED544B" stroke-width="1.57" stroke-miterlimit="10"/>
<path d="M196.147 359.604H189.298L179.523 346.513H175.081V359.604H169.015V320.902H180.518C185.639 320.902 188.619 322.993 190.187 324.763C192.228 327.009 193.323 330.137 193.323 333.732C193.323 337.327 192.228 340.411 190.187 342.652C188.955 344.008 187.399 345.03 185.664 345.625L196.147 359.604ZM180.518 341.088C183.031 341.088 184.906 340.356 186.112 339.002C187.574 337.438 187.835 335.246 187.835 333.732C187.835 332.218 187.574 329.977 186.112 328.413C184.906 327.059 183.026 326.407 180.518 326.407H175.081V341.113L180.518 341.088Z" stroke="#ED544B" stroke-width="1.57" stroke-miterlimit="10"/>
<path d="M222.752 351.311H208.952L205.656 359.604H198.967L215.852 319.132L232.672 359.604H226.044L222.752 351.311ZM220.556 345.886L215.852 334.098L211.148 345.886H220.556Z" stroke="#ED544B" stroke-width="1.57" stroke-miterlimit="10"/>
<path d="M268.438 359.604V339.047L256.307 357.097L244.13 339.047V359.604H238.064V319.132L256.292 346.252L274.539 319.132V359.604H268.438Z" stroke="#ED544B" stroke-width="1.57" stroke-miterlimit="10"/>
<path d="M303.667 351.311H289.867L286.57 359.604H279.881L296.767 319.132L313.582 359.604H306.958L303.667 351.311ZM301.471 345.886L296.767 334.098L292.063 345.886H301.471Z" stroke="#ED544B" stroke-width="1.57" stroke-miterlimit="10"/>
<path d="M33.0625 275.612H39.4397C44.5606 275.612 47.5407 277.698 49.1086 279.422C51.1992 281.714 52.2445 284.792 52.2445 288.392C52.2445 291.992 51.1992 295.121 49.1086 297.362C47.5407 299.137 44.5858 301.223 39.4397 301.223H34.0022V314.314H27.9365V275.612H33.0625ZM46.807 288.392C46.807 286.888 46.4954 284.687 45.0833 283.123C43.8319 281.769 41.9474 281.037 39.4397 281.037H34.0022V295.742H39.4397C41.9457 295.742 43.8269 295.074 45.0833 293.737C46.4954 292.148 46.807 289.956 46.807 288.392Z" stroke="#ED544B" stroke-width="2.61" stroke-miterlimit="10"/>
<path d="M84.3918 314.314H77.5422L67.7677 301.223H63.3152V314.314H57.2847V275.612H68.7879C73.9088 275.612 76.8889 277.698 78.4568 279.472C80.4971 281.714 81.5927 284.847 81.5927 288.442C81.5927 292.037 80.4971 295.121 78.4568 297.362C77.2335 298.714 75.6883 299.737 73.9641 300.335L84.3918 314.314ZM68.7627 295.798C71.2755 295.798 73.155 295.066 74.356 293.712C75.8184 292.148 76.0798 289.956 76.0798 288.442C76.0798 286.928 75.8184 284.687 74.356 283.123C73.155 281.769 71.2704 281.092 68.7627 281.092H63.3152V295.798H68.7627Z" stroke="#ED544B" stroke-width="2.61" stroke-miterlimit="10"/>
<path d="M98.9207 312.8C95.4028 311.321 92.4004 308.84 90.2897 305.667C88.1791 302.493 87.0541 298.769 87.0557 294.96C87.0553 292.366 87.5676 289.796 88.5633 287.399C89.5651 285.109 90.9827 283.024 92.7445 281.247C94.5092 279.484 96.6044 278.083 98.9106 277.126C101.297 276.126 103.86 275.615 106.449 275.622C109.049 275.621 111.625 276.132 114.027 277.126C118.685 279.061 122.388 282.753 124.329 287.399C125.323 289.797 125.835 292.366 125.837 294.96C125.842 297.542 125.329 300.099 124.329 302.481C123.367 304.782 121.964 306.873 120.198 308.638C118.414 310.393 116.322 311.807 114.027 312.81C111.625 313.804 109.049 314.315 106.449 314.314C103.863 314.316 101.303 313.802 98.9207 312.8ZM97.0412 285.574C94.885 287.744 93.5489 290.592 93.26 293.633C92.9711 296.675 93.7475 299.723 95.4568 302.258C97.1662 304.793 99.7031 306.658 102.636 307.538C105.569 308.417 108.716 308.255 111.543 307.08C114.37 305.905 116.701 303.789 118.14 301.092C119.58 298.395 120.038 295.284 119.438 292.289C118.837 289.293 117.215 286.597 114.847 284.66C112.479 282.722 109.511 281.664 106.449 281.664C104.699 281.663 102.967 282.008 101.352 282.679C99.7377 283.35 98.2723 284.334 97.0412 285.574Z" stroke="#ED544B" stroke-width="2.61" stroke-miterlimit="10"/>
<path d="M162.643 299.708V310.192L161.281 311.13C161.231 311.13 161.231 311.13 161.176 311.18C161.12 311.236 161.048 311.273 160.97 311.285C160.914 311.341 160.864 311.391 160.809 311.391C160.785 311.423 160.754 311.449 160.718 311.467C160.682 311.485 160.643 311.495 160.603 311.496C160.542 311.56 160.471 311.612 160.392 311.651C160.342 311.702 160.286 311.702 160.236 311.757C160.186 311.812 160.13 311.807 160.08 311.862C160.03 311.917 159.924 311.912 159.819 311.962C159.713 312.012 159.713 312.017 159.663 312.068C159.592 312.133 159.499 312.17 159.402 312.173L159.296 312.278H159.191C159.111 312.342 159.023 312.394 158.929 312.434C158.824 312.484 158.668 312.539 158.562 312.589L158.512 312.644C156.314 313.617 153.958 314.183 151.557 314.314H150.552C148.471 314.324 146.404 313.985 144.436 313.311H144.381C144.175 313.261 144.014 313.156 143.808 313.1L143.024 312.79C142.367 312.538 141.736 312.224 141.139 311.852C139.55 311.004 138.104 309.913 136.853 308.618C135.071 306.859 133.65 304.771 132.666 302.471C131.913 300.694 131.436 298.812 131.254 296.891C131.204 296.269 131.154 295.587 131.154 294.96V293.958C131.287 291.698 131.797 289.477 132.661 287.384C133.653 285.089 135.072 283.001 136.843 281.232C138.595 279.452 140.696 278.049 143.014 277.111C145.393 276.088 147.961 275.575 150.552 275.607H151.557C151.717 275.598 151.876 275.616 152.029 275.662C154.286 275.809 156.498 276.356 158.562 277.276C158.562 277.291 158.568 277.305 158.579 277.315C158.589 277.326 158.603 277.332 158.618 277.332L158.929 277.487H158.98V284.632C158.182 283.968 157.304 283.407 156.366 282.962C155.593 282.599 154.789 282.302 153.964 282.075C153.936 282.078 153.908 282.076 153.881 282.067C153.854 282.058 153.829 282.044 153.808 282.025H153.648C153.597 281.969 153.547 281.969 153.442 281.969C153.401 281.966 153.364 281.949 153.336 281.919C153.125 281.869 152.864 281.869 152.658 281.814H152.552C152.502 281.814 152.396 281.764 152.341 281.764H152.266C152.191 281.772 152.116 281.753 152.055 281.709H151.582C151.532 281.709 151.482 281.659 151.426 281.659H150.592C148.172 281.636 145.793 282.287 143.722 283.539C143.643 283.604 143.555 283.658 143.461 283.699C142.616 284.223 141.843 284.853 141.159 285.574C140.922 285.789 140.696 286.014 140.481 286.251C140.481 286.251 140.481 286.306 140.431 286.306C140.187 286.606 139.96 286.919 139.752 287.244L139.647 287.349L139.33 287.816C139.276 287.875 139.24 287.948 139.225 288.026C138.459 289.245 137.912 290.587 137.606 291.992C137.556 292.042 137.556 292.042 137.556 292.092C137.442 292.609 137.355 293.131 137.295 293.657V294.233C137.249 294.473 137.231 294.717 137.24 294.96C137.232 295.189 137.251 295.418 137.295 295.642C137.343 296.629 137.5 297.608 137.762 298.56C138.55 301.347 140.227 303.802 142.538 305.552C144.85 307.303 147.67 308.254 150.572 308.262H150.939C150.967 308.265 150.995 308.262 151.022 308.254C151.049 308.245 151.074 308.231 151.095 308.212H151.879C151.879 308.157 151.929 308.157 151.984 308.157H152.296C152.663 308.107 153.08 308.001 153.447 307.951C153.497 307.951 153.497 307.951 153.552 307.896C153.625 307.903 153.697 307.886 153.758 307.846H153.914C153.935 307.825 153.96 307.809 153.988 307.799C154.016 307.79 154.046 307.787 154.075 307.791C154.136 307.751 154.208 307.733 154.281 307.741C154.321 307.736 154.358 307.719 154.386 307.69C155.129 307.488 155.849 307.207 156.532 306.853H156.582V299.708H149.25V294.233H162.633L162.643 299.708Z" stroke="#ED544B" stroke-width="2.61" stroke-miterlimit="10"/>
<path d="M196.147 314.314H189.298L179.523 301.223H175.081V314.314H169.015V275.612H180.513C185.639 275.612 188.619 277.698 190.187 279.472C192.197 281.714 193.323 284.847 193.323 288.442C193.323 292.037 192.223 295.121 190.187 297.362C188.955 298.718 187.399 299.74 185.664 300.335L196.147 314.314ZM180.513 295.798C183.026 295.798 184.906 295.066 186.107 293.712C187.574 292.148 187.835 289.956 187.835 288.442C187.835 286.928 187.574 284.687 186.107 283.123C184.906 281.769 183.026 281.092 180.513 281.092H175.081V295.798H180.513Z" stroke="#ED544B" stroke-width="2.61" stroke-miterlimit="10"/>
<path d="M222.752 306.021H208.952L205.656 314.314H198.967L215.852 273.842L232.672 314.314H226.044L222.752 306.021ZM220.556 300.596L215.852 288.808L211.143 300.596H220.556Z" stroke="#ED544B" stroke-width="2.61" stroke-miterlimit="10"/>
<path d="M268.433 314.314V293.757L256.307 311.807L244.13 293.757V314.314H238.064V273.842L256.292 300.962L274.534 273.842V314.314H268.433Z" stroke="#ED544B" stroke-width="2.61" stroke-miterlimit="10"/>
<path d="M303.667 306.021H289.867L286.57 314.314H279.881L296.767 273.842L313.582 314.314H306.958L303.667 306.021ZM301.471 300.596L296.767 288.808L292.058 300.596H301.471Z" stroke="#ED544B" stroke-width="2.61" stroke-miterlimit="10"/>
<path d="M33.0625 231.013H39.4397C44.5606 231.013 47.5407 233.099 49.1086 234.824C51.1992 237.115 52.2445 240.194 52.2445 243.794C52.2445 247.394 51.1992 250.522 49.1086 252.764C47.5407 254.533 44.5858 256.624 39.4397 256.624H34.0022V269.71H27.9365V231.013H33.0625ZM46.807 243.794C46.807 242.29 46.4954 240.089 45.0833 238.524C43.8319 237.17 41.9474 236.438 39.4397 236.438H34.0022V251.144H39.4397C41.9457 251.144 43.8269 250.467 45.0833 249.113C46.4954 247.549 46.807 245.358 46.807 243.794Z" fill="#ED544B" stroke="#ED544B" stroke-width="2.61" stroke-miterlimit="10"/>
<path d="M84.3918 269.71H77.5422L67.7677 256.624H63.3152V269.71H57.2847V231.013H68.7879C73.9088 231.013 76.8889 233.099 78.4568 234.874C80.4971 237.115 81.5927 240.244 81.5927 243.844C81.5927 247.444 80.4971 250.522 78.4568 252.764C77.2335 254.116 75.6883 255.138 73.9641 255.737L84.3918 269.71ZM68.7627 251.199C71.2755 251.199 73.155 250.467 74.356 249.113C75.8184 247.549 76.0798 245.358 76.0798 243.844C76.0798 242.33 75.8184 240.089 74.356 238.524C73.155 237.17 71.2704 236.489 68.7627 236.489H63.3152V251.199H68.7627Z" fill="#ED544B" stroke="#ED544B" stroke-width="2.61" stroke-miterlimit="10"/>
<path d="M98.9207 268.201C95.4028 266.723 92.4004 264.242 90.2897 261.068C88.1791 257.895 87.0541 254.17 87.0557 250.362C87.0553 247.767 87.5676 245.198 88.5633 242.801C89.5651 240.511 90.9827 238.425 92.7445 236.649C94.5079 234.884 96.6034 233.483 98.9106 232.528C101.297 231.528 103.86 231.016 106.449 231.024C109.049 231.023 111.625 231.534 114.027 232.528C118.685 234.462 122.388 238.155 124.329 242.801C125.323 245.199 125.835 247.768 125.837 250.362C125.842 252.944 125.329 255.501 124.329 257.883C123.367 260.184 121.964 262.275 120.198 264.04C118.414 265.794 116.322 267.208 114.027 268.211C111.624 269.203 109.049 269.714 106.449 269.715C103.863 269.716 101.304 269.201 98.9207 268.201ZM97.0412 240.976C94.885 243.146 93.5489 245.993 93.26 249.035C92.9711 252.077 93.7475 255.124 95.4568 257.659C97.1662 260.194 99.7031 262.06 102.636 262.939C105.569 263.818 108.716 263.657 111.543 262.482C114.37 261.307 116.701 259.191 118.14 256.494C119.58 253.797 120.038 250.686 119.438 247.69C118.837 244.694 117.215 241.998 114.847 240.061C112.479 238.124 109.511 237.065 106.449 237.065C104.699 237.064 102.967 237.409 101.352 238.081C99.7377 238.752 98.2723 239.736 97.0412 240.976Z" fill="#ED544B" stroke="#ED544B" stroke-width="2.61" stroke-miterlimit="10"/>
<path d="M162.643 255.11V265.594L161.281 266.532C161.231 266.532 161.231 266.532 161.176 266.582C161.12 266.638 161.048 266.675 160.97 266.687C160.914 266.742 160.864 266.792 160.809 266.792C160.785 266.824 160.754 266.85 160.718 266.868C160.682 266.887 160.643 266.897 160.603 266.898C160.542 266.961 160.471 267.014 160.392 267.053C160.342 267.103 160.286 267.103 160.236 267.158C160.186 267.214 160.13 267.208 160.08 267.264C160.03 267.319 159.924 267.314 159.819 267.364C159.713 267.414 159.713 267.419 159.663 267.469C159.592 267.535 159.499 267.572 159.402 267.574L159.296 267.68H159.191C159.111 267.744 159.023 267.796 158.929 267.835C158.824 267.885 158.668 267.941 158.562 267.991L158.512 268.046C156.315 269.019 153.958 269.583 151.557 269.71H150.552C148.471 269.721 146.404 269.382 144.436 268.708H144.381C144.175 268.652 144.014 268.552 143.808 268.497L143.024 268.186C142.367 267.935 141.736 267.621 141.139 267.249C139.55 266.4 138.104 265.309 136.853 264.015C135.072 262.257 133.65 260.171 132.666 257.873C131.913 256.095 131.437 254.213 131.254 252.292C131.204 251.666 131.154 250.989 131.154 250.362V249.359C131.287 247.1 131.796 244.878 132.661 242.786C133.653 240.49 135.072 238.403 136.843 236.634C138.595 234.853 140.696 233.451 143.014 232.513C145.393 231.489 147.961 230.977 150.552 231.008H151.557C151.717 230.999 151.876 231.018 152.029 231.064C154.286 231.211 156.498 231.758 158.562 232.678C158.562 232.685 158.564 232.692 158.567 232.698C158.57 232.705 158.574 232.711 158.579 232.715C158.584 232.72 158.59 232.724 158.597 232.726C158.604 232.728 158.611 232.729 158.618 232.728L158.929 232.889H158.98V240.038C158.182 239.375 157.304 238.814 156.366 238.369C155.593 238.005 154.789 237.708 153.964 237.481C153.936 237.485 153.908 237.482 153.881 237.474C153.854 237.465 153.829 237.451 153.808 237.431H153.648C153.597 237.376 153.547 237.376 153.442 237.376C153.401 237.373 153.364 237.355 153.336 237.326C153.125 237.271 152.864 237.271 152.658 237.221H152.552C152.502 237.221 152.396 237.17 152.341 237.17H152.266C152.191 237.179 152.116 237.159 152.055 237.115H151.582C151.532 237.115 151.482 237.065 151.426 237.065H150.592C148.172 237.041 145.793 237.69 143.722 238.94C143.644 239.006 143.556 239.058 143.461 239.096C142.615 239.62 141.841 240.252 141.159 240.976C140.922 241.19 140.696 241.416 140.481 241.653C140.481 241.653 140.481 241.708 140.431 241.708C140.185 242.006 139.959 242.319 139.752 242.646L139.647 242.751L139.33 243.217C139.276 243.276 139.24 243.349 139.225 243.428C138.46 244.645 137.912 245.985 137.606 247.389C137.556 247.444 137.556 247.444 137.556 247.494C137.442 248.011 137.355 248.533 137.295 249.058V249.635C137.249 249.874 137.231 250.118 137.24 250.362C137.232 250.591 137.251 250.819 137.295 251.044C137.343 252.031 137.5 253.009 137.762 253.962C138.55 256.749 140.227 259.203 142.538 260.954C144.85 262.704 147.67 263.656 150.572 263.664H150.939C150.967 263.667 150.996 263.664 151.023 263.654C151.05 263.645 151.075 263.629 151.095 263.609H151.879C151.879 263.558 151.929 263.558 151.984 263.558H152.296C152.663 263.508 153.08 263.403 153.447 263.348C153.497 263.348 153.497 263.348 153.552 263.298C153.625 263.305 153.697 263.287 153.758 263.248H153.914C153.935 263.227 153.96 263.211 153.988 263.201C154.016 263.192 154.046 263.189 154.075 263.192C154.136 263.153 154.208 263.135 154.281 263.142C154.322 263.137 154.359 263.118 154.386 263.087C155.13 262.889 155.849 262.609 156.532 262.255H156.582V255.11H149.25V249.635H162.633L162.643 255.11Z" fill="#ED544B" stroke="#ED544B" stroke-width="2.61" stroke-miterlimit="10"/>
<path d="M196.147 269.71H189.298L179.523 256.624H175.081V269.71H169.015V231.013H180.513C185.639 231.013 188.619 233.099 190.187 234.874C192.197 237.115 193.323 240.244 193.323 243.844C193.323 247.444 192.223 250.522 190.187 252.764C188.955 254.119 187.399 255.142 185.664 255.737L196.147 269.71ZM180.513 251.199C183.026 251.199 184.906 250.467 186.107 249.113C187.574 247.549 187.835 245.358 187.835 243.844C187.835 242.33 187.574 240.089 186.107 238.524C184.906 237.17 183.026 236.489 180.513 236.489H175.081V251.199H180.513Z" fill="#ED544B" stroke="#ED544B" stroke-width="2.61" stroke-miterlimit="10"/>
<path d="M222.752 261.447H208.952L205.656 269.735H198.967L215.852 229.269L232.672 269.71H226.044L222.752 261.447ZM220.556 256.022L215.852 244.235L211.143 256.022H220.556Z" fill="#ED544B" stroke="#ED544B" stroke-width="2.61" stroke-miterlimit="10"/>
<path d="M268.433 269.71V249.154L256.307 267.204L244.13 249.154V269.71H238.064V229.244L256.292 256.364L274.534 229.244V269.71H268.433Z" fill="#ED544B" stroke="#ED544B" stroke-width="2.61" stroke-miterlimit="10"/>
<path d="M303.667 261.447H289.867L286.57 269.735H279.881L296.767 229.269L313.582 269.71H306.958L303.667 261.447ZM301.471 256.022L296.767 244.235L292.058 256.022H301.471Z" fill="#ED544B" stroke="#ED544B" stroke-width="2.61" stroke-miterlimit="10"/>
<path d="M137.475 74.932C136.702 73.9944 135.556 72.3649 135.556 72.3649C135.556 72.3649 135.802 74.3153 135.802 75.4986V94.2003H133.023V66.1929H133.525L150.109 85.7469C150.883 86.6845 152.029 88.314 152.029 88.314C152.029 88.314 151.823 86.3586 151.823 85.1753V66.4736H154.557V94.4861H154.054L137.475 74.932Z" fill="#F2C43E"/>
<path d="M161.889 84.7291V66.4736H164.829V84.5235C164.829 89.4521 167.523 91.8989 171.865 91.8989C176.207 91.8989 178.9 89.4521 178.9 84.5235V66.4736H181.84V84.7291C181.84 91.207 177.513 94.5061 171.88 94.5061C166.246 94.5061 161.889 91.207 161.889 84.7291Z" fill="#F2C43E"/>
<path d="M195.243 69.0808H186.7V66.4736H206.711V69.0808H198.168V94.1802H195.223L195.243 69.0808Z" fill="#F2C43E"/>
<path d="M229.868 94.1802H226.395L221.048 86.5992C220.077 86.7648 219.094 86.847 218.109 86.8449H214.802V94.1802H211.857V66.4736H218.099C225.692 66.4736 229.612 70.7103 229.612 76.7019C229.612 80.8584 227.652 84.1174 223.812 85.6617L229.868 94.1802ZM217.943 84.2778C224.235 84.2778 226.561 81.0589 226.561 76.7019C226.561 72.3449 224.194 69.0808 217.943 69.0808H214.802V84.2778H217.943Z" fill="#F2C43E"/>
<path d="M236.316 66.4736H239.296V94.1802H236.316V66.4736Z" fill="#F2C43E"/>
<path d="M253.095 69.0808H244.552V66.4736H264.564V69.0808H256.02V94.1802H253.08L253.095 69.0808Z" fill="#F2C43E"/>
<path d="M269.83 66.4736H272.815V94.1802H269.83V66.4736Z" fill="#F2C43E"/>
<path d="M278.941 80.327C278.941 71.9739 285.309 66.1528 293.188 66.1528C301.068 66.1528 307.481 71.9739 307.481 80.327C307.481 88.6801 301.114 94.4861 293.188 94.4861C285.263 94.4861 278.941 88.6801 278.941 80.327ZM304.42 80.327C304.42 73.7288 299.681 68.7951 293.188 68.7951C286.696 68.7951 282.002 73.7238 282.002 80.327C282.002 86.9303 286.736 91.8589 293.188 91.8589C299.641 91.8589 304.42 86.9303 304.42 80.327Z" fill="#F2C43E"/>
<path d="M317.929 74.932C317.155 73.9944 316.009 72.3649 316.009 72.3649C316.009 72.3649 316.255 74.3153 316.255 75.4986V94.2003H313.476V66.1929H313.979L330.563 85.7469C331.336 86.6845 332.482 88.314 332.482 88.314C332.482 88.314 332.276 86.3586 332.276 85.1753V66.4736H335.01V94.4861H334.508L317.929 74.932Z" fill="#F2C43E"/>
<path d="M133.023 108.931H149.753V111.533H135.963V124.529H148.461V127.222H135.963V136.633H133.023V108.931Z" fill="#5E61B5"/>
<path d="M153.929 122.784C153.929 114.431 160.296 108.605 168.181 108.605C176.066 108.605 182.468 114.431 182.468 122.784C182.468 131.137 176.101 136.959 168.181 136.959C160.261 136.959 153.929 131.137 153.929 122.784ZM179.408 122.784C179.408 116.181 174.669 111.253 168.181 111.253C161.693 111.253 156.989 116.176 156.989 122.784C156.989 129.393 161.723 134.316 168.181 134.316C174.639 134.316 179.403 129.383 179.403 122.784H179.408Z" fill="#5E61B5"/>
<path d="M206.474 136.638H203.022L197.655 129.082C196.684 129.247 195.7 129.33 194.715 129.328H191.408V136.663H188.448V108.931H194.7C202.293 108.931 206.213 113.168 206.213 119.159C206.213 123.316 204.253 126.57 200.414 128.119L206.474 136.638ZM194.549 126.735C200.841 126.735 203.168 123.516 203.168 119.159C203.168 114.802 200.801 111.533 194.549 111.533H191.408V126.73L194.549 126.735Z" fill="#5E61B5"/>
<path d="M212.35 127.182V108.931H215.289V126.981C215.289 131.91 217.988 134.351 222.325 134.351C226.662 134.351 229.361 131.91 229.361 126.981V108.931H232.296V127.182C232.296 133.665 227.969 136.959 222.335 136.959C216.702 136.959 212.35 133.665 212.35 127.182Z" fill="#5E61B5"/>
<path d="M239.622 108.605H240.029L252.935 124.7L265.754 108.605H266.207V136.638H263.327V118.342C263.327 117.084 263.448 115.163 263.448 115.163C262.853 116.168 262.199 117.135 261.488 118.061L253.08 128.651H252.578L244.321 118.051C243.601 117.121 242.93 116.154 242.311 115.153C242.311 115.153 242.477 117.074 242.477 118.332V136.628H239.617L239.622 108.605Z" fill="#5E61B5"/>
<path d="M131.696 193.595L148.954 177.897C154.652 172.717 157.969 168.982 157.969 164.229C157.969 158.969 154.482 156.337 149.637 156.337C144.446 156.337 140.878 159.391 139.003 164.996L133.561 163.492C135.601 155.655 141.712 150.902 149.552 150.902C158.567 150.902 164.09 156.167 164.09 163.973C164.09 169.829 159.839 175.004 153.718 180.609L147.24 186.465C145.732 187.909 142.818 189.439 142.818 189.439C142.818 189.439 145.963 189.183 147.582 189.183H165.171V194.362H131.696V193.595Z" fill="#B51A65"/>
<path d="M170.568 172.973C170.568 160.072 181.026 150.912 193.016 150.912C205.077 150.912 215.55 160.082 215.55 172.973C215.55 185.618 205.093 195.034 193.016 195.034C181.026 195.039 170.568 185.618 170.568 172.973ZM209.344 172.973C209.344 163.041 202.118 156.252 193.016 156.252C183.915 156.252 176.86 163.041 176.86 172.973C176.86 182.65 183.92 189.694 193.016 189.694C202.112 189.694 209.344 182.65 209.344 172.973Z" fill="#B51A65"/>
<path d="M218.948 193.595L236.19 177.897C241.909 172.702 245.236 168.982 245.236 164.229C245.236 158.969 241.748 156.337 236.899 156.337C231.712 156.337 228.144 159.391 226.27 164.996L220.827 163.492C222.868 155.68 228.994 150.927 236.813 150.927C245.829 150.927 251.357 156.192 251.357 163.998C251.357 169.855 247.105 175.029 240.984 180.634L234.522 186.491C233.014 187.935 230.099 189.464 230.099 189.464C230.099 189.464 233.245 189.208 234.858 189.208H252.447V194.362H218.948V193.595Z" fill="#B51A65"/>
<path d="M0.452478 126.705C-1.13053 130.982 1.48268 135.229 7.62376 137.39C8.31939 137.628 9.03154 137.816 9.75454 137.951C8.3826 132.045 6.9202 125.863 5.81963 120.047C3.22651 122.479 1.16106 124.785 0.452478 126.705Z" fill="#E55A5A"/>
<path d="M109.791 43.5353C122.414 38.732 138.913 41.3693 150.044 40.0256C159.402 38.8874 162.563 34.1844 163.487 29.2859C151.426 32.8558 131.701 29.6469 120.304 33.7232C116.268 35.1571 112.766 38.8674 109.791 43.5353Z" fill="#F2C43E"/>
<path d="M163.824 24.9389C163.738 18.812 152.858 18.2153 133.887 24.5077C117.62 29.9026 102.644 39.4641 87.7739 37.4836C90.945 41.9961 93.5883 48.7347 95.2819 56.1401C97.7352 51.3642 101.628 47.4764 106.413 45.0244C107.505 44.455 108.632 43.9527 109.785 43.5203C112.76 38.8524 116.263 35.1421 120.298 33.7031C131.696 29.6269 151.421 32.8357 163.482 29.2659C163.74 27.8385 163.854 26.389 163.824 24.9389Z" fill="#E55A5A"/>
<path d="M16.2722 110.952C13.0057 113.855 9.01048 117.049 5.81934 120.047C6.9199 125.863 8.3823 132.045 9.75425 137.951C15.3425 139.049 21.358 136.903 25.6446 130.962C27.3885 128.545 31.4239 122.699 36.0523 116.011C31.1525 112.892 26.4186 109.026 22.157 105.562C19.5036 108.024 17.4281 109.919 16.2722 110.952Z" fill="#5E61B5"/>
<path d="M86.6987 114.722C85.1308 122.158 82.402 136.678 80.3667 147.663C83.5528 149.599 89.5532 150.11 93.9102 147.513C99.5538 144.138 97.8049 131.654 96.8602 127.016C96.1918 123.732 92.9051 100.608 91.498 84.8997C89.7592 82.1621 88.0405 79.4897 86.4073 76.9778C88.141 90.6556 88.4426 106.519 86.6987 114.722Z" fill="#B51A65"/>
<path d="M86.4322 76.9828C81.2711 69.0609 76.9492 62.7936 75.4516 61.6103C70.8182 57.9402 62.8579 68.384 60.0236 76.1505C57.1893 83.917 43.9422 89.2918 39.4193 96.7976C38.0826 99.0187 40.0877 102.393 43.0728 105.963C49.2742 97.0633 55.0886 88.8456 56.8726 86.8551C60.7171 82.5783 68.1296 73.6686 73.9993 75.4736C79.869 77.2786 83.7436 81.7009 80.653 105.396C77.5623 129.092 76.9342 142.178 78.3915 145.628C78.8301 146.507 79.5328 147.227 80.4017 147.688C82.437 136.703 85.1658 122.183 86.7337 114.747C88.4424 106.519 88.1409 90.6556 86.4322 76.9828Z" fill="#905DBB"/>
<path d="M80.3715 35.4982C63.0388 28.1829 53.5106 24.8888 40.9219 15.9993C35.8965 12.4595 32.047 8.73921 28.69 5.90137C23.8908 5.96153 20.0966 7.24508 18.0864 8.74923C14.2285 11.6721 10.7953 15.1142 7.88477 18.9775C8.16005 19.5234 8.53304 20.0145 8.98534 20.4265C10.6646 21.8529 12.4926 23.0951 14.4379 24.1317C20.182 18.2405 24.8958 15.0115 28.1372 16.611C32.9516 19.0176 42.711 28.9952 50.4602 31.828C58.2094 34.6608 76.9392 45.0646 82.045 57.3987C83.9145 61.9112 85.397 69.076 86.402 76.9527C88.0353 79.4597 89.754 82.1371 91.4928 84.8746C90.9099 78.3566 90.6485 73.1322 91.0355 71.1116C91.7793 67.2058 92.4778 61.5401 95.282 56.1101C93.5884 48.7047 90.945 41.946 87.774 37.4536C85.2298 37.1361 82.7399 36.4784 80.3715 35.4982Z" fill="#5E61B5"/>
<path d="M28.6901 5.90128C23.6295 1.61945 19.7147 -0.616734 14.7395 2.89297C9.31706 6.75865 5.6083 14.5903 7.88985 18.9624C10.8 15.1047 14.2314 11.6677 18.0864 8.74915C20.0966 7.24499 23.8908 5.96145 28.6901 5.90128Z" fill="#905DBB"/>
<path d="M39.3892 96.7774C43.9121 89.2566 57.1642 83.8767 59.9935 76.1303C62.8228 68.3839 70.7881 57.9401 75.4215 61.5902C76.9292 62.7734 81.241 69.0407 86.4021 76.9626C85.397 69.0658 83.9145 61.9211 82.0451 57.4086C76.9392 45.0895 58.2245 34.6808 50.4602 31.8379C42.696 28.995 32.9567 19.0425 28.1373 16.6359C24.8959 15.0164 20.1821 18.2453 14.438 24.1567C19.3679 26.9093 26.2327 29.5616 34.2181 31.151C45.8218 33.4574 59.501 39.2835 63.7827 45.3703C68.0643 51.4571 70.5469 56.6364 61.2699 67.2157C53.8122 75.7392 33.0522 95.4537 22.142 105.582C26.4035 109.056 31.1475 112.912 36.0373 116.031C38.2937 112.777 40.6858 109.322 43.0276 105.963C40.0576 102.373 38.0525 98.9985 39.3892 96.7774Z" fill="#F2C43E"/>
<path d="M84.3518 25.7963C89.3772 26.8342 94.6087 21.7852 96.7847 11.1659C98.9607 0.546524 88.347 0.300838 88.347 0.300838C80.4471 -0.832294 77.874 1.36879 77.9545 9.75196C78.0349 18.1351 79.3415 24.7284 84.3518 25.7963Z" fill="#E55A5A"/>
<path d="M278.353 166.901C278.908 166.459 279.422 165.969 279.891 165.437L289.942 153.404L290.002 153.329V152.466H264.031V157.159H278.404C279.264 157.149 280.123 157.09 280.977 156.984C280.534 157.425 279.921 158.067 279.378 158.729L268.825 171.439L269.569 172.502L269.78 172.396C271.498 171.552 273.394 171.133 275.308 171.173C281.705 171.173 285.359 174.602 285.359 180.589C285.359 187.333 280.514 190.351 275.715 190.351C270.84 190.351 267.207 188.09 265.202 183.833L265.086 183.582L260.312 185.834L260.423 186.084C263.101 191.945 268.694 195.31 275.77 195.31C284.816 195.31 291.138 189.293 291.138 180.669C291.138 173.078 285.806 167.403 278.353 166.901Z" fill="#B51A65"/>
</g>
<defs>
<clipPath id="clip0_5_284">
<rect width="335" height="360" fill="white"/>
</clipPath>
</defs>
</svg>
